<svg width="45" height="45" viewBox="0 0 45 45" fill="none" xmlns="http://www.w3.org/2000/svg">
<path d="M33.7501 0H11.2501C10.0075 0 9.00012 1.00731 9.00012 2.25V42.75C9.00012 43.9926 10.0074 45 11.2501 45H33.7501C34.9927 45 36.0001 43.9927 36.0001 42.75V2.25C36.0001 1.00731 34.9927 0 33.7501 0ZM34.5001 6.00003H17.2502C16.8359 6.00003 16.5002 6.33577 16.5002 6.75C16.5002 7.16423 16.8359 7.49997 17.2502 7.49997H34.5002V36.75H32.2502C31.836 36.75 31.5002 37.0857 31.5002 37.4999C31.5002 37.9142 31.836 38.2499 32.2502 38.2499H34.5002V42.7499C34.5002 43.1641 34.1644 43.4999 33.7502 43.4999H11.2501C10.8359 43.4999 10.5002 43.1641 10.5002 42.7499V38.2499H27.7502C28.1644 38.2499 28.5002 37.9142 28.5002 37.4999C28.5002 37.0857 28.1644 36.75 27.7502 36.75H10.5002V7.49997H12.7502C13.1644 7.49997 13.5001 7.16423 13.5001 6.75C13.5001 6.33577 13.1644 6.00003 12.7502 6.00003H10.5002V2.25C10.5002 1.83577 10.8359 1.50003 11.2501 1.50003H33.7501C34.1644 1.50003 34.5001 1.83577 34.5001 2.25V6.00003Z" fill="#E0E0E0"/>
<path d="M23.2501 40.5H21.7501C21.3359 40.5 21.0001 40.8357 21.0001 41.25C21.0001 41.6642 21.3359 41.9999 21.7501 41.9999H23.2501C23.6644 41.9999 24.0001 41.6642 24.0001 41.25C24.0001 40.8357 23.6644 40.5 23.2501 40.5Z" fill="#E0E0E0"/>
<path d="M15.213 12.229L13.5045 13.2527C12.8761 13.6231 12.4156 14.2226 12.2197 14.9252C11.5762 17.272 12.0337 21.2942 17.871 27.1306C22.4925 31.7514 25.9763 33.0001 28.3921 33.0001C28.9609 33.0025 29.5274 32.9286 30.0766 32.7804C30.7786 32.5842 31.3775 32.1238 31.7476 31.4956L32.7751 29.7879C33.2166 29.0554 33.0031 28.105 32.2905 27.6317L28.2 24.9084C27.5006 24.4476 26.5647 24.5999 26.0475 25.2587L24.8588 26.7872C24.8304 26.8265 24.7773 26.839 24.7342 26.8164L24.5092 26.6912C23.2087 25.9809 22.0358 25.0584 21.0389 23.9619C19.9425 22.9651 19.02 21.7922 18.3097 20.4917L18.1844 20.2622C18.1616 20.2195 18.1741 20.1664 18.2137 20.1384L19.7429 18.9489C20.4017 18.4319 20.5534 17.4958 20.0917 16.7972L17.3692 12.7126C16.8951 12.0015 15.9457 11.7886 15.213 12.229ZM16.1205 13.5452L17.601 15.7668L18.843 17.6253C18.8721 17.6698 18.8627 17.7292 18.8213 17.7626L17.2921 18.9513C16.6651 19.4319 16.4867 20.3002 16.8735 20.989L16.992 21.2066C17.7684 22.6347 18.7774 23.9234 19.9778 25.0195C21.0739 26.2198 22.3626 27.2289 23.7907 28.0052L24.0075 28.1237C24.6965 28.5103 25.565 28.332 26.046 27.7052L27.2347 26.1767C27.2676 26.1351 27.3267 26.1253 27.3712 26.1542L31.4542 28.8759C31.4997 28.9059 31.5133 28.9666 31.4849 29.0132L30.4612 30.7202C30.2893 31.017 30.0092 31.2357 29.6797 31.3307C28.0701 31.7732 24.5392 31.6771 18.9314 26.0687C13.3229 20.4609 13.2254 16.9277 13.6664 15.3204C13.7614 14.9909 13.9802 14.7108 14.2769 14.5389L15.9839 13.5152C15.9996 13.5052 16.0178 13.5001 16.0364 13.5001C16.0703 13.5003 16.1018 13.5172 16.1205 13.5452Z" fill="#E0E0E0"/>
</svg>
