<svg width="60" height="60" viewBox="0 0 60 60" fill="none" xmlns="http://www.w3.org/2000/svg">
<g clip-path="url(#clip0)">
<path d="M46.251 0H3.75098C1.67992 0 0.000976562 1.67895 0.000976562 3.75V33.75C0.000976562 35.8211 1.67992 37.5 3.75098 37.5H20.001V35H3.75098C3.06063 35 2.50094 34.4404 2.50094 33.75V3.75C2.50094 3.05965 3.06063 2.49996 3.75098 2.49996H46.251C46.9414 2.49996 47.5011 3.05965 47.5011 3.75V26.25H50.001V3.75C50.001 1.67895 48.3221 0 46.251 0Z" fill="white"/>
<path d="M17.5001 36.25H15.0001V43.75H17.5001V36.25Z" fill="white"/>
<path d="M8.75018 30C8.05983 30 7.50014 29.4403 7.50014 28.75V26.25H5.00018V28.75C5.00018 30.821 6.67913 32.5 8.75018 32.5H11.2501V30H8.75018Z" fill="white"/>
<path d="M7.50014 21.25H5.00018V23.75H7.50014V21.25Z" fill="white"/>
<path d="M45.684 26.4775C43.1368 23.9299 39.6817 22.4987 36.0792 22.4988C28.5785 22.4991 22.4982 28.5799 22.4984 36.0806C22.4988 43.5813 28.5795 49.6616 36.0802 49.6613C39.6816 49.6612 43.1354 48.2307 45.6822 45.6843C50.9865 40.381 50.9873 31.7819 45.684 26.4775ZM36.0727 47.1625C29.9527 47.1604 24.9931 42.1975 24.9952 36.0775C24.9973 29.9575 29.9602 24.9979 36.0802 25C39.0217 24.9921 41.844 26.1625 43.9164 28.25C45.9928 30.3287 47.1587 33.1469 47.1577 36.085C47.1556 42.205 42.1927 47.1647 36.0727 47.1625Z" fill="white"/>
<path d="M59.6339 54.375L51.7876 46.5312C51.5532 46.2969 51.2353 46.165 50.9039 46.165C50.5724 46.1652 50.2545 46.2969 50.0202 46.5312L46.5327 50.0188C46.0447 50.5068 46.0447 51.2981 46.5327 51.7863L54.379 59.6338C54.6133 59.8682 54.9313 60 55.2627 60C55.5947 59.9989 55.9127 59.8658 56.1464 59.63L59.6339 56.1425C60.1218 55.6543 60.1218 54.863 59.6339 54.375ZM55.2625 56.9825L49.1838 50.9025L50.9038 49.1825L56.9825 55.2625L55.2625 56.9825Z" fill="white"/>
<path d="M45.6837 43.9151L43.916 45.6829L48.2753 50.0421L50.043 48.2744L45.6837 43.9151Z" fill="white"/>
<path d="M36.2501 27.5V30C39.7002 30.0041 42.496 32.7999 42.5001 36.2499H45C44.9947 31.4198 41.0804 27.5055 36.2501 27.5Z" fill="white"/>
<path d="M22.5001 42.5H12.5002V45H22.5001V42.5Z" fill="white"/>
<path d="M18.7501 5C16.6791 5 15.0001 6.67895 15.0001 8.75C15.0001 10.8211 16.6791 12.5 18.7501 12.5C20.8212 12.5 22.5001 10.8211 22.5001 8.75C22.5001 6.67895 20.8212 5 18.7501 5ZM18.7501 9.99992C18.0598 9.99992 17.5001 9.44023 17.5001 8.74988C17.5001 8.05953 18.0598 7.49984 18.7501 7.49984C19.4405 7.49984 20.0002 8.05953 20.0002 8.74988C20.0002 9.44035 19.4405 9.99992 18.7501 9.99992Z" fill="white"/>
<path d="M27.5002 13.75C25.4291 13.75 23.7502 15.4289 23.7502 17.5C23.7502 19.571 25.4291 21.25 27.5002 21.25C29.5712 21.25 31.2502 19.571 31.2502 17.5C31.2502 15.4289 29.5712 13.75 27.5002 13.75ZM27.5002 18.75C26.8098 18.75 26.2501 18.1903 26.2501 17.5C26.2501 16.8096 26.8098 16.25 27.5002 16.25C28.1905 16.25 28.7502 16.8096 28.7502 17.5C28.7501 18.1903 28.1905 18.75 27.5002 18.75Z" fill="white"/>
<path d="M16.6161 9.11682L10.3662 15.3667L12.1339 17.1344L18.3838 10.8845L16.6161 9.11682Z" fill="white"/>
<path d="M20.8785 9.11948L19.1108 10.8872L25.3607 17.1371L27.1284 15.3694L20.8785 9.11948Z" fill="white"/>
<path d="M36.2501 5C34.1791 5 32.5001 6.67895 32.5001 8.75C32.5001 10.8211 34.1791 12.5 36.2501 12.5C38.3212 12.5 40.0001 10.8211 40.0001 8.75C40.0002 6.67895 38.3213 5 36.2501 5ZM36.2501 9.99992C35.5598 9.99992 35.0001 9.44023 35.0001 8.74988C35.0001 8.05953 35.5598 7.49984 36.2501 7.49984C36.9405 7.49984 37.5002 8.05953 37.5002 8.74988C37.5002 9.44035 36.9405 9.99992 36.2501 9.99992Z" fill="white"/>
<path d="M34.1154 9.12097L27.8655 15.3708L29.6333 17.1386L35.8832 10.8887L34.1154 9.12097Z" fill="white"/>
</g>
<defs>
<clipPath id="clip0">
<rect width="60" height="60" fill="white"/>
</clipPath>
</defs>
</svg>
