<svg width="60" height="60" viewBox="0 0 60 60" fill="none" xmlns="http://www.w3.org/2000/svg">
<path d="M60 5.625H0V54.375H60V5.625ZM58.1251 52.4999H1.87506V7.49994H58.1251V52.4999Z" fill="white"/>
<path d="M19.6681 39.3086H6.54307V41.1837H19.6681V39.3086Z" fill="white"/>
<path d="M17.7931 43.0586H8.41799V44.9337H17.7931V43.0586Z" fill="white"/>
<path d="M36.543 39.3086H23.418V41.1837H36.543V39.3086Z" fill="white"/>
<path d="M34.6681 43.0586H25.2931V44.9337H34.6681V43.0586Z" fill="white"/>
<path d="M53.4181 39.3086H40.2931V41.1837H53.4181V39.3086Z" fill="white"/>
<path d="M51.5431 43.0586H42.168V44.9337H51.5431V43.0586Z" fill="white"/>
<path d="M13.1056 33.6837C14.1412 33.6837 14.9807 32.8442 14.9807 31.8086C14.9807 30.7731 14.1412 29.9336 13.1056 29.9336C12.07 29.9336 11.2305 30.7731 11.2305 31.8086C11.2305 32.8442 12.07 33.6837 13.1056 33.6837Z" fill="white"/>
<path d="M29.9805 33.6837C31.0161 33.6837 31.8556 32.8442 31.8556 31.8086C31.8556 30.7731 31.0161 29.9336 29.9805 29.9336C28.945 29.9336 28.1055 30.7731 28.1055 31.8086C28.1055 32.8442 28.945 33.6837 29.9805 33.6837Z" fill="white"/>
<path d="M46.8556 33.6837C47.8912 33.6837 48.7307 32.8442 48.7307 31.8086C48.7307 30.7731 47.8912 29.9336 46.8556 29.9336C45.82 29.9336 44.9805 30.7731 44.9805 31.8086C44.9805 32.8442 45.82 33.6837 46.8556 33.6837Z" fill="white"/>
<path d="M13.1056 28.0587C16.73 28.0587 19.6681 25.1206 19.6681 21.4961C19.6681 17.8718 16.73 14.9336 13.1056 14.9336C9.48111 14.9336 6.54307 17.8718 6.54307 21.4961C6.54307 25.1206 9.48111 28.0587 13.1056 28.0587ZM13.1056 16.8087C15.6903 16.8087 17.7931 18.9115 17.7931 21.4961C17.7931 24.0809 15.6903 26.1836 13.1056 26.1836C10.5208 26.1836 8.41813 24.0809 8.41813 21.4961C8.41801 18.9116 10.5208 16.8087 13.1056 16.8087Z" fill="white"/>
<path d="M30.0001 28.0587C33.6245 28.0587 36.5627 25.1206 36.5627 21.4961C36.5627 17.8718 33.6245 14.9336 30.0001 14.9336C26.3757 14.9336 23.4376 17.8718 23.4376 21.4961C23.4376 25.1206 26.3757 28.0587 30.0001 28.0587ZM30.0001 16.8087C32.5848 16.8087 34.6876 18.9115 34.6876 21.4961C34.6876 24.0809 32.5848 26.1836 30.0001 26.1836C27.4154 26.1836 25.3127 24.0809 25.3127 21.4961C25.3127 18.9116 27.4154 16.8087 30.0001 16.8087Z" fill="white"/>
<path d="M46.8945 28.0587C50.519 28.0587 53.4571 25.1206 53.4571 21.4961C53.4571 17.8718 50.519 14.9336 46.8945 14.9336C43.2702 14.9336 40.332 17.8718 40.332 21.4961C40.3321 25.1206 43.2703 28.0587 46.8945 28.0587ZM46.8945 16.8087C49.4793 16.8087 51.582 18.9115 51.582 21.4961C51.582 24.0809 49.4793 26.1836 46.8945 26.1836C44.3099 26.1836 42.2071 24.0809 42.2071 21.4961C42.2071 18.9116 44.3099 16.8087 46.8945 16.8087Z" fill="white"/>
</svg>
