<svg width="60" height="60" viewBox="0 0 60 60" fill="none" xmlns="http://www.w3.org/2000/svg">
<path d="M8.68535 21.3276C10.526 21.3276 12.0208 19.1914 12.0208 17.3504C12.0208 15.5079 10.526 14.0149 8.68535 14.0149C6.84466 14.0149 5.34985 15.5079 5.34985 17.3504C5.34985 19.191 6.84255 21.3276 8.68535 21.3276Z" fill="white"/>
<path d="M7.09617 47.1677L8.04637 35.37C8.24178 35.4541 8.45769 35.5057 8.68356 35.5057C8.91123 35.5057 9.12714 35.4581 9.32255 35.37L10.2718 47.1677C10.34 47.9975 11.0321 48.6236 11.8484 48.6236C11.8915 48.6236 11.9349 48.6199 11.9759 48.6163C12.8483 48.5482 13.4991 47.7843 13.4258 46.914L12.3764 33.8604V24.8567C12.5058 24.8944 12.6306 24.9302 12.7425 24.964L13.7038 33.6147C13.7792 34.2883 14.3501 34.788 15.012 34.788C15.0632 34.788 15.1103 34.7862 15.1606 34.7808C15.885 34.7 16.4076 34.048 16.3268 33.3249L15.2701 23.826C15.2629 23.7626 15.2288 23.7123 15.214 23.6517C15.1893 23.5564 15.1682 23.4599 15.1233 23.3715C15.0874 23.3037 15.0388 23.253 14.9939 23.1945C14.9351 23.1155 14.879 23.0383 14.8039 22.975C14.746 22.9237 14.6745 22.8942 14.6085 22.855C14.5425 22.8158 14.4864 22.7621 14.4092 22.7337C14.2907 22.6906 11.6355 21.7395 9.19499 21.6138L8.85816 22.285H8.85062L9.7402 29.2048L8.68356 31.0484L7.62872 29.2048L8.51831 22.285H8.50624L8.17212 21.6132C5.73375 21.7389 3.08037 22.69 2.96005 22.7331C2.88105 22.7618 2.82405 22.8148 2.75892 22.8562C2.69077 22.8939 2.62292 22.9234 2.56502 22.9729C2.48601 23.0401 2.43113 23.1206 2.36961 23.1996C2.3283 23.2566 2.28065 23.307 2.24748 23.3694C2.19983 23.4575 2.17963 23.5558 2.15309 23.655C2.13832 23.7138 2.10635 23.7641 2.09881 23.8257L1.04217 33.3246C0.96316 34.0477 1.48364 34.7 2.20828 34.7805C2.25683 34.7862 2.30568 34.7877 2.35604 34.7877C3.01795 34.7877 3.59 34.2901 3.66509 33.6144L4.62554 24.9637C4.73862 24.9299 4.86045 24.8941 4.99102 24.8564V33.8601L3.94161 46.9138C3.87015 47.784 4.5209 48.5479 5.393 48.616C5.43431 48.6199 5.47743 48.6233 5.52055 48.6233C6.33867 48.6236 7.03074 47.9975 7.09617 47.1677Z" fill="white"/>
<path d="M5.52056 48.6235H0V55.8527H17.3686V48.6235H11.8481H5.52056Z" fill="white"/>
<path d="M30.0002 11.4599C31.84 11.4599 33.3348 9.32337 33.3348 7.48269C33.3348 5.64021 31.84 4.14722 30.0002 4.14722C28.1574 4.14722 26.6644 5.6399 26.6644 7.48269C26.6644 9.32337 28.1574 11.4599 30.0002 11.4599Z" fill="white"/>
<path d="M28.4107 37.2996L29.3608 25.5011C29.5563 25.5873 29.7722 25.6389 29.9998 25.6389C30.2275 25.6389 30.4443 25.5873 30.6388 25.5011L31.5896 37.2996C31.6542 38.1277 32.3484 38.7558 33.1653 38.7558C33.2078 38.7558 33.2497 38.7537 33.2922 38.7483C34.1643 38.6804 34.8145 37.9166 34.7445 37.046L33.6942 23.9918V14.9871C33.8248 15.0248 33.9478 15.0604 34.0615 15.0945L35.0219 23.7448C35.0973 24.4185 35.67 24.9182 36.3313 24.9182C36.3789 24.9182 36.4284 24.9163 36.4781 24.9109C37.2016 24.8301 37.723 24.1772 37.6421 23.4538L36.5882 13.9561C36.581 13.8928 36.5478 13.8421 36.533 13.7815C36.5074 13.6862 36.4872 13.5897 36.441 13.5017C36.4064 13.4338 36.3566 13.3832 36.3126 13.3247C36.2556 13.2456 36.1986 13.1684 36.1232 13.1051C36.0665 13.0539 35.9929 13.0261 35.9269 12.9866C35.8609 12.9471 35.8039 12.8919 35.7288 12.8663C35.6076 12.8214 32.9563 11.8691 30.514 11.7451L30.1799 12.4146H30.1726L31.0613 19.3343L29.9998 21.1768L28.9447 19.3343L29.8325 12.4146H29.8225L29.4884 11.7451C27.05 11.8691 24.3967 12.8211 24.2763 12.8663C24.1973 12.8937 24.1424 12.9471 24.0752 12.9884C24.0092 13.0261 23.9392 13.0563 23.8813 13.1048C23.8023 13.17 23.7474 13.2508 23.6859 13.3316C23.6446 13.3883 23.5978 13.4389 23.5638 13.5014C23.5161 13.5912 23.4956 13.6895 23.4694 13.7869C23.4546 13.8457 23.4226 13.8961 23.4133 13.9576L22.3585 23.4553C22.2794 24.1797 22.7999 24.8313 23.5246 24.9124C23.5731 24.9179 23.622 24.9197 23.6705 24.9197C24.3324 24.9197 24.9045 24.4203 24.9799 23.7463L25.9403 15.096C26.0534 15.0619 26.1752 15.0263 26.3076 14.9886V23.9933L25.2582 37.0478C25.1867 37.9181 25.8375 38.6819 26.7096 38.7516C26.7509 38.7555 26.794 38.7573 26.8371 38.7573C27.6516 38.7576 28.3458 38.1295 28.4107 37.2996Z" fill="white"/>
<path d="M26.8354 38.7576H21.3148V55.8526H38.6856V38.7576H33.1656H26.8354Z" fill="white"/>
<path d="M51.3146 17.3805C53.1547 17.3805 54.6492 15.2443 54.6492 13.4033C54.6492 11.5609 53.1547 10.0679 51.3146 10.0679C49.4712 10.0679 47.98 11.5609 47.98 13.4033C47.9803 15.2443 49.4712 17.3805 51.3146 17.3805Z" fill="white"/>
<path d="M49.7285 43.2215L50.6775 31.422C50.8741 31.5083 51.0888 31.5598 51.3164 31.5598C51.5441 31.5598 51.7591 31.5101 51.9536 31.422L52.9047 43.2215C52.9708 44.0514 53.6631 44.6756 54.4804 44.6756C54.5226 44.6756 54.5645 44.6756 54.607 44.6701C55.4794 44.602 56.1293 43.8382 56.0593 42.9676L55.009 29.914V20.9099C55.1396 20.9476 55.2626 20.9832 55.3745 21.0172L56.3349 29.6685C56.4103 30.3413 56.9815 30.8421 57.6443 30.8421C57.6937 30.8421 57.7417 30.84 57.7929 30.8346C58.5164 30.7538 59.0381 30.1012 58.9569 29.3769L57.9012 19.8801C57.894 19.8159 57.859 19.7652 57.8445 19.7046C57.8186 19.6093 57.8005 19.5128 57.7561 19.4244C57.7197 19.3566 57.6699 19.3059 57.6241 19.2483C57.5674 19.1693 57.5104 19.0921 57.435 19.0261C57.3783 18.9775 57.3047 18.9471 57.2387 18.9076C57.1744 18.8681 57.1178 18.8132 57.0406 18.7876C56.9229 18.7441 54.2678 17.7921 51.8255 17.6664L51.4916 18.3376H51.4823L52.3731 25.2574L51.3171 27.0999L50.2613 25.2574L51.15 18.3376H51.1388L50.805 17.6664C48.3663 17.7921 45.7111 18.7441 45.592 18.7876C45.5127 18.815 45.4578 18.8684 45.3918 18.9094C45.3221 18.9471 45.2561 18.9775 45.197 19.0261C45.118 19.0942 45.0649 19.1747 45.0022 19.2538C44.96 19.3098 44.9141 19.3602 44.8792 19.4226C44.8333 19.5107 44.8113 19.609 44.7854 19.7082C44.7706 19.7688 44.7377 19.8174 44.7302 19.8798L43.6726 29.3766C43.5954 30.1009 44.115 30.7535 44.8403 30.8343C44.8879 30.84 44.9359 30.8418 44.9871 30.8418C45.6499 30.8418 46.2211 30.3431 46.2965 29.6682L47.2569 21.0169C47.3709 20.9829 47.4918 20.9473 47.6242 20.9096V29.9143L46.5739 42.9679C46.5045 43.8385 47.1526 44.6023 48.0247 44.6704C48.0654 44.6759 48.1091 44.6759 48.1534 44.6759C48.9679 44.6756 49.6603 44.0514 49.7285 43.2215Z" fill="white"/>
<path d="M54.4806 44.6755H48.1528H42.6313V55.8526H60V44.6755H54.4806Z" fill="white"/>
</svg>
