<svg width="60" height="60" viewBox="0 0 60 60" fill="none" xmlns="http://www.w3.org/2000/svg">
<path d="M17.1885 48.8802L13.0328 39.0364C12.8495 38.6024 12.4242 38.3203 11.9531 38.3203C11.482 38.3203 11.0567 38.6024 10.8735 39.0364L6.71776 48.8802C6.46604 49.4764 6.74529 50.1639 7.34166 50.4156C7.93768 50.6671 8.62533 50.3879 8.87705 49.7917L9.4644 48.4003H14.4418L15.0292 49.7917C15.2181 50.2392 15.6522 50.508 16.1093 50.508C16.2611 50.508 16.4157 50.4783 16.5645 50.4155C17.1609 50.1638 17.4402 49.4764 17.1885 48.8802ZM10.4538 46.0566L11.9531 42.5052L13.4524 46.0566H10.4538Z" fill="white"/>
<path d="M58.8281 3.16406H1.17188C0.524648 3.16406 0 3.68871 0 4.33594V26.8359C0 27.4832 0.524648 28.0078 1.17188 28.0078H58.8281C59.4754 28.0078 60 27.4832 60 26.8359V4.33594C60 3.68871 59.4754 3.16406 58.8281 3.16406ZM21.5625 25.6641H2.34375V5.50781H21.5625V25.6641ZM57.6562 25.6641H23.9062V5.50781H57.6562V25.6641Z" fill="white"/>
<path d="M43.1836 14.4141H30.0149C29.3676 14.4141 28.843 14.9387 28.843 15.5859C28.843 16.2332 29.3676 16.7578 30.0149 16.7578H43.1836C43.8308 16.7578 44.3555 16.2332 44.3555 15.5859C44.3555 14.9387 43.8308 14.4141 43.1836 14.4141Z" fill="white"/>
<path d="M52.4446 14.4141H48.2121C47.5649 14.4141 47.0402 14.9387 47.0402 15.5859C47.0402 16.2332 47.5649 16.7578 48.2121 16.7578H52.4446C53.0918 16.7578 53.6164 16.2332 53.6164 15.5859C53.6164 14.9387 53.0918 14.4141 52.4446 14.4141Z" fill="white"/>
<path d="M48.9729 9.25781H30.0149C29.3676 9.25781 28.843 9.78246 28.843 10.4297C28.843 11.0769 29.3676 11.6016 30.0149 11.6016H48.9729C49.6201 11.6016 50.1447 11.0769 50.1447 10.4297C50.1447 9.78246 49.6201 9.25781 48.9729 9.25781Z" fill="white"/>
<path d="M53.3285 9.60117C53.1105 9.3832 52.8082 9.25781 52.5 9.25781C52.1918 9.25781 51.8895 9.3832 51.6715 9.60117C51.4535 9.81914 51.3281 10.1215 51.3281 10.4297C51.3281 10.7379 51.4535 11.0402 51.6715 11.2582C51.8895 11.4762 52.1918 11.6016 52.5 11.6016C52.8082 11.6016 53.1105 11.4762 53.3285 11.2582C53.5465 11.0402 53.6719 10.7379 53.6719 10.4297C53.6719 10.1215 53.5465 9.81914 53.3285 9.60117Z" fill="white"/>
<path d="M39.999 19.5703H30.0149C29.3676 19.5703 28.843 20.095 28.843 20.7422C28.843 21.3894 29.3676 21.9141 30.0149 21.9141H39.999C40.6462 21.9141 41.1709 21.3894 41.1709 20.7422C41.1709 20.095 40.6462 19.5703 39.999 19.5703Z" fill="white"/>
<path d="M44.8078 19.9137C44.5898 19.6957 44.2875 19.5703 43.9793 19.5703C43.6711 19.5703 43.3687 19.6957 43.1508 19.9137C42.9328 20.1316 42.8074 20.434 42.8074 20.7422C42.8074 21.0504 42.9328 21.3527 43.1508 21.5707C43.3687 21.7887 43.6711 21.9141 43.9793 21.9141C44.2875 21.9141 44.5898 21.7887 44.8078 21.5707C45.0258 21.3527 45.1512 21.0504 45.1512 20.7422C45.1512 20.434 45.0258 20.1316 44.8078 19.9137Z" fill="white"/>
<path d="M49.0406 19.9137C48.8226 19.6957 48.5203 19.5703 48.2121 19.5703C47.9039 19.5703 47.6015 19.6957 47.3836 19.9137C47.1656 20.1316 47.0402 20.434 47.0402 20.7422C47.0402 21.0504 47.1656 21.3527 47.3836 21.5707C47.6015 21.7887 47.9039 21.9141 48.2121 21.9141C48.5203 21.9141 48.8226 21.7887 49.0406 21.5707C49.2586 21.3527 49.384 21.0504 49.384 20.7422C49.384 20.434 49.2586 20.1316 49.0406 19.9137Z" fill="white"/>
<path d="M53.2734 19.9137C53.0554 19.6957 52.7531 19.5703 52.4449 19.5703C52.1355 19.5703 51.8343 19.6957 51.6164 19.9137C51.3972 20.1316 51.273 20.434 51.273 20.7422C51.273 21.0504 51.3972 21.3527 51.6164 21.5707C51.8343 21.7887 52.1355 21.9141 52.4449 21.9141C52.7531 21.9141 53.0554 21.7887 53.2734 21.5707C53.4914 21.3527 53.6168 21.0504 53.6168 20.7422C53.6168 20.434 53.4914 20.1316 53.2734 19.9137Z" fill="white"/>
<path d="M58.8281 31.9922H1.17188C0.524648 31.9922 0 32.5168 0 33.1641V55.6641C0 56.3113 0.524648 56.8359 1.17188 56.8359H58.8281C59.4754 56.8359 60 56.3113 60 55.6641V33.1641C60 32.5168 59.4754 31.9922 58.8281 31.9922ZM21.5625 54.4922H2.34375V34.3359H21.5625V54.4922ZM57.6562 54.4922H23.9062V34.3359H57.6562V54.4922Z" fill="white"/>
<path d="M43.1836 43.2422H30.0149C29.3677 43.2422 28.843 43.7668 28.843 44.4141C28.843 45.0613 29.3677 45.5859 30.0149 45.5859H43.1836C43.8308 45.5859 44.3555 45.0613 44.3555 44.4141C44.3555 43.7668 43.8308 43.2422 43.1836 43.2422Z" fill="white"/>
<path d="M52.4446 43.2422H48.2121C47.5649 43.2422 47.0402 43.7668 47.0402 44.4141C47.0402 45.0613 47.5649 45.5859 48.2121 45.5859H52.4446C53.0918 45.5859 53.6164 45.0613 53.6164 44.4141C53.6164 43.7668 53.0918 43.2422 52.4446 43.2422Z" fill="white"/>
<path d="M48.9729 38.0859H30.0149C29.3676 38.0859 28.843 38.6106 28.843 39.2578C28.843 39.905 29.3676 40.4297 30.0149 40.4297H48.9729C49.6201 40.4297 50.1447 39.905 50.1447 39.2578C50.1447 38.6106 49.6201 38.0859 48.9729 38.0859Z" fill="white"/>
<path d="M53.3285 38.4293C53.1105 38.2113 52.8082 38.0859 52.5 38.0859C52.1918 38.0859 51.8895 38.2113 51.6715 38.4293C51.4535 38.6473 51.3281 38.9496 51.3281 39.2578C51.3281 39.566 51.4535 39.8684 51.6715 40.0863C51.8895 40.3043 52.1918 40.4297 52.5 40.4297C52.8082 40.4297 53.1105 40.3043 53.3285 40.0863C53.5465 39.8684 53.6719 39.566 53.6719 39.2578C53.6719 38.9496 53.5465 38.6473 53.3285 38.4293Z" fill="white"/>
<path d="M52.4445 48.3984H30.0149C29.3676 48.3984 28.843 48.9231 28.843 49.5703C28.843 50.2175 29.3676 50.7422 30.0149 50.7422H52.4445C53.0918 50.7422 53.6164 50.2175 53.6164 49.5703C53.6164 48.9231 53.0918 48.3984 52.4445 48.3984Z" fill="white"/>
<path d="M17.6871 19.0955L16.575 18.2766C16.9173 17.5686 17.1094 16.775 17.1094 15.9375V14.0625C17.1094 11.0902 14.6911 8.67188 11.7188 8.67188C8.74641 8.67188 6.32812 11.0902 6.32812 14.0625V15.9375C6.32812 18.9098 8.74641 21.3281 11.7188 21.3281C13.0075 21.3281 14.1916 20.8731 15.12 20.1158L16.2973 20.9827C16.5066 21.1368 16.75 21.2109 16.9913 21.2109C17.351 21.2109 17.7061 21.0458 17.9358 20.7339C18.3196 20.2127 18.2082 19.4791 17.6871 19.0955ZM14.7656 15.9375C14.7656 16.2527 14.7175 16.5568 14.6283 16.843L13.3902 15.9314C12.8688 15.5476 12.1354 15.6591 11.7517 16.1802C11.3679 16.7013 11.4792 17.435 12.0005 17.8187L13.1189 18.6423C12.6994 18.8603 12.2234 18.9844 11.7188 18.9844C10.0388 18.9844 8.67188 17.6175 8.67188 15.9375V14.0625C8.67188 12.3825 10.0388 11.0156 11.7188 11.0156C13.3988 11.0156 14.7656 12.3825 14.7656 14.0625V15.9375Z" fill="white"/>
</svg>
