<svg width="22" height="22" viewBox="0 0 22 22" fill="none" xmlns="http://www.w3.org/2000/svg">
<g clip-path="url(#clip0)">
<path d="M11.119 5.25213C14.8259 5.2885 17.1482 5.05786 17.4618 9.16663H21.9822C21.9822 2.80151 16.431 1.94355 11.0013 1.94355C5.57114 1.94355 0.0203247 2.80151 0.0203247 9.16663H4.50565C4.85268 4.97955 7.4428 5.21619 11.119 5.25213Z" fill="#FBF8FD"/>
<path d="M2.26406 11.2129C3.36506 11.2129 4.28121 11.2788 4.4849 10.1957C4.51228 10.0485 4.52812 9.88166 4.52812 9.68867H4.47591H0C0 11.2997 1.01371 11.2129 2.26406 11.2129Z" fill="#FBF8FD"/>
<path d="M17.4929 9.68867H17.4505C17.4505 9.88294 17.4672 10.0503 17.4984 10.1957C17.7132 11.1945 18.6281 11.1324 19.7253 11.1324C20.9816 11.1324 22 11.215 22 9.68867H17.4929Z" fill="#FBF8FD"/>
<path d="M15.2844 8.59152V7.95137C15.2844 7.6651 14.9545 7.64713 14.5471 7.64713H13.8817C13.4748 7.64713 13.1449 7.6651 13.1449 7.95137V8.50294V8.93085H8.43789V8.50294V7.95137C8.43789 7.6651 8.10797 7.64713 7.70103 7.64713H7.03521C6.62827 7.64713 6.29835 7.6651 6.29835 7.95137V8.59152V9.15036C5.22602 10.2646 1.71718 15.008 1.58966 15.5822L1.59137 19.4141C1.59137 19.768 1.87935 20.056 2.23323 20.056H19.3495C19.7034 20.056 19.9914 19.768 19.9914 19.4141V15.563C19.8652 15.0054 16.3572 10.2642 15.2844 9.14994V8.59152ZM8.20596 16.0979C7.8615 16.0979 7.58208 15.8189 7.58208 15.474C7.58208 15.1291 7.8615 14.8501 8.20596 14.8501C8.55043 14.8501 8.82985 15.1291 8.82985 15.474C8.82985 15.8189 8.55043 16.0979 8.20596 16.0979ZM8.20596 13.9583C7.8615 13.9583 7.58208 13.6793 7.58208 13.3344C7.58208 12.9895 7.8615 12.7106 8.20596 12.7106C8.55043 12.7106 8.82985 12.9895 8.82985 13.3344C8.82985 13.6793 8.55043 13.9583 8.20596 13.9583ZM8.20596 11.8192C7.8615 11.8192 7.58208 11.5402 7.58208 11.1953C7.58208 10.8509 7.8615 10.5714 8.20596 10.5714C8.55043 10.5714 8.82985 10.8509 8.82985 11.1953C8.82985 11.5402 8.55043 11.8192 8.20596 11.8192ZM10.7734 16.0979C10.4289 16.0979 10.1495 15.8189 10.1495 15.474C10.1495 15.1291 10.4289 14.8501 10.7734 14.8501C11.1183 14.8501 11.3973 15.1291 11.3973 15.474C11.3973 15.8189 11.1183 16.0979 10.7734 16.0979ZM10.7734 13.9583C10.4289 13.9583 10.1495 13.6793 10.1495 13.3344C10.1495 12.9895 10.4289 12.7106 10.7734 12.7106C11.1183 12.7106 11.3973 12.9895 11.3973 13.3344C11.3973 13.6793 11.1183 13.9583 10.7734 13.9583ZM10.7734 11.8192C10.4289 11.8192 10.1495 11.5402 10.1495 11.1953C10.1495 10.8509 10.4289 10.5714 10.7734 10.5714C11.1183 10.5714 11.3973 10.8509 11.3973 11.1953C11.3973 11.5402 11.1183 11.8192 10.7734 11.8192ZM13.3409 16.0979C12.996 16.0979 12.717 15.8189 12.717 15.474C12.717 15.1291 12.996 14.8501 13.3409 14.8501C13.6857 14.8501 13.9647 15.1291 13.9647 15.474C13.9647 15.8189 13.6857 16.0979 13.3409 16.0979ZM13.3409 13.9583C12.996 13.9583 12.717 13.6793 12.717 13.3344C12.717 12.9895 12.996 12.7106 13.3409 12.7106C13.6857 12.7106 13.9647 12.9895 13.9647 13.3344C13.9647 13.6793 13.6857 13.9583 13.3409 13.9583ZM13.3409 11.8192C12.996 11.8192 12.717 11.5402 12.717 11.1953C12.717 10.8509 12.996 10.5714 13.3409 10.5714C13.6857 10.5714 13.9647 10.8509 13.9647 11.1953C13.9647 11.5402 13.6857 11.8192 13.3409 11.8192Z" fill="#FBF8FD"/>
</g>
<defs>
<clipPath id="clip0">
<rect width="22" height="22" fill="white"/>
</clipPath>
</defs>
</svg>
