<svg width="30" height="30" viewBox="0 0 30 30" fill="none" xmlns="http://www.w3.org/2000/svg">
<g clip-path="url(#clip0)">
<path d="M15 13C16.93 13 18.5 11.4295 18.5 9.5C18.5 7.5705 16.93 6 15 6C13.07 6 11.5 7.5705 11.5 9.5C11.5 11.4295 13.07 13 15 13ZM15 7C16.3785 7 17.5 8.1215 17.5 9.5C17.5 10.8785 16.3785 12 15 12C13.6215 12 12.5 10.8785 12.5 9.5C12.5 8.1215 13.6215 7 15 7Z" fill="#E0E0E0"/>
<path d="M14.9113 27.3785L22.5818 16.3C25.4588 12.4645 25.0428 6.16 21.6913 2.809C19.8803 0.9975 17.4723 0 14.9113 0C12.3503 0 9.94227 0.9975 8.13127 2.8085C4.77977 6.1595 4.36377 12.464 7.22927 16.2845L14.9113 27.3785ZM8.83827 3.5155C10.4608 1.8935 12.6173 1 14.9113 1C17.2053 1 19.3618 1.8935 20.9843 3.5155C24.0093 6.54 24.3818 12.234 21.7708 15.715L14.9113 25.6215L8.04077 15.7C5.44077 12.234 5.81377 6.54 8.83827 3.5155Z" fill="#E0E0E0"/>
<path d="M21.0585 21.5035C20.7835 21.47 20.5355 21.667 20.5035 21.9415C20.4715 22.216 20.6675 22.4645 20.9415 22.4965C26.1995 23.1155 29 24.7835 29 25.75C29 27.107 23.674 29 15 29C6.326 29 1 27.107 1 25.75C1 24.7835 3.8005 23.1155 9.0585 22.4965C9.3325 22.4645 9.5285 22.2155 9.4965 21.9415C9.464 21.667 9.216 21.469 8.9415 21.5035C3.677 22.1235 0 23.8695 0 25.75C0 27.862 5.1525 30 15 30C24.8475 30 30 27.862 30 25.75C30 23.8695 26.323 22.1235 21.0585 21.5035Z" fill="#E0E0E0"/>
</g>
<defs>
<clipPath id="clip0">
<rect width="30" height="30" fill="white"/>
</clipPath>
</defs>
</svg>
