<svg width="100" height="100" viewBox="0 0 100 100" fill="none" xmlns="http://www.w3.org/2000/svg">
<path d="M98.3333 29.9999H93.3333V27.4999C93.3333 24.2783 90.7217 21.6666 87.5 21.6666C86.6333 21.6714 85.779 21.8714 85 22.2516V19.9999C85 16.318 82.0152 13.3333 78.3333 13.3333C74.6515 13.3333 71.6667 16.318 71.6667 19.9999V29.9999H65V28.3333C65.0121 25.5839 62.7931 23.3451 60.0437 23.3328C58.7948 23.3272 57.5894 23.7914 56.6667 24.6333C54.7825 22.8999 51.8842 22.8999 50 24.6333C48.1158 22.8999 45.2175 22.8999 43.3333 24.6333C41.3021 22.7803 38.1533 22.9249 36.3004 24.9562C35.4588 25.8789 34.9946 27.0843 35 28.3333V29.9999H28.3333V19.9999C28.3333 16.318 25.3485 13.3333 21.6667 13.3333C17.9848 13.3333 15 16.318 15 19.9999V22.2516C14.221 21.8714 13.3667 21.6714 12.5 21.6666C9.27833 21.6666 6.66667 24.2783 6.66667 27.4999V29.9999H1.66667C0.74625 29.9999 0 30.7462 0 31.6666V41.6666C0 42.587 0.74625 43.3332 1.66667 43.3332H6.66667V45.8332C6.66667 49.0549 9.27833 51.6666 12.5 51.6666C13.3667 51.6618 14.221 51.4618 15 51.0816V53.3332C15 57.0151 17.9848 59.9999 21.6667 59.9999C25.3485 59.9999 28.3333 57.0151 28.3333 53.3332V43.3332H31.6667V48.9049C31.6612 51.116 32.5404 53.2374 34.1083 54.7966L38.3333 59.0233V86.6666H41.6667V58.3332C41.6667 57.8912 41.4908 57.4674 41.1783 57.1549L36.465 52.4399C35.5298 51.5007 35.0033 50.2303 35 48.9049V38.3333H44.7617C45.3927 38.3247 45.9906 38.6145 46.375 39.1149C46.3867 39.1316 46.4 39.1482 46.4117 39.1666C46.4831 39.2803 46.5392 39.403 46.5783 39.5316C46.6098 39.6343 46.631 39.7397 46.6417 39.8466C46.6533 39.9512 46.6533 40.057 46.6417 40.1616C46.6379 40.2176 46.6306 40.2733 46.62 40.3283C46.5823 40.5039 46.5175 40.6724 46.4283 40.8282C46.1377 41.3443 45.5923 41.6643 45 41.6666H40C39.0796 41.6666 38.3333 42.4128 38.3333 43.3332V46.6666C38.3331 47.3843 38.7925 48.0214 39.4733 48.2482L43.14 49.4732C46.1167 50.4616 48.3333 54.9666 48.3333 58.3332H51.6667C51.6667 53.7482 48.8133 47.8466 44.2017 46.3099L41.6667 45.4649V44.9999H45C46.4027 44.9864 47.7344 44.3812 48.6667 43.3332H63.3333V49.4449C63.3312 50.5264 62.9806 51.5785 62.3333 52.4449L58.6667 57.3333C58.4502 57.6218 58.3333 57.9726 58.3333 58.3332V86.6666H61.6667V58.8882L65 54.4449C66.0788 53.001 66.6633 51.2474 66.6667 49.4449V43.3332H71.6667V53.3332C71.6667 57.0151 74.6515 59.9999 78.3333 59.9999C82.0152 59.9999 85 57.0151 85 53.3332V51.0816C85.779 51.4618 86.6333 51.6618 87.5 51.6666C90.7217 51.6666 93.3333 49.0549 93.3333 45.8332V43.3332H98.3333C99.2537 43.3332 100 42.587 100 41.6666V31.6666C100 30.7462 99.2537 29.9999 98.3333 29.9999ZM6.66667 39.9999H3.33333V33.3333H6.66667V39.9999ZM15 45.8332C15 47.2139 13.8806 48.3332 12.5 48.3332C11.1194 48.3332 10 47.2139 10 45.8332V27.4999C10 26.1193 11.1194 24.9999 12.5 24.9999C13.8806 24.9999 15 26.1193 15 27.4999V45.8332ZM25 53.3332C25 55.1743 23.5077 56.6666 21.6667 56.6666C19.8256 56.6666 18.3333 55.1743 18.3333 53.3332V19.9999C18.3333 18.1589 19.8256 16.6666 21.6667 16.6666C23.5077 16.6666 25 18.1589 25 19.9999V53.3332ZM33.3333 34.9999C32.4129 34.9999 31.6667 35.7462 31.6667 36.6666V39.9999H28.3333V33.3333H35C35.0019 33.6483 35.0335 33.9626 35.095 34.2716C35.1133 34.3699 35.145 34.4599 35.1683 34.5549C35.2067 34.7032 35.235 34.8566 35.285 34.9999H33.3333ZM41.6667 33.3333C41.6667 34.2537 40.9204 34.9999 40 34.9999C39.0796 34.9999 38.3333 34.2537 38.3333 33.3333V28.3333C38.3333 27.4128 39.0796 26.6666 40 26.6666C40.9204 26.6666 41.6667 27.4128 41.6667 28.3333V33.3333ZM48.3333 33.3333C48.3333 34.2537 47.5871 34.9999 46.6667 34.9999C45.7463 34.9999 45 34.2537 45 33.3333V28.3333C45 27.4128 45.7463 26.6666 46.6667 26.6666C47.5871 26.6666 48.3333 27.4128 48.3333 28.3333V33.3333ZM58.3333 28.3333C58.3333 27.4128 59.0796 26.6666 60 26.6666C60.9204 26.6666 61.6667 27.4128 61.6667 28.3333V33.3333C61.6667 34.2537 60.9204 34.9999 60 34.9999C59.0796 34.9999 58.3333 34.2537 58.3333 33.3333V28.3333ZM51.6667 28.3333C51.6667 27.4128 52.4129 26.6666 53.3333 26.6666C54.2537 26.6666 55 27.4128 55 28.3333V33.3333C55 34.2537 54.2537 34.9999 53.3333 34.9999C52.4129 34.9999 51.6667 34.2537 51.6667 33.3333V28.3333ZM71.6667 39.9999H50C50 39.9832 50 39.9699 50 39.9532C49.9985 39.6218 49.964 39.2912 49.8967 38.9666C49.8867 38.9216 49.865 38.8799 49.855 38.8332C49.825 38.7116 49.7817 38.5982 49.7433 38.4799C49.6729 38.2664 49.5877 38.0583 49.4883 37.8566C49.44 37.7566 49.4167 37.6432 49.3617 37.5466C49.3806 37.5337 49.399 37.5197 49.4167 37.5049C49.4933 37.4549 49.56 37.3949 49.6333 37.3382C49.7583 37.2449 49.89 37.1583 50.0067 37.0532C50.1033 37.1399 50.215 37.2083 50.3183 37.2866C50.4217 37.3649 50.5233 37.4532 50.635 37.5232C50.7923 37.6203 50.9548 37.7089 51.1217 37.7882C51.235 37.8433 51.3417 37.9083 51.455 37.9549C51.6496 38.0295 51.849 38.0914 52.0517 38.1399C52.1567 38.1683 52.255 38.2083 52.3633 38.2299C53.0044 38.361 53.6654 38.361 54.3067 38.2299C54.415 38.2083 54.5133 38.1683 54.6183 38.1399C54.821 38.0914 55.0204 38.0295 55.215 37.9549C55.3333 37.9066 55.44 37.8416 55.5483 37.7882C55.7158 37.7089 55.8787 37.6203 56.0367 37.5232C56.1467 37.4499 56.2467 37.3666 56.3517 37.2866C56.4567 37.2066 56.5667 37.1399 56.6633 37.0532C56.76 37.1399 56.8717 37.2083 56.975 37.2866C57.0783 37.3649 57.18 37.4532 57.2917 37.5232C57.449 37.6203 57.6115 37.7089 57.7783 37.7882C57.8917 37.8433 57.9983 37.9083 58.1117 37.9549C58.3062 38.0295 58.5056 38.0914 58.7083 38.1399C58.8133 38.1683 58.9117 38.2083 59.02 38.2299C61.719 38.7785 64.3515 37.0353 64.9 34.3366C64.9671 34.0064 65.0006 33.6703 65 33.3333H71.6667V39.9999ZM81.6667 53.3332C81.6667 55.1743 80.1744 56.6666 78.3333 56.6666C76.4923 56.6666 75 55.1743 75 53.3332V19.9999C75 18.1589 76.4923 16.6666 78.3333 16.6666C80.1744 16.6666 81.6667 18.1589 81.6667 19.9999V53.3332ZM90 45.8332C90 47.2139 88.8806 48.3332 87.5 48.3332C86.1194 48.3332 85 47.2139 85 45.8332V27.4999C85 26.1193 86.1194 24.9999 87.5 24.9999C88.8806 24.9999 90 26.1193 90 27.4999V45.8332ZM96.6667 39.9999H93.3333V33.3333H96.6667V39.9999Z" fill="#53880B"/>
</svg>
