<svg width="40" height="40" viewBox="0 0 40 40" fill="none" xmlns="http://www.w3.org/2000/svg">
<g clip-path="url(#clip0)">
<path d="M34.4434 5.04753L20.2769 0.0475753C20.0978 -0.0159398 19.9025 -0.0159398 19.7235 0.0475753L5.557 5.04753C5.22333 5.1655 5.00037 5.48049 5.00037 5.83369V15.8336C5.00037 28.7746 6.91933 33.5044 19.6243 39.9106C19.7431 39.9699 19.8717 40.0001 20.0002 40.0001C20.1288 40.0001 20.2574 39.97 20.3762 39.9106C33.0812 33.5044 35.0002 28.7746 35.0002 15.8336V5.83369C35 5.48049 34.7769 5.16558 34.4434 5.04753ZM33.3333 15.8336C33.3333 28.2285 31.7529 32.2405 20.0001 38.2325C8.24729 32.2405 6.66691 28.2285 6.66691 15.8336V6.42369L20.0001 1.71748L33.3334 6.42369V15.8336H33.3333Z" fill="#8DC63F"/>
<path d="M11.4227 16.9111C11.0972 16.5855 10.5699 16.5855 10.2444 16.9111C9.91886 17.2366 9.91886 17.7639 10.2444 18.0894L16.911 24.756C17.0737 24.9187 17.287 25.0001 17.5002 25.0001C17.7134 25.0001 17.9266 24.9187 18.0894 24.756L29.7559 13.0895C30.0815 12.7639 30.0815 12.2366 29.7559 11.9111C29.4304 11.5856 28.903 11.5856 28.5776 11.9111L17.5002 22.9884L11.4227 16.9111Z" fill="#8DC63F"/>
</g>
<defs>
<clipPath id="clip0">
<rect width="40" height="40" fill="white"/>
</clipPath>
</defs>
</svg>
