<svg width="100" height="100" viewBox="0 0 100 100" fill="none" xmlns="http://www.w3.org/2000/svg">
<path d="M67.5103 47.0308C67.5033 47.0308 67.4966 47.0308 67.4897 47.0308H59.1152V38.6357C59.1265 36.9426 57.7631 35.5606 56.0699 35.5493C56.063 35.5493 56.0561 35.5493 56.0494 35.5493H43.9506C42.2574 35.5493 40.8848 36.922 40.8848 38.6152V47.0102H32.5103C30.8171 46.9989 29.4352 48.3621 29.4239 50.0552C29.4239 50.0691 29.4239 50.0828 29.4239 50.0966V62.1748C29.4239 63.868 30.7965 65.2407 32.4897 65.2407H40.8848V73.6152C40.8734 75.3083 42.2369 76.6903 43.93 76.7016C43.937 76.7016 43.9439 76.7016 43.9506 76.7016H56.0288C57.722 76.7016 59.0946 75.3289 59.0946 73.6357V65.2407H67.4897C69.1829 65.252 70.5648 63.8886 70.5761 62.1954C70.5761 62.1885 70.5761 62.1815 70.5761 62.1748V50.0966C70.5761 48.4035 69.2037 47.0308 67.5103 47.0308ZM66.4609 61.1255H57.0576C55.9213 61.1255 55 62.0467 55 63.1831V72.5864H45V63.1831C45 62.0467 44.0787 61.1255 42.9424 61.1255H33.5391V51.146H42.9424C44.0787 51.146 45 50.2247 45 49.0884V39.6645H54.9794V49.0678C54.9794 50.2042 55.9007 51.1254 57.037 51.1254H66.4609V61.1255Z" fill="#53880B"/>
<path d="M85.8025 20.1585H68.8477V12.9157C68.9545 9.61068 66.3616 6.84473 63.0566 6.73799C62.8881 6.73259 62.7197 6.73413 62.5514 6.74288H37.4486C34.1461 6.57081 31.3295 9.10836 31.1572 12.4106C31.1484 12.5788 31.1466 12.7472 31.1523 12.9157V20.1174H14.1975C7.65432 20.1174 0 23.8416 0 34.3149V79.068C0 89.5412 7.65432 93.2655 14.1975 93.2655H85.8025C92.3457 93.2655 100 89.5412 100 79.068V34.356C100 23.8828 92.3663 20.1585 85.8025 20.1585ZM35.2675 12.9157C35.2675 12.319 35.2675 10.7141 37.4691 10.7141H62.5514C64.7531 10.7141 64.7531 12.2984 64.7531 12.9157V20.1174H35.2675V12.9157ZM95.8848 79.068C95.8848 88.1626 88.8477 89.1503 85.8025 89.1503H14.1975C11.1728 89.1503 4.11523 88.1626 4.11523 79.068V34.356C4.11523 25.2614 11.1523 24.2737 14.1975 24.2737H85.8025C88.8272 24.2737 95.8848 25.2614 95.8848 34.356V79.068Z" fill="#53880B"/>
</svg>
