<svg width="50" height="50" viewBox="0 0 50 50" fill="none" xmlns="http://www.w3.org/2000/svg">
<path d="M45 0H5C2.25 0 0 2.25 0 5V45C0 47.75 2.25 50 5 50H45C47.75 50 50 47.75 50 45V5C50 2.25 47.75 0 45 0ZM39.25 18.25C39 29.75 31.75 37.75 20.75 38.25C16.25 38.5 13 37 10 35.25C13.25 35.7501 17.5 34.5001 19.75 32.5C16.5 32.25 14.5 30.5 13.5 27.75C14.5 28 15.5 27.75 16.25 27.75C13.25 26.75 11.25 25 11 21C11.75 21.5 12.75 21.75 13.75 21.75C11.5 20.5 10 15.75 11.75 12.75C15 16.25 19 19.25 25.5 19.75C23.75 12.75 33.2501 9 37.0001 13.75C38.7501 13.5 40.0001 12.75 41.2501 12.25C40.7501 14 39.7501 15 38.5001 16C39.7501 15.75 41.0001 15.5 42.0001 15C41.75 16.25 40.5 17.25 39.25 18.25Z" fill="#BDBDBD"/>
</svg>
