<svg width="50" height="50" viewBox="0 0 50 50" fill="none" xmlns="http://www.w3.org/2000/svg">
<path d="M41.667 12.4997V4.1667H37.5006V12.4995H29.1675V16.6665H37.5006V24.9998H41.667V16.6665H49.9996V40.6247C49.9996 43.2068 49.0826 45.4154 47.2488 47.2493C45.4158 49.0831 43.2074 50 40.6251 50H25.391C26.2369 48.4159 26.6599 46.7124 26.6599 44.8895C26.6599 43.4568 26.421 42.1277 25.9443 40.9018C25.4668 39.6762 24.8645 38.6668 24.1375 37.8748C23.4104 37.0835 22.6293 36.3121 21.7939 35.5637C20.9583 34.8154 20.1774 34.1695 19.4501 33.6264C18.7233 33.0845 18.1209 32.4927 17.6437 31.853C17.1663 31.2119 16.9278 30.5666 16.9278 29.9158C16.9278 29.1343 17.1775 28.3965 17.6766 27.7019C18.176 27.0078 18.7837 26.3406 19.4993 25.7003C20.2152 25.0596 20.9262 24.36 21.6317 23.6001C22.337 22.841 22.939 21.8316 23.438 20.5731C23.9374 19.3146 24.1867 17.8929 24.1867 16.3085C24.1867 14.7243 23.8992 13.1457 23.3243 11.5723C22.7495 9.99884 21.9298 8.71297 20.8666 7.71453C20.7364 7.58478 20.5845 7.46541 20.4109 7.35652C20.2375 7.24821 20.1014 7.16646 20.0041 7.11241C19.9061 7.05792 19.7978 6.95496 19.6786 6.8032C19.559 6.65145 19.4453 6.46686 19.337 6.24989H23.7315L28.1263 4.16659H13.9C10.9052 4.16659 8.25214 4.58412 5.94116 5.42008C3.63028 6.25559 1.64972 7.70427 0.000366211 9.76556C0.000366211 7.03101 0.879199 4.72014 2.63687 2.83192C4.39499 0.943594 6.64064 0 9.37531 0H40.6252C43.2074 0 45.4159 0.916914 47.2489 2.7504C49.0828 4.58423 49.9997 6.7926 49.9997 9.37494V12.4997H41.667ZM6.47851 23.7791C7.17241 24.6803 8.01921 25.4125 9.0173 25.9767C10.0154 26.5408 11.0676 26.8225 12.1749 26.8225C14.28 26.8225 15.8043 26.1655 16.7485 24.8528C17.6925 23.5404 18.1644 21.7987 18.1644 19.6285C18.1644 18.3044 17.9907 16.9159 17.6442 15.4624C17.2968 14.0085 16.7868 12.5981 16.114 11.2309C15.4413 9.86373 14.5298 8.73486 13.3797 7.84508C12.2298 6.9553 10.9385 6.51018 9.50608 6.51018C7.48789 6.51018 5.91972 7.25893 4.80202 8.75629C3.68456 10.2538 3.12565 12.0439 3.12565 14.1276C3.12565 15.1471 3.25027 16.221 3.50008 17.3499C3.74977 18.4784 4.13492 19.6073 4.65597 20.7357C5.17634 21.8641 5.78404 22.8786 6.47851 23.7791ZM10.4821 31.4127C10.4821 30.8703 10.7097 29.9367 11.1657 28.6127C10.341 28.7211 9.58156 28.7759 8.88709 28.7759C5.19811 28.7759 2.23587 27.4952 0.000594242 24.9347V39.0297C3.27706 37.3364 7.45471 36.4148 12.533 36.2626C11.1656 34.4826 10.4821 32.8665 10.4821 31.4127ZM21.6136 45.1977C21.505 44.8402 21.3151 44.4661 21.044 44.0747C20.7727 43.6846 20.545 43.3537 20.3604 43.0821C20.176 42.8113 19.8885 42.4913 19.4977 42.1223C19.1073 41.7536 18.8089 41.4769 18.6026 41.2924C18.3966 41.1078 18.0493 40.8315 17.5611 40.4625C17.0733 40.0934 16.7364 39.8436 16.5523 39.7142C16.3681 39.5837 16.0101 39.3342 15.4783 38.9651C14.9466 38.596 14.6157 38.3681 14.4855 38.2815C14.1167 38.2386 13.585 38.2168 12.8904 38.2168C11.6971 38.2168 10.5359 38.2921 9.40769 38.4442C8.27893 38.596 7.11791 38.8562 5.92439 39.2254C4.73099 39.5945 3.6459 40.131 2.66936 40.8364C1.69293 41.542 0.944188 42.3824 0.423022 43.3594C1.00929 45.3337 2.13246 46.9342 3.79242 48.1601C5.45294 49.3868 7.31356 49.9999 9.37531 49.9999H21.7451C21.9621 49.2839 22.0704 48.5129 22.0704 47.6888C22.0704 47.2331 22.0216 46.7936 21.923 46.3704C21.8255 45.9467 21.722 45.5559 21.6136 45.1977Z" fill="#8DC63F"/>
</svg>
