<svg width="30" height="36" viewBox="0 0 30 36" fill="none" xmlns="http://www.w3.org/2000/svg">
<path d="M30 31.5257C30 33.6766 28.5075 35.4204 26.6667 35.4204H3.33333C1.49253 35.4204 0 33.6765 0 31.5257V4.2623C0 2.11147 1.49253 0.367553 3.33333 0.367553H26.6667C28.5075 0.367553 30 2.11147 30 4.2623V31.5257Z" fill="#0D3153"/>
<path d="M15.2016 11.4571H15.1508L11.6616 19.8795H15.2016V11.4571ZM8.97505 23.8649C7.7092 23.8649 7.16589 22.8697 7.16589 22.084C7.16589 21.4199 7.37258 21.0567 7.52837 20.7559L13.3159 8.498C13.8842 7.29065 14.6076 6.74731 15.9509 6.74731C17.4501 6.74731 18.9226 7.86514 18.9226 10.6119V19.8795H19.3625C20.37 19.8795 21.1709 20.6653 21.1709 21.8727C21.1709 23.081 20.37 23.8649 19.3625 23.8649H18.9226V26.4315C18.9226 28.0313 18.3801 28.7859 17.0626 28.7859C15.7442 28.7859 15.2017 28.0313 15.2017 26.4315V23.8649H8.97505Z" fill="white"/>
</svg>
