<svg width="25" height="25" viewBox="0 0 25 25" fill="none" xmlns="http://www.w3.org/2000/svg">
<path d="M12.4996 25C5.60707 25 0 19.3921 0 12.4996C0 5.60707 5.60707 0 12.4996 0C19.3921 0 24.9992 5.60707 24.9992 12.4996C25 19.3921 19.3921 25 12.4996 25ZM12.4996 1.42793C6.39428 1.42793 1.42793 6.39509 1.42793 12.4996C1.42793 18.6041 6.39428 23.5705 12.4996 23.5705C18.6041 23.5705 23.5705 18.6041 23.5705 12.4996C23.5705 6.39509 18.6041 1.42793 12.4996 1.42793Z" fill="#E0E0E0"/>
<path d="M17.4281 13.2134H7.57109C7.17668 13.2134 6.85632 12.8947 6.85632 12.4994C6.85632 12.105 7.17588 11.7847 7.57109 11.7847H17.4281C17.8225 11.7847 18.1421 12.105 18.1421 12.4994C18.1421 12.8947 17.8234 13.2134 17.4281 13.2134Z" fill="#E0E0E0"/>
<path d="M12.4996 18.1422C12.1051 18.1422 11.7848 17.8227 11.7848 17.4283V7.57121C11.7848 7.1768 12.1051 6.85645 12.4996 6.85645C12.894 6.85645 13.2135 7.1768 13.2135 7.57121V17.4283C13.2135 17.8235 12.8948 18.1422 12.4996 18.1422Z" fill="#E0E0E0"/>
</svg>
