<svg width="30" height="36" viewBox="0 0 30 36" fill="none" xmlns="http://www.w3.org/2000/svg">
<path d="M30 31.9465C30 34.0974 28.5075 35.8412 26.6667 35.8412H3.33333C1.49253 35.8412 0 34.0973 0 31.9465V4.68314C0 2.5323 1.49253 0.78839 3.33333 0.78839H26.6667C28.5075 0.78839 30 2.5323 30 4.68314V31.9465Z" fill="#0D3153"/>
<path d="M13.7183 11.6694H12.1942C10.9542 11.6694 10.4366 10.6129 10.4366 9.58666C10.4366 8.52925 11.0825 7.50299 12.1942 7.50299H15.8625C16.9742 7.50299 17.5942 8.43871 17.5942 9.64605V26.8249C17.5942 28.3351 16.7675 29.1793 15.6558 29.1793C14.545 29.1793 13.7183 28.335 13.7183 26.8249V11.6694Z" fill="white"/>
</svg>
