<svg width="25" height="26" viewBox="0 0 25 26" fill="none" xmlns="http://www.w3.org/2000/svg">
<path d="M16.733 12.9108L24.123 5.5213C25.2923 4.35198 25.2923 2.4564 24.123 1.28767C22.9549 0.118952 21.0582 0.118952 19.89 1.28767L12.5 8.67841L5.10996 1.28767C3.94185 0.118952 2.04509 0.118952 0.87698 1.28767C-0.292327 2.457 -0.292327 4.35258 0.87698 5.5213L8.26643 12.9108L0.87698 20.3004C-0.292327 21.4697 -0.292327 23.3653 0.87698 24.534C1.46074 25.119 2.2277 25.4105 2.99347 25.4105C3.75864 25.4105 4.5262 25.119 5.10996 24.534L12.5 17.1445L19.89 24.5346C20.4744 25.1196 21.2408 25.4111 22.0065 25.4111C22.7723 25.4111 23.5393 25.1196 24.123 24.5346C25.2923 23.3653 25.2923 21.4697 24.123 20.301L16.733 12.9108Z" fill="#8DC63F"/>
</svg>
