<svg width="60" height="60" viewBox="0 0 60 60" fill="none" xmlns="http://www.w3.org/2000/svg">
<path d="M51 42V9C51 8.73389 50.895 8.47998 50.707 8.29297L42.707 0.292969C42.52 0.10498 42.2661 0 42 0H1C0.446777 0 0 0.446777 0 1V54C0 54.5532 0.446777 55 1 55H42.9502C44.4258 57.958 47.4751 60 51 60C55.9629 60 60 55.9629 60 51C60 46.0371 55.9629 42 51 42ZM43 3.41406L47.5859 8H43V3.41406ZM2 53V2H41V9C41 9.55322 41.4468 10 42 10H49V42.2319C44.998 43.145 42 46.7261 42 51C42 51.688 42.085 52.356 42.2319 53H2ZM51 58C47.1411 58 44 54.8589 44 51C44 47.1411 47.1411 44 51 44C54.8589 44 58 47.1411 58 51C58 54.8589 54.8589 58 51 58Z" fill="white"/>
<path d="M49 52.5859L46.707 50.293L45.293 51.707L48.293 54.707C48.4878 54.9019 48.7441 55 49 55C49.2559 55 49.5122 54.9019 49.707 54.707L55.707 48.707L54.293 47.293L49 52.5859Z" fill="white"/>
<path d="M35 38.9999C32.0332 38.9999 29.5688 41.1669 29.0898 43.9999H25.9102C25.4321 41.1669 22.9678 38.9999 20 38.9999C17.0322 38.9999 14.5688 41.1669 14.0898 43.9999H13C9.69092 43.9999 7 41.309 7 37.9999C7 34.6909 9.69092 31.9999 13 31.9999H19.0898C19.5679 34.833 22.0322 36.9999 25 36.9999C27.9678 36.9999 30.4312 34.833 30.9102 31.9999H38C42.4111 31.9999 46 28.4111 46 23.9999C46 19.5888 42.4111 15.9999 38 15.9999H36.9102C36.4321 13.1669 33.9678 10.9999 31 10.9999C28.0322 10.9999 25.5688 13.1669 25.0898 15.9999H16.9102C16.4868 13.4931 14.5068 11.5141 12 11.0898V10.7202L17.3159 8.94819C17.7002 8.81977 17.9678 8.47407 17.9971 8.07075C18.0259 7.66694 17.8091 7.28608 17.4468 7.10493L11.4468 4.10493C11.1372 3.95112 10.769 3.96479 10.4741 4.14887C10.1802 4.33198 10 4.65278 10 4.99994V11.0898C7.16699 11.5688 5 14.0331 5 16.9999C5 20.309 7.69092 22.9999 11 22.9999C13.9668 22.9999 16.4312 20.833 16.9102 17.9999H25.0908C25.5688 20.833 28.0332 22.9999 31.001 22.9999C33.9692 22.9999 36.4321 20.833 36.9111 17.9999H38C41.3091 17.9999 44 20.6909 44 23.9999C44 27.309 41.3091 29.9999 38 29.9999H30.9102C30.4321 27.1669 27.9678 24.9999 25 24.9999C22.0322 24.9999 19.5688 27.1669 19.0898 29.9999H13C8.58887 29.9999 5 33.5888 5 37.9999C5 42.4111 8.58887 45.9999 13 45.9999H14.0898C14.5679 48.833 17.0322 50.9999 20 50.9999C22.9678 50.9999 25.4312 48.833 25.9102 45.9999H29.0908C29.5688 48.833 32.0332 50.9999 35.001 50.9999C38.3101 50.9999 41.001 48.309 41.001 44.9999C41.001 41.6909 38.3091 38.9999 35 38.9999ZM12 6.61811L14.394 7.81391L12 8.61176V6.61811ZM11 20.9999C8.79395 20.9999 7 19.206 7 16.9999C7 15.1411 8.27881 13.5888 10 13.142V16.9999H12V13.142C13.7212 13.5888 15 15.1411 15 16.9999C15 19.206 13.2061 20.9999 11 20.9999ZM31 20.9999C28.7939 20.9999 27 19.206 27 16.9999C27 14.7939 28.7939 12.9999 31 12.9999C33.2061 12.9999 35 14.7939 35 16.9999C35 19.206 33.2061 20.9999 31 20.9999ZM25 26.9999C27.2061 26.9999 29 28.7939 29 30.9999C29 33.206 27.2061 34.9999 25 34.9999C22.7939 34.9999 21 33.206 21 30.9999C21 28.7939 22.7939 26.9999 25 26.9999ZM20 48.9999C17.7939 48.9999 16 47.206 16 44.9999C16 42.7939 17.7939 40.9999 20 40.9999C22.2061 40.9999 24 42.7939 24 44.9999C24 47.206 22.2061 48.9999 20 48.9999ZM35 48.9999C32.7939 48.9999 31 47.206 31 44.9999C31 42.7939 32.7939 40.9999 35 40.9999C37.2061 40.9999 39 42.7939 39 44.9999C39 47.206 37.2061 48.9999 35 48.9999Z" fill="white"/>
<path d="M29 4H31V6H29V4Z" fill="white"/>
<path d="M33 4H35V6H33V4Z" fill="white"/>
<path d="M37 4H39V6H37V4Z" fill="white"/>
</svg>
