<svg width="60" height="60" viewBox="0 0 60 60" fill="none" xmlns="http://www.w3.org/2000/svg">
<g clip-path="url(#clip0)">
<path d="M57.4612 0H2.42523C1.15265 0 0.117188 1.03546 0.117188 2.30804V43.0554C0.117188 44.3275 1.15265 45.3635 2.42523 45.3635H19.8317V49.8207H17.2192C12.8471 49.8207 9.28894 53.3789 9.28894 57.751C9.28894 58.9915 10.2974 60 11.5379 60H48.3485C49.5891 60 50.5975 58.9915 50.5975 57.751C50.5975 53.3789 47.0393 49.8207 42.6672 49.8207H40.0548V45.3635H57.4612C58.7334 45.3635 59.7693 44.3275 59.7693 43.0554V2.30804C59.7693 1.03546 58.7334 0 57.4612 0V0ZM42.6672 51.5964C46.0606 51.5964 48.8219 54.3576 48.8219 57.751C48.8219 58.0128 48.6099 58.2248 48.3485 58.2248H11.5379C11.2766 58.2248 11.0646 58.0128 11.0646 57.751C11.0646 54.3576 13.8258 51.5964 17.2192 51.5964H42.6672ZM21.6069 49.8207V45.3635H38.2796V49.8207H21.6069ZM57.9936 43.0554C57.9936 43.3443 57.7501 43.5878 57.4612 43.5878C55.7611 43.5878 4.00543 43.5878 2.42523 43.5878C2.13638 43.5878 1.8924 43.3443 1.8924 43.0554V2.30804C1.8924 2.0192 2.13638 1.77521 2.42523 1.77521H57.4612C57.7501 1.77521 57.9936 2.0192 57.9936 2.30804V43.0554Z" fill="white"/>
<path d="M54.0921 3.7876H5.79437C4.7525 3.7876 3.90518 4.63492 3.90518 5.67633V39.6863C3.90518 40.7282 4.7525 41.5755 5.79437 41.5755H54.0926C55.134 41.5755 55.9813 40.7282 55.9813 39.6863V5.67633C55.9813 4.63492 55.134 3.7876 54.0921 3.7876ZM54.2056 39.6863C54.2056 39.7491 54.1548 39.8003 54.0921 39.8003H5.79437C5.73166 39.8003 5.68039 39.7491 5.68039 39.6863V5.67633C5.68039 5.61362 5.73166 5.56281 5.79437 5.56281H54.0926C54.1548 5.56281 54.2061 5.61362 54.2061 5.67633V39.6863H54.2056Z" fill="white"/>
<path d="M35.506 7.21118H17.2774C16.7871 7.21118 16.3898 7.60852 16.3898 8.09879C16.3898 8.58905 16.7871 8.98639 17.2774 8.98639H34.6184V28.8758H8.82111V8.98639H13.7265C14.2168 8.98639 14.6141 8.58905 14.6141 8.09879C14.6141 7.60852 14.2168 7.21118 13.7265 7.21118H7.9335C7.44278 7.21118 7.04544 7.60852 7.04544 8.09879V29.7634C7.04544 30.2536 7.44278 30.651 7.9335 30.651H35.506C35.9967 30.651 36.394 30.2536 36.394 29.7634V8.09879C36.394 7.60852 35.9967 7.21118 35.506 7.21118Z" fill="white"/>
<path d="M35.506 32.4265H7.9335C7.44278 32.4265 7.04544 32.8239 7.04544 33.3141C7.04544 33.8044 7.44278 34.2017 7.9335 34.2017H35.506C35.9967 34.2017 36.394 33.8044 36.394 33.3141C36.394 32.8239 35.9967 32.4265 35.506 32.4265Z" fill="white"/>
<path d="M35.506 35.7009H7.9335C7.44278 35.7009 7.04544 36.0983 7.04544 36.589C7.04544 37.0793 7.44278 37.4766 7.9335 37.4766H35.506C35.9967 37.4766 36.394 37.0793 36.394 36.589C36.394 36.0983 35.9967 35.7009 35.506 35.7009Z" fill="white"/>
<path d="M51.5918 6.96631H39.1283C38.6375 6.96631 38.2402 7.36365 38.2402 7.85391V36.3199C38.2402 36.8102 38.6375 37.2076 39.1283 37.2076H51.5918C52.0821 37.2076 52.4794 36.8102 52.4794 36.3199V7.85391C52.4794 7.36365 52.0821 6.96631 51.5918 6.96631ZM50.7037 35.4323H40.0159V27.7268H50.7042V35.4323H50.7037ZM50.7037 25.9278H40.0159V18.2465H50.7042V25.9278H50.7037ZM50.7037 16.4471H40.0159V8.74152H50.7042V16.4471H50.7037Z" fill="white"/>
<path d="M32.2733 18.2598L24.1237 16.0763C22.8749 15.7412 21.731 16.8833 22.066 18.1339L24.2496 26.2835C24.407 26.8699 24.8511 27.3144 25.4379 27.4714C26.7297 27.8179 27.2708 26.7133 28.06 26.0372C28.3598 26.2656 29.03 27.3583 30.5457 27.3583C33.0364 27.3583 34.2906 24.3339 32.5292 22.5719L32.027 22.0698L33.0267 21.0705C33.9404 20.1563 33.5239 18.5949 32.2733 18.2598ZM30.1437 22.6978C31.0327 23.6811 31.5729 23.8706 31.5729 24.5554C31.5729 25.498 30.444 25.9104 29.8174 25.2837L28.6876 24.154C28.3411 23.8074 27.7789 23.8074 27.4319 24.154L25.9218 25.6641L23.8239 17.8336L31.6539 19.932L30.1437 21.4422C29.7972 21.7887 29.7972 22.3508 30.1437 22.6978Z" fill="white"/>
</g>
<defs>
<clipPath id="clip0">
<rect width="60" height="60" fill="white"/>
</clipPath>
</defs>
</svg>
