<svg width="100" height="100" viewBox="0 0 100 100" fill="none" xmlns="http://www.w3.org/2000/svg">
<g clip-path="url(#clip0)">
<path d="M89.2242 86.2069H68.2024C73.5578 84.0679 77.6531 81.0249 80.7754 77.3398C93.5158 75.4056 99.2242 64.8698 99.2242 55.1726C99.2242 48.2886 95.3908 42.5409 90.4297 41.5358C90.4301 41.4837 90.4307 41.4315 90.4311 41.3796C90.4311 40.5175 90.0861 39.6554 89.3965 38.9657C88.7068 38.2761 87.8447 37.9312 86.9826 37.9312H7.67247C6.81036 37.9312 5.94825 38.2761 5.2586 38.9657C4.56895 39.6554 4.22403 40.5175 4.22403 41.3796C4.35743 59.9226 7.58751 78.6718 26.4527 86.2071H5.2586C2.84473 86.2071 0.775787 88.1036 0.775787 90.69C0.775787 92.7589 2.15508 94.3107 4.56895 94.8279L26.4654 96.3796C26.9826 96.3796 27.5 96.7245 27.6723 97.2417C28.5344 98.9659 30.2584 100 32.1551 100H60.7758C62.6723 100 64.3965 98.9657 65.0861 97.2417C65.2586 96.7245 65.7758 96.3796 66.293 96.3796L89.7412 94.8279H89.9137C92.3275 94.3107 93.7068 92.7589 93.7068 90.69C93.7068 88.2759 91.8104 86.2069 89.2242 86.2069ZM90.4311 45.1726C93.3621 46.2071 95.6035 50.345 95.6035 55.1726C95.6035 61.8913 92.5045 69.987 83.8994 72.9239C84.0436 72.6792 84.1846 72.4325 84.3227 72.1839C89.1111 63.8778 90.0963 53.8755 90.4311 45.1726ZM7.67247 41.3794H86.9828C86.8104 64.6552 81.8104 86.2069 47.3277 86.2069C12.8451 86.2069 7.84493 64.6552 7.67247 41.3794ZM89.569 91.3794L66.4654 92.9312C64.7412 93.1036 63.1897 94.138 62.3275 95.6898C61.9826 96.207 61.4654 96.5519 60.9482 96.5519H32.1553C31.6381 96.5519 31.1207 96.207 30.776 95.6898C29.9139 94.138 28.3621 93.1036 26.6381 92.9312L5.08633 91.3794C4.22422 91.207 4.22422 90.8622 4.22422 90.6898C4.22422 90.1726 4.74141 89.6552 5.25879 89.6552H89.3965C89.9137 89.6552 90.4311 90.1724 90.4311 90.6898C90.4311 90.8622 90.4311 91.207 89.569 91.3794Z" fill="#53880B"/>
<path d="M46.1207 14.3109C43.5346 16.8971 42.1553 19.4834 42.1553 22.242C42.1553 25.0006 43.5346 27.7592 46.1207 30.5178C46.4657 30.8627 46.8104 31.035 47.3276 31.035C47.8448 31.035 48.1897 30.8625 48.5344 30.5178C49.2241 29.8281 49.2241 28.7936 48.5344 28.1039C46.6379 26.035 45.6034 24.1385 45.6034 22.2418C45.6034 20.3451 46.6379 18.4486 48.5344 16.7246C51.1207 14.3109 52.5 11.5523 52.5 8.79375C52.5 6.03516 51.2932 3.1041 48.5346 0.517969C47.845 -0.17168 46.8104 -0.17168 46.1207 0.517969C45.4311 1.20762 45.4311 2.24219 46.1207 2.93184C48.0172 5.00078 49.0518 6.89726 49.0518 8.79395C49.0518 10.6906 48.0172 12.5867 46.1207 14.3109Z" fill="#53880B"/>
<path d="M61.1207 22.2412C61.1207 24.9998 62.5 27.7584 65.0861 30.517C65.4311 30.8619 65.7758 31.0342 66.293 31.0342C66.6379 31.0342 67.1551 30.8617 67.3276 30.517C68.0172 29.8273 68.0172 28.7928 67.3276 28.1031C65.4311 26.0342 64.3965 24.1377 64.3965 22.241C64.3965 20.3443 65.4311 18.4479 67.3276 16.7238C70.0861 14.31 71.4654 11.5514 71.4654 8.79277C71.4654 5.86172 70.2586 3.10313 67.5 0.516992C66.8104 -0.172656 65.7758 -0.172656 65.0861 0.516992C64.3965 1.20664 64.3965 2.24121 65.0861 2.93086C66.9826 4.9998 68.0172 6.89629 68.0172 8.79297C68.0172 10.6896 66.9826 12.4137 65.0861 14.3102C62.5 16.8963 61.1207 19.4826 61.1207 22.2412Z" fill="#53880B"/>
<path d="M24.9139 22.2412C24.9139 24.9998 26.2932 27.7584 28.8793 30.517C29.2242 30.8619 29.569 31.0342 30.0862 31.0342C30.4311 31.0342 30.9483 30.8617 31.1207 30.517C31.8104 29.8273 31.8104 28.7928 31.1207 28.1031C29.2242 26.0342 28.1897 24.1377 28.1897 22.241C28.1897 20.3443 29.2242 18.4479 31.1207 16.7238C33.8793 14.31 35.2586 11.5514 35.2586 8.79277C35.2586 5.86172 34.0518 3.10313 31.2932 0.516992C30.6035 -0.172656 29.569 -0.172656 28.8793 0.516992C28.1897 1.20664 28.1897 2.24121 28.8793 2.93086C30.7758 4.9998 31.8104 6.89629 31.8104 8.79297C31.8104 10.6896 30.7758 12.4137 28.8793 14.3102C26.2932 16.8963 24.9139 19.4826 24.9139 22.2412Z" fill="#53880B"/>
<path d="M37.3276 77.5861C25.0861 75.5172 18.8793 68.6207 16.293 54.8275C16.1205 53.9654 15.0861 53.2758 14.224 53.4482C13.3619 53.6207 12.6723 54.6551 12.8447 55.5172C15.6033 70.8619 23.0172 78.6207 36.6379 81.0344C36.8104 81.0344 36.8104 81.0344 36.9828 81.0344C37.8449 81.0344 38.5346 80.5172 38.707 79.6551C38.8793 78.6207 38.1897 77.7586 37.3276 77.5861Z" fill="#53880B"/>
</g>
<defs>
<clipPath id="clip0">
<rect width="100" height="100" fill="white"/>
</clipPath>
</defs>
</svg>
