<svg width="100" height="100" viewBox="0 0 100 100" fill="none" xmlns="http://www.w3.org/2000/svg">
<g clip-path="url(#clip0)">
<path d="M40.4166 0C34.899 0 30.4103 4.48869 30.4103 10.0063C30.4103 15.5239 34.8992 20.0126 40.4166 20.0126C45.9342 20.0126 50.4229 15.5239 50.4229 10.0063C50.4229 4.48869 45.9342 0 40.4166 0ZM40.4166 17.0827C36.5146 17.0827 33.3402 13.9083 33.3402 10.0063C33.3402 6.10432 36.5148 2.92989 40.4166 2.92989C44.3185 2.92989 47.493 6.10452 47.493 10.0063C47.493 13.9081 44.3185 17.0827 40.4166 17.0827Z" fill="#53880B"/>
<path d="M77.93 60.9913C77.3523 60.4253 76.4247 60.4339 75.8583 61.0116L63.5624 73.5517L59.2202 69.0085C58.6612 68.4234 57.7338 68.4025 57.1489 68.9617C56.5641 69.5207 56.543 70.4478 57.102 71.033L62.4899 76.6701C63.0614 77.2684 64.0153 77.2746 64.595 76.6836L77.9503 63.0632C78.5167 62.4851 78.5075 61.5577 77.93 60.9913Z" fill="#53880B"/>
<path d="M86.0126 70.7761C85.2197 70.6188 84.448 71.1337 84.2904 71.9274C82.6107 80.3792 76.6468 87.6005 68.7257 90.774C67.9747 91.0748 67.6098 91.9275 67.9106 92.6787C68.2114 93.4299 69.0643 93.7945 69.8153 93.4937C78.9347 89.8404 85.3285 81.7355 87.1638 72.4985C87.3218 71.7048 86.806 70.9337 86.0126 70.7761Z" fill="#53880B"/>
<path d="M83.498 48.2021C79.5792 50.416 75.8829 50.4898 72.511 48.4216C69.8305 46.7777 68.3284 44.3697 68.2684 44.2724C67.7749 43.4644 66.9319 42.9679 65.993 42.9226C63.2676 35.2919 58.719 29.9915 55.2924 26.8358C53.107 24.8233 50.2705 23.7151 47.3051 23.7151C45.8808 23.7151 34.9148 23.7151 33.5282 23.7151C30.3622 23.7151 27.3487 24.9047 25.0431 27.0647C20.2958 31.5124 12.3244 41.2288 12.2778 56.3285C12.2678 59.4945 14.7815 62.1397 17.8809 62.225C21.1186 62.3197 23.8085 59.7215 23.8085 56.4619C23.8085 50.7951 25.4001 45.4605 28.4458 40.8206V94.9177C28.4458 97.7203 30.7259 100 33.5284 100H36.7994C38.2134 100 39.4947 99.4199 40.4169 98.4845C41.3392 99.4199 42.6203 100 44.0345 100H47.3054C50.108 100 52.3881 97.7203 52.3881 94.9177V87.1948C55.0981 89.9173 58.3246 92.0653 61.8899 93.4935C62.6414 93.7945 63.494 93.429 63.7946 92.6784C64.0956 91.9275 63.7305 91.0747 62.9795 90.7737C53.5479 86.995 46.9133 77.6272 46.9133 66.8037V50.8357C52.8441 54.1205 58.5865 53.3193 63.2778 48.9416C64.3539 47.9529 65.2309 46.9066 65.8237 45.9769C65.8329 45.9628 65.845 45.9451 65.853 45.9326C66.2737 46.5824 68.0313 49.1107 70.9801 50.9193C73.9454 52.7384 78.7397 54.189 84.7929 50.8355V65.3768C84.7929 66.186 85.4488 66.8416 86.2577 66.8416C87.0667 66.8416 87.7226 66.186 87.7226 65.3768V50.6673C87.722 48.5021 85.3867 47.1359 83.498 48.2021ZM42.9923 26.645L41.2382 28.7286C40.8087 29.2385 40.0248 29.2385 39.5951 28.7286L37.8408 26.645H42.9923ZM52.3877 49.7869V41.1997C54.0754 43.8497 55.285 46.7058 56.001 49.7365C54.8268 49.9939 53.6244 50.0099 52.3877 49.7869ZM58.7545 48.6607C57.5779 43.9589 55.3219 39.6501 52.0324 35.8302C51.1467 34.8017 49.4572 35.4337 49.4572 36.786V48.8406C48.8262 48.5533 48.0347 48.1136 48.0131 48.1035C46.1517 47.2275 43.9822 48.5832 43.9822 50.6675V50.7179V66.8041C43.9822 72.9366 45.8785 78.8014 49.4572 83.7511V94.9181H49.458C49.458 96.105 48.4924 97.0708 47.3052 97.0708H44.0343C42.8474 97.0708 41.8816 96.1054 41.8816 94.9181V64.8125C41.8816 64.0033 41.2257 63.3477 40.4167 63.3477C39.6078 63.3477 38.9519 64.0033 38.9519 64.8125V94.9179C38.9519 96.1048 37.9863 97.0706 36.7992 97.0706H33.5282C32.3413 97.0706 31.3755 96.1052 31.3755 94.9179V36.4981C31.3755 35.1507 29.7015 34.5208 28.812 35.529C23.6216 41.4111 20.8782 48.6498 20.8782 56.4621C20.8782 58.0392 19.5903 59.3353 17.9614 59.2965C16.4379 59.2545 15.2024 57.9273 15.2075 56.3379C15.2508 42.3382 22.6432 33.328 27.0462 29.2032C28.8069 27.5536 31.1087 26.645 33.528 26.645H34.0107L37.3536 30.6153C38.9538 32.5165 41.881 32.5139 43.4793 30.6153L46.822 26.645H47.3047C49.533 26.645 51.6646 27.4782 53.3074 28.9909C56.5526 31.9796 60.883 37.038 63.3885 44.3452C62.2729 46.0287 60.5715 47.6351 58.7545 48.6607Z" fill="#53880B"/>
</g>
<defs>
<clipPath id="clip0">
<rect width="100" height="100" fill="white"/>
</clipPath>
</defs>
</svg>
