<svg width="60" height="61" viewBox="0 0 60 61" fill="none" xmlns="http://www.w3.org/2000/svg">
<path d="M57.387 13.1243L55.9324 12.6621C55.5688 12.5697 55.2051 12.4773 54.7506 12.4773C53.1143 12.4773 51.6597 13.5863 51.1142 15.1575L50.2961 17.6529V15.8044V15.7121C50.2961 15.4348 50.1143 15.1575 49.9324 14.9727L35.0234 0.277294C34.8416 0.0924315 34.5688 0 34.387 0H5.20516C4.65967 0 4.29612 0.369726 4.29612 0.924192V3.78932H0.932464C0.386966 3.78932 0.0234222 4.15905 0.0234222 4.71351V60.0757C0.0234222 60.6303 0.387087 60.9999 0.932464 60.9999H45.1142C45.6597 60.9999 46.0233 60.6301 46.0233 60.0757V57.2106H49.3869C49.9324 57.2106 50.296 56.8408 50.296 56.2864V43.8091L52.8414 40.2969L52.9323 40.0196L59.7505 17.9302C60.4779 15.897 59.387 13.7712 57.387 13.1243ZM35.296 3.14243L47.2051 14.7879H35.296V3.14243ZM44.2052 59.1515H1.84151V5.63783H4.296V56.2864C4.296 56.8409 4.65967 57.2106 5.20504 57.2106H44.2051V59.1515H44.2052ZM48.5688 55.3622H48.4779H6.1142V1.84851H33.4778V15.7121C33.4778 16.2667 33.8415 16.6363 34.3869 16.6363H48.5687V23.5682L44.296 37.2469V37.5242L44.4778 49.2622C44.4778 49.6319 44.7506 50.0016 45.1142 50.0939C45.4779 50.1864 45.9324 50.0939 46.1142 49.7242L48.5687 46.3969V55.3622H48.5688ZM46.2051 46.3969L46.0233 38.7257L50.5687 40.2045L46.2051 46.3969ZM58.1143 17.3758L51.5688 38.541L46.296 36.7849L52.8415 15.7121C53.2052 14.6955 54.2961 14.0485 55.296 14.4182L56.7506 14.8804C57.8416 15.1575 58.4778 16.3591 58.1143 17.3758Z" fill="white"/>
<path d="M12.296 16.6363H25.387C25.9325 16.6363 26.296 16.2665 26.296 15.7121V6.28479C26.296 5.7302 25.9324 5.3606 25.387 5.3606H12.296C11.7505 5.3606 11.387 5.73032 11.387 6.28479V15.7121C11.387 16.1742 11.8416 16.6363 12.296 16.6363ZM13.2052 7.20898H24.478V14.7877H13.2052V7.20898Z" fill="white"/>
<path d="M10.4779 25.3242H38.1143C38.6598 25.3242 39.0233 24.9545 39.0233 24.4C39.0233 23.8454 38.6596 23.4758 38.1143 23.4758H10.4779C9.93244 23.4758 9.5689 23.8456 9.5689 24.4C9.56878 24.9545 9.93244 25.3242 10.4779 25.3242Z" fill="white"/>
<path d="M10.4779 32.0713H38.1143C38.6598 32.0713 39.0233 31.7015 39.0233 31.1471C39.0233 30.5926 38.6596 30.2229 38.1143 30.2229H10.4779C9.93244 30.2229 9.5689 30.5926 9.5689 31.1471C9.5689 31.7015 9.93244 32.0713 10.4779 32.0713Z" fill="white"/>
<path d="M10.4779 38.8182H38.1143C38.6598 38.8182 39.0233 38.4485 39.0233 37.894C39.0233 37.3396 38.6596 36.9698 38.1143 36.9698H10.4779C9.93244 36.9698 9.5689 37.3396 9.5689 37.894C9.5689 38.4485 9.93244 38.8182 10.4779 38.8182Z" fill="white"/>
<path d="M38.9324 44.641C38.9324 44.0864 38.5688 43.7168 38.0234 43.7168H10.4779C9.93245 43.7168 9.5689 44.0865 9.5689 44.641C9.5689 45.1955 9.93257 45.5652 10.4779 45.5652H38.1143C38.5688 45.5652 38.9324 45.103 38.9324 44.641Z" fill="white"/>
<path d="M41.9324 50.4637H28.2052C27.6597 50.4637 27.2961 50.8335 27.2961 51.3879C27.2961 51.9424 27.6598 52.3121 28.2052 52.3121H41.8415C42.387 52.3121 42.7506 51.9424 42.7506 51.3879C42.7506 50.8335 42.387 50.4637 41.9324 50.4637Z" fill="white"/>
</svg>
