<svg width="30" height="36" viewBox="0 0 30 36" fill="none" xmlns="http://www.w3.org/2000/svg">
<g clip-path="url(#clip0)">
<path d="M30 32.0505C30 34.2014 28.5075 35.9452 26.6667 35.9452H3.33333C1.49253 35.9452 0 34.2013 0 32.0505V4.78719C0 2.63636 1.49253 0.892455 3.33333 0.892455H26.6667C28.5075 0.892455 30 2.63636 30 4.78719V32.0505Z" fill="#0D3153"/>
<path d="M20.0916 12.7968C20.0916 14.6994 19.395 16.3595 17.9733 17.416C19.8333 18.413 21.125 20.4354 21.125 22.82C21.125 26.4431 18.2834 29.4917 14.6141 29.4917C10.7899 29.4917 8.41331 26.2017 8.41331 23.8161C8.41331 22.6389 9.47247 21.7937 10.4025 21.7937C12.16 21.7937 11.7466 25.3263 14.6659 25.3263C16.01 25.3263 17.095 24.1189 17.095 22.5181C17.095 18.2913 12.7025 21.4013 12.7025 17.8385C12.7025 14.6692 16.3709 16.8123 16.3709 13.4618C16.3709 12.3139 15.6742 11.4385 14.5109 11.4385C12.0567 11.4385 12.3926 14.3966 10.635 14.3966C9.57589 14.3966 8.95589 13.2798 8.95589 12.1629C8.95589 9.8086 11.7209 7.27207 14.5884 7.27207C18.3091 7.27207 20.0916 10.4424 20.0916 12.7968Z" fill="white"/>
</g>
<defs>
<clipPath id="clip0">
<rect width="30" height="35.0527" fill="white" transform="translate(0 0.892456)"/>
</clipPath>
</defs>
</svg>
