<svg width="61" height="61" viewBox="0 0 61 61" fill="none" xmlns="http://www.w3.org/2000/svg">
<g clip-path="url(#clip0)">
<path d="M4.91925 54.0921H30.5V52.124H4.91925C3.2892 52.124 1.96765 50.8024 1.96765 49.1724V5.88203C1.96765 4.25148 3.2892 2.93042 4.91925 2.93042H48.2096C49.8404 2.93042 51.1612 4.25148 51.1612 5.88203V28.5109H53.1293V5.88203C53.1261 3.16642 50.9254 0.965974 48.2096 0.962769H4.91925C2.20414 0.965974 0.00345245 3.16642 0 5.88203V49.1724C0.00345245 51.888 2.20414 54.0884 4.91925 54.0921Z" fill="white"/>
<path d="M3.93579 4.89856H5.9032V6.86597H3.93579V4.89856Z" fill="white"/>
<path d="M7.87085 4.89856H9.83898V6.86597H7.87085V4.89856Z" fill="white"/>
<path d="M11.8064 4.89856H13.7743V6.86597H11.8064V4.89856Z" fill="white"/>
<path d="M3.93579 8.83362H49.1936V10.8018H3.93579V8.83362Z" fill="white"/>
<path d="M14.0626 13.0575L11.5635 15.5566C9.45108 14.1581 6.62228 14.5872 5.01911 16.5492C3.41618 18.5109 3.55995 21.3685 5.35128 23.1596C7.14237 24.9515 10.0003 25.0952 11.9622 23.492C13.924 21.8891 14.3533 19.0598 12.9546 16.9479L15.4534 14.4488L14.0626 13.0575ZM8.85454 22.6077C7.22474 22.6077 5.90318 21.2864 5.90318 19.6564C5.90318 18.0261 7.22474 16.705 8.85454 16.705C9.2935 16.7065 9.7253 16.8071 10.1191 16.9997L8.15937 18.9597L9.55021 20.3511L11.5115 18.3923C11.7041 18.7859 11.8049 19.2177 11.8064 19.6564C11.8064 21.2864 10.4853 22.6077 8.85454 22.6077Z" fill="white"/>
<path d="M16.7259 16.705H33.4513V18.6724H16.7259V16.705Z" fill="white"/>
<path d="M16.7259 20.6403H23.6128V22.6077H16.7259V20.6403Z" fill="white"/>
<path d="M25.5807 20.6403H39.3545V22.6077H25.5807V20.6403Z" fill="white"/>
<path d="M35.4193 16.705H45.258V18.6724H35.4193V16.705Z" fill="white"/>
<path d="M14.0626 24.8639L11.5635 27.363C9.45108 25.9645 6.62228 26.3936 5.01911 28.3556C3.41618 30.3175 3.55995 33.1749 5.35128 34.9665C7.14237 36.7578 10.0003 36.9016 11.9622 35.2984C13.924 33.6953 14.3533 30.867 12.9546 28.7543L15.4534 26.2552L14.0626 24.8639ZM8.85454 34.4144C7.22474 34.4144 5.90318 33.0928 5.90318 31.4628C5.90318 29.8325 7.22474 28.5109 8.85454 28.5109C9.2935 28.5126 9.7253 28.6135 10.1191 28.8061L8.15937 30.7666L9.55021 32.1575L11.5115 30.1984C11.7041 30.5923 11.8049 31.0241 11.8064 31.4628C11.8064 33.0928 10.4853 34.4144 8.85454 34.4144Z" fill="white"/>
<path d="M16.7259 28.5109H33.4513V30.4788H16.7259V28.5109Z" fill="white"/>
<path d="M16.7259 32.4467H23.6128V34.4143H16.7259V32.4467Z" fill="white"/>
<path d="M25.5807 32.4467H33.4514V34.4143H25.5807V32.4467Z" fill="white"/>
<path d="M35.4193 28.5109H39.3546V30.4788H35.4193V28.5109Z" fill="white"/>
<path d="M14.0626 36.6704L11.5635 39.1695C9.45108 37.771 6.62228 38.2001 5.01911 40.1621C3.41618 42.1241 3.55995 44.9814 5.35128 46.773C7.14237 48.5646 10.0003 48.7079 11.9622 47.105C13.924 45.5018 14.3533 42.6732 12.9546 40.5606L15.4534 38.0617L14.0626 36.6704ZM8.85454 46.2209C7.22474 46.2209 5.90318 44.8993 5.90318 43.2693C5.90318 41.639 7.22474 40.3177 8.85454 40.3177C9.2935 40.3192 9.7253 40.4198 10.1191 40.6126L8.15937 42.5731L9.55021 43.964L11.5115 42.0049C11.7041 42.3988 11.8049 42.8308 11.8064 43.2693C11.8064 44.8993 10.4853 46.2209 8.85454 46.2209Z" fill="white"/>
<path d="M16.7259 40.3176H29.516V42.2858H16.7259V40.3176Z" fill="white"/>
<path d="M16.7259 44.2531H23.6128V46.2207H16.7259V44.2531Z" fill="white"/>
<path d="M25.5807 44.2531H29.516V46.2207H25.5807V44.2531Z" fill="white"/>
<path d="M46.2422 59.9953C54.3932 59.9953 61 53.3873 61 45.237C61 37.086 54.3932 30.4788 46.2422 30.4788C38.0912 30.4788 31.4839 37.086 31.4839 45.237C31.4936 53.3836 38.0952 59.9855 46.2422 59.9953ZM46.2422 32.4467C53.3057 32.4467 59.0326 38.1731 59.0326 45.237C59.0326 52.301 53.3057 58.0272 46.2422 58.0272C39.178 58.0272 33.4514 52.301 33.4514 45.237C33.4597 38.1765 39.1812 32.4546 46.2422 32.4467Z" fill="white"/>
<path d="M40.2406 45.7808L38.4793 46.6602L40.4472 50.5957C40.5883 50.8788 40.8576 51.0768 41.17 51.1274C41.2208 51.1353 41.2716 51.1395 41.3227 51.1402C41.5833 51.1402 41.8336 51.0364 42.0186 50.8519L53.8245 39.0455L52.4337 37.6542L41.592 48.4954L40.2406 45.7808Z" fill="white"/>
</g>
<defs>
<clipPath id="clip0">
<rect width="61" height="61" fill="white"/>
</clipPath>
</defs>
</svg>
