<svg width="61" height="61" viewBox="0 0 61 61" fill="none" xmlns="http://www.w3.org/2000/svg">
<g clip-path="url(#clip0)">
<path d="M30.5 23.8633C37.0784 23.8633 42.4301 18.5115 42.4301 11.9331C42.4301 5.35479 37.0784 0.00280762 30.5 0.00280762C23.9217 0.00280762 18.5699 5.35479 18.5699 11.9331C18.5699 18.5115 23.9217 23.8633 30.5 23.8633ZM24.729 10.6583C25.4333 9.95444 26.5744 9.95444 27.2787 10.6583L29.0013 12.3811L33.7213 7.66088C34.4256 6.95702 35.5667 6.95702 36.271 7.66088C36.975 8.36495 36.975 9.50649 36.271 10.2106L30.2761 16.2054C29.9241 16.5572 29.4628 16.7334 29.0013 16.7334C28.5398 16.7334 28.0785 16.5574 27.7265 16.2054L24.729 13.208C24.025 12.5039 24.025 11.3622 24.729 10.6583Z" fill="white"/>
<path d="M7.01705 17.431C10.8863 17.431 14.0343 14.283 14.0343 10.4137C14.0343 6.54445 10.8863 3.39648 7.01705 3.39648C3.14776 3.39648 0 6.54445 0 10.4137C0 14.283 3.14776 17.431 7.01705 17.431Z" fill="white"/>
<path d="M0.691528 27.476V42.0493C0.691528 45.3965 3.4049 48.1098 6.75209 48.1098H14.6507V58.8736C14.6507 59.6935 15.3153 60.3583 16.1354 60.3583H23.1344C23.9543 60.3583 24.6191 59.6937 24.6191 58.8736V43.3473C24.6191 40.5218 22.3287 38.2315 19.5034 38.2315H13.3428V27.476C13.3428 23.9826 10.5107 21.1505 7.01725 21.1505C3.52361 21.1503 0.691528 23.9824 0.691528 27.476Z" fill="white"/>
<path d="M53.983 17.431C57.8522 17.431 61 14.283 61 10.4137C61 6.54445 57.8522 3.39648 53.983 3.39648C50.1137 3.39648 46.9657 6.54445 46.9657 10.4137C46.9657 14.283 50.1137 17.431 53.983 17.431Z" fill="white"/>
<path d="M47.6572 27.476V38.2315H41.4969C38.6713 38.2315 36.3809 40.522 36.3809 43.3473V58.8736C36.3809 59.6935 37.0455 60.3583 37.8656 60.3583H44.8646C45.6845 60.3583 46.3493 59.6937 46.3493 58.8736V48.1098H54.2479C57.5951 48.1098 60.3085 45.3965 60.3085 42.0493V27.476C60.3085 23.9826 57.4764 21.1505 53.9829 21.1505C50.4893 21.1503 47.6572 23.9824 47.6572 27.476Z" fill="white"/>
<path d="M40.9986 31.1804C41.9943 31.1804 42.8012 30.3733 42.8012 29.3778C42.8012 28.382 41.9941 27.5751 40.9986 27.5751H20.0014C19.0057 27.5751 18.1987 28.3822 18.1987 29.3778C18.1987 30.3735 19.0059 31.1804 20.0014 31.1804H28.6971V59.1942C28.6971 60.1899 29.5043 60.9969 30.4998 60.9969C31.4953 60.9969 32.3025 60.1897 32.3025 59.1942V31.1804H40.9986Z" fill="white"/>
</g>
<defs>
<clipPath id="clip0">
<rect width="61" height="61" fill="white"/>
</clipPath>
</defs>
</svg>
