<svg width="30" height="36" viewBox="0 0 30 36" fill="none" xmlns="http://www.w3.org/2000/svg">
<g clip-path="url(#clip0)">
<path d="M30 31.1802C30 33.3311 28.5075 35.075 26.6667 35.075H3.33333C1.49253 35.075 0 33.331 0 31.1802V3.91684C0 1.76601 1.49253 0.0220938 3.33333 0.0220938H26.6667C28.5075 0.0220938 30 1.76601 30 3.91684V31.1802Z" fill="#0D3153"/>
<path d="M19.2417 24.2766C20.3792 24.2766 21.2584 24.8803 21.2584 26.2688C21.2584 27.6582 20.3792 28.2619 19.3975 28.2619H10.7675C9.62998 28.2619 8.75254 27.6582 8.75254 26.2688C8.75254 25.6358 9.08755 25.0916 9.34588 24.7294C11.4908 21.7412 13.8167 19.0236 15.7801 15.7024C16.2451 14.9176 16.685 13.9818 16.685 12.8952C16.685 11.6577 15.8842 10.5701 14.8242 10.5701C11.8525 10.5701 13.2733 15.4609 10.7934 15.4609C9.55337 15.4609 8.90672 14.4347 8.90672 13.2575C8.90672 9.45326 11.8009 6.40462 14.9792 6.40462C18.1576 6.40462 20.715 8.84959 20.715 12.6839C20.715 16.8796 16.7109 21.047 14.5142 24.2767H19.2417V24.2766Z" fill="white"/>
</g>
<defs>
<clipPath id="clip0">
<rect width="30" height="35.0529" fill="white" transform="translate(0 0.0220947)"/>
</clipPath>
</defs>
</svg>
