<svg width="100" height="100" viewBox="0 0 100 100" fill="none" xmlns="http://www.w3.org/2000/svg">
<g clip-path="url(#clip0)">
<path d="M24.029 67.0823C21.2596 67.0823 19.0066 69.3353 19.0066 72.1047C19.0066 74.8741 21.2599 77.1271 24.029 77.1271C26.7982 77.1271 29.0515 74.8741 29.0515 72.1047C29.0515 69.3353 26.7982 67.0823 24.029 67.0823ZM24.029 73.4732C23.2744 73.4732 22.6605 72.8591 22.6605 72.1047C22.6605 71.3503 23.2746 70.7362 24.029 70.7362C24.7834 70.7362 25.3975 71.35 25.3975 72.1047C25.3975 72.8593 24.7834 73.4732 24.029 73.4732Z" fill="#53880B"/>
<path d="M75.971 67.0823C73.2015 67.0823 70.9485 69.3353 70.9485 72.1047C70.9485 74.8741 73.2018 77.1271 75.971 77.1271C78.7401 77.1271 80.9934 74.8741 80.9934 72.1047C80.9936 69.3353 78.7404 67.0823 75.971 67.0823ZM75.971 73.4732C75.2163 73.4732 74.6024 72.8591 74.6024 72.1047C74.6024 71.3503 75.2165 70.7362 75.971 70.7362C76.7254 70.7362 77.3395 71.35 77.3395 72.1047C77.3395 72.8593 76.7256 73.4732 75.971 73.4732Z" fill="#53880B"/>
<path d="M97.681 63.2919V46.1492V27.4792C97.681 21.6644 92.9501 16.9336 87.1353 16.9336H18.7014C9.66822 16.9336 2.31901 24.2828 2.31901 33.316V63.2916C0.912014 64.3486 0 66.0311 0 67.9226V68.1467C0 71.3368 2.59524 73.932 5.78534 73.932H13.223C14.0958 79.1091 18.6076 83.0661 24.029 83.0661C29.4504 83.0661 33.9623 79.1091 34.8351 73.932H65.1651C66.0379 79.1091 70.5498 83.0661 75.9712 83.0661C81.3926 83.0661 85.9044 79.1091 86.7772 73.932H94.2149C97.405 73.932 100 71.3368 100 68.1467V67.9226C100 66.0311 99.088 64.3486 97.681 63.2919ZM94.0271 44.3223H89.0132C88.7567 44.3223 88.5479 44.1138 88.5479 43.857V29.7715C88.5479 29.515 88.7564 29.3062 89.0132 29.3062H94.0271V44.3223ZM3.6539 68.1467V67.9226C3.6539 66.746 4.61001 65.7887 5.78534 65.7887H15.0787C14.1489 67.1024 13.5009 68.6278 13.2227 70.2781H5.78534C4.61001 70.2781 3.6539 69.322 3.6539 68.1467ZM24.029 79.4122C19.9998 79.4122 16.7217 76.1339 16.7217 72.1046C16.7217 68.0753 19.9998 64.7973 24.029 64.7973C28.0583 64.7973 31.3363 68.0753 31.3363 72.1046C31.3363 76.1339 28.0583 79.4122 24.029 79.4122ZM65.1649 70.2781H34.8351C33.9625 65.1008 29.4504 61.1434 24.029 61.1434C22.4074 61.1434 20.8686 61.5 19.4824 62.1348H5.97291V33.3162C5.97291 26.2976 11.683 20.5877 18.7014 20.5877H87.1353C90.3028 20.5877 92.9764 22.7365 93.7793 25.6525H89.0129C86.7417 25.6525 84.8938 27.5002 84.8938 29.7717V43.8572C84.8938 46.1285 86.7414 47.9764 89.0129 47.9764H94.0271V62.1353H80.5176C79.1316 61.5007 77.5926 61.1439 75.9709 61.1439C70.5495 61.1436 66.0375 65.101 65.1649 70.2781ZM75.9709 79.4122C71.9417 79.4122 68.6636 76.1339 68.6636 72.1046C68.6636 68.0753 71.9417 64.7973 75.9709 64.7973C80.0002 64.7973 83.2783 68.0753 83.2783 72.1046C83.2783 76.1339 80.0002 79.4122 75.9709 79.4122ZM96.3461 68.1467C96.3461 69.322 95.39 70.2781 94.2146 70.2781H86.7772C86.4991 68.6278 85.8511 67.1024 84.9213 65.7887H94.2146C95.39 65.7887 96.3461 66.746 96.3461 67.9226V68.1467Z" fill="#53880B"/>
<path d="M79.5033 43.8571V29.7715C79.5033 27.5002 77.6557 25.6523 75.3842 25.6523H19.1323C14.2722 25.6523 10.3181 29.6064 10.3181 34.4665V43.8571C10.3181 46.1283 12.1658 47.9762 14.4373 47.9762H75.3844C77.6557 47.9762 79.5033 46.1283 79.5033 43.8571ZM46.7378 29.3062H61.1003V44.3223H46.7378V29.3062ZM43.0839 44.3223H28.7216V29.3062H43.0839V44.3223ZM13.972 43.8571V34.4665C13.972 31.6211 16.2869 29.3062 19.1323 29.3062H25.0677V44.3223H14.4373C14.1806 44.3223 13.972 44.1136 13.972 43.8571ZM75.8494 43.8571C75.8494 44.1136 75.6409 44.3223 75.3842 44.3223H64.754V29.3062H75.3842C75.6407 29.3062 75.8494 29.5148 75.8494 29.7715V43.8571Z" fill="#53880B"/>
<path d="M90.0168 59.2938C91.0258 59.2938 91.8438 58.4758 91.8438 57.4669V55.8428C91.8438 54.8339 91.0258 54.0159 90.0168 54.0159C89.0078 54.0159 88.1898 54.8339 88.1898 55.8428V57.4669C88.1898 58.4758 89.0078 59.2938 90.0168 59.2938Z" fill="#53880B"/>
</g>
<defs>
<clipPath id="clip0">
<rect width="100" height="100" fill="white"/>
</clipPath>
</defs>
</svg>
