<svg width="60" height="60" viewBox="0 0 60 60" fill="none" xmlns="http://www.w3.org/2000/svg">
<path d="M57 0H3C1.34312 0 0 1.34312 0 3V47C0 48.6569 1.34312 50 3 50H27V48H3C2.44775 48 2 47.5522 2 47V3C2 2.44775 2.44775 2 3 2H57C57.5522 2 58 2.44775 58 3V47C58 47.5522 57.5522 48 57 48H53V50H57C58.6569 50 60 48.6569 60 47V3C60 1.34312 58.6569 0 57 0Z" fill="white"/>
<path d="M54 22H47V19C47 18.4478 46.5522 18 46 18H37V15C37 14.4478 36.5522 14 36 14H19V11C19 10.4477 18.5522 10 18 10H6C5.44775 10 5 10.4477 5 11V15C5 15.5522 5.44775 16 6 16H13V19C13 19.5522 13.4478 20 14 20H29V23C29 23.5522 29.4478 24 30 24H41V27C41 27.5522 41.4478 28 42 28H54C54.5522 28 55 27.5522 55 27V23C55 22.4478 54.5522 22 54 22ZM7 14V12H17V14H7ZM15 18V16H35V18H15ZM31 22V20H45V22H31ZM53 26H43V24H53V26Z" fill="white"/>
<path d="M27 44H25V46H27V44Z" fill="white"/>
<path d="M23 44H21V46H23V44Z" fill="white"/>
<path d="M19 44H17V46H19V44Z" fill="white"/>
<path d="M15 44H13V46H15V44Z" fill="white"/>
<path d="M11 44H9V46H11V44Z" fill="white"/>
<path d="M7 44H5V46H7V44Z" fill="white"/>
<path d="M55 44H53V46H55V44Z" fill="white"/>
<path d="M7 18H5V42H7V18Z" fill="white"/>
<path d="M19 22H17V42H19V22Z" fill="white"/>
<path d="M15 22H13V42H15V22Z" fill="white"/>
<path d="M55 30H53V42H55V30Z" fill="white"/>
<path d="M55 4H47V6H55V4Z" fill="white"/>
<path d="M7 4H5V6H7V4Z" fill="white"/>
<path d="M11 4H9V6H11V4Z" fill="white"/>
<path d="M15 4H13V6H15V4Z" fill="white"/>
<path d="M55 8H47V10H55V8Z" fill="white"/>
<path d="M48.5 39.04C47.9955 38.9619 47.4795 39.0127 47 39.188V30H45V39.179C44.3548 38.9404 43.6453 38.9404 43 39.179V30H41V39.216C40.3571 38.9776 39.6529 38.9619 39 39.171V30.107C39.0188 28.6144 37.9658 27.3225 36.5 27.04C34.8664 26.7639 33.3181 27.8644 33.042 29.498C33.014 29.6639 32.9999 29.8317 33 30V41C32.4076 40.5586 31.7244 40.2546 31 40.11V26H29V53C29.0004 53.1975 29.0587 53.3905 29.168 53.555L33.465 60H35.865L31 52.7V42.171C32.1978 42.5964 32.9985 43.729 33 45V49C33 49.5522 33.4478 50 34 50C34.5523 50 35 49.5522 35 49V30C34.9998 29.4478 35.4473 28.9997 35.9996 28.9996C36.0585 28.9996 36.1171 29.0047 36.175 29.015C36.6743 29.1371 37.019 29.5934 37 30.107V42C37 42.5522 37.4478 43 38 43C38.5523 43 39 42.5522 39 42C39 41.4478 39.4478 41 40 41C40.5523 41 41 41.4478 41 42C41 42.5522 41.4478 43 42 43C42.5523 43 43 42.5522 43 42C43 41.4478 43.4478 41 44 41C44.5523 41 45 41.4478 45 42C45 42.5522 45.4478 43 46 43C46.5523 43 47 42.5522 47 42C46.9998 41.4478 47.4473 40.9998 47.9996 40.9996C48.0585 40.9996 48.1171 41.0047 48.175 41.015C48.6743 41.1371 49.019 41.5934 49 42.107V60H51V42.107C51.0188 40.6144 49.9658 39.3225 48.5 39.04Z" fill="white"/>
</svg>
