<svg width="100" height="100" viewBox="0 0 100 100" fill="none" xmlns="http://www.w3.org/2000/svg">
<path d="M16.7258 13.1348C11.5004 13.1348 7.24883 17.3861 7.24883 22.6117C7.24883 27.8375 11.5002 32.0887 16.7258 32.0887C21.9516 32.0887 26.203 27.8373 26.203 22.6117C26.203 17.3861 21.9516 13.1348 16.7258 13.1348ZM16.726 29.1491C13.1213 29.1491 10.1885 26.2166 10.1885 22.6117C10.1885 19.0068 13.1211 16.0744 16.726 16.0744C20.3309 16.0744 23.2635 19.007 23.2635 22.6117C23.2635 26.2164 20.3307 29.1491 16.726 29.1491Z" fill="#53880B"/>
<path d="M16.726 5.88574C15.9141 5.88574 15.2563 6.54375 15.2563 7.35547V10.3121C15.2563 11.1238 15.9141 11.7818 16.726 11.7818C17.5379 11.7818 18.1957 11.1238 18.1957 10.3121V7.35547C18.1957 6.54375 17.5379 5.88574 16.726 5.88574Z" fill="#53880B"/>
<path d="M28.5534 10.7844C27.9792 10.2106 27.0487 10.2104 26.4745 10.7844L24.3838 12.8751C23.8098 13.4491 23.8098 14.3798 24.3838 14.9536C24.671 15.2407 25.0469 15.3841 25.4233 15.3841C25.7993 15.3841 26.1756 15.2407 26.4627 14.9538L28.5534 12.8632C29.1274 12.2891 29.1274 11.3585 28.5534 10.7844Z" fill="#53880B"/>
<path d="M31.9823 21.1421H29.0258C28.2139 21.1421 27.5561 21.8001 27.5561 22.6118C27.5561 23.4235 28.2139 24.0815 29.0258 24.0815H31.9823C32.7942 24.0815 33.452 23.4235 33.452 22.6118C33.452 21.8001 32.7942 21.1421 31.9823 21.1421Z" fill="#53880B"/>
<path d="M28.5534 32.3601L26.4627 30.2696C25.8883 29.6956 24.9579 29.6956 24.3838 30.2696C23.8098 30.8437 23.8098 31.7743 24.3838 32.3481L26.4745 34.4388C26.7616 34.7257 27.1377 34.8692 27.5139 34.8692C27.8901 34.8692 28.2663 34.7259 28.5534 34.4388C29.1274 33.8648 29.1274 32.9341 28.5534 32.3601Z" fill="#53880B"/>
<path d="M16.726 33.4419C15.9141 33.4419 15.2563 34.0999 15.2563 34.9116V37.8683C15.2563 38.68 15.9141 39.338 16.726 39.338C17.5379 39.338 18.1957 38.68 18.1957 37.8683V34.9116C18.1957 34.0999 17.5379 33.4419 16.726 33.4419Z" fill="#53880B"/>
<path d="M9.06838 30.2696C8.49436 29.6956 7.56389 29.6956 6.98967 30.2696L4.89904 32.3601C4.32482 32.9341 4.32482 33.8648 4.89885 34.4388C5.18596 34.7257 5.56193 34.8692 5.9383 34.8692C6.31428 34.8692 6.69065 34.7259 6.97776 34.4388L9.06838 32.3481C9.64221 31.7741 9.64221 30.8435 9.06838 30.2696Z" fill="#53880B"/>
<path d="M4.42618 21.1421H1.46973C0.657814 21.1421 0 21.8001 0 22.6118C0 23.4235 0.657814 24.0815 1.46973 24.0815H4.42618C5.2381 24.0815 5.89591 23.4235 5.89591 22.6118C5.89591 21.8001 5.2381 21.1421 4.42618 21.1421Z" fill="#53880B"/>
<path d="M9.06838 12.8752L6.97756 10.7845C6.40334 10.2105 5.47287 10.2105 4.89884 10.7845C4.32482 11.3585 4.32482 12.2892 4.89884 12.8632L6.98947 14.9539C7.27658 15.2408 7.65275 15.3841 8.02893 15.3841C8.4049 15.3841 8.78127 15.2408 9.06838 14.9537C9.64221 14.3796 9.64221 13.449 9.06838 12.8752Z" fill="#53880B"/>
<path d="M99.2885 89.2931C96.7267 87.5556 93.7564 86.7686 90.8236 86.9272C88.1164 83.1981 83.0095 80.0012 75.9736 77.645C71.6062 76.1825 66.7322 75.1268 61.5499 74.5001L72.0802 48.0799C73.6691 49.2274 75.0558 50.5903 76.1892 52.132C76.5638 52.6418 77.1417 52.9303 77.7793 52.775C81.2572 52.1444 84.9453 52.5485 88.4488 53.9448C91.9787 55.3516 94.951 57.618 97.0441 60.4989C97.3248 60.885 97.7695 61.1045 98.233 61.1045C98.3506 61.1045 98.4693 61.0905 98.5869 61.0612C99.1678 60.9172 99.6033 60.4352 99.6881 59.8428C99.7436 59.4539 101.016 50.2022 97.9844 40.123C97.7508 39.3457 96.9293 38.9053 96.1537 39.1389C95.3764 39.3727 94.9357 40.1924 95.1697 40.9695C96.9392 46.8531 97.1324 52.542 97.0238 56.0123C94.9262 53.9823 92.3873 52.3498 89.5371 51.2139C86.2968 49.9225 82.9068 49.3735 79.6068 49.5928C79.6318 49.5168 79.6544 49.4426 79.6791 49.367C80.8275 45.8584 81.6839 42.2426 82.1052 38.5721C82.4906 35.2133 82.5265 31.8205 82.1037 28.4635C81.8587 26.5193 81.442 24.5965 80.8439 22.73C80.8396 22.7166 80.8353 22.7021 80.8308 22.6886C86.1047 25.5459 90.1586 29.756 92.9101 35.2441C93.2738 35.9697 94.157 36.2629 94.8826 35.8992C95.6082 35.5355 95.9014 34.6523 95.5377 33.9265C91.8904 26.6519 86.1677 21.4193 78.5238 18.3722C68.0105 14.1826 57.0683 15.5607 46.8819 22.3578C39.278 27.4314 34.8255 33.6545 34.6395 33.9168C34.2936 34.4051 34.2786 35.0543 34.601 35.5582C34.9235 36.0621 35.5184 36.3205 36.1077 36.2109C39.6091 35.5599 43.3255 35.9594 46.8552 37.3662C50.3337 38.7527 53.271 40.9738 55.3593 43.7953C55.7655 44.3441 56.3581 44.6817 57.0536 44.475C58.9202 44.1441 60.8462 44.1113 62.7712 44.3688L51.0284 73.8327C50.7321 73.8301 50.4368 73.8249 50.1395 73.8249C43.3653 73.8249 36.8913 74.4997 30.8973 75.8305C30.1049 76.0065 29.6051 76.7915 29.7813 77.5841C29.9573 78.3764 30.7409 78.8764 31.5346 78.7003C37.2382 77.4339 43.6718 76.7645 50.1395 76.7645C53.2052 76.7645 56.2728 76.9102 59.3236 77.2133C59.3345 77.2143 59.3452 77.2141 59.3564 77.2149C65.0296 77.7774 70.3466 78.86 75.0398 80.4319C80.6425 82.3083 84.9681 84.7809 87.5068 87.5214C86.2259 87.9192 84.9871 88.5091 83.8314 89.2927C80.139 91.7968 75.3673 91.7968 71.6747 89.2927C66.9796 86.1085 60.9124 86.1087 56.2179 89.2927C52.5255 91.7968 47.7538 91.7968 44.0612 89.2927C39.3663 86.1085 33.2991 86.1087 28.6044 89.2927C24.912 91.7968 20.1403 91.7968 16.4477 89.2927C15.2922 88.5091 14.0533 87.919 12.7725 87.5214C15.3078 84.7849 19.6256 82.3149 25.2172 80.4395C25.9868 80.1815 26.4014 79.3483 26.1434 78.5786C25.8854 77.8091 25.0526 77.3942 24.2827 77.6524C17.259 80.0079 12.16 83.2022 9.45588 86.9268C6.52286 86.7682 3.55274 87.5556 0.991018 89.2927C0.319142 89.7483 0.143946 90.6622 0.599611 91.3341C1.05508 92.006 1.96836 92.1814 2.64102 91.7257C4.82267 90.2462 7.38127 89.6413 9.87131 89.9102C9.96076 89.9296 10.051 89.9419 10.1416 89.944C11.7721 90.162 13.3662 90.7548 14.7981 91.7259C19.4926 94.9097 25.5596 94.9101 30.2547 91.7259C33.9475 89.2216 38.7194 89.2218 42.4116 91.7259C47.1063 94.9097 53.1733 94.9101 57.8683 91.7259C61.5609 89.2216 66.3327 89.2218 70.0251 91.7259C72.3726 93.3179 75.063 94.114 77.7537 94.114C80.4441 94.114 83.1345 93.3179 85.4822 91.7259C86.9107 90.7571 88.501 90.1647 90.1277 89.9456C90.224 89.9438 90.3199 89.9308 90.4152 89.9097C92.9033 89.6425 95.4594 90.2474 97.6391 91.7257C98.3109 92.1814 99.225 92.0061 99.6805 91.3341C100.135 90.6628 99.9602 89.7487 99.2885 89.2931ZM59.048 41.2896C59.0636 41.2564 59.0798 41.2236 59.0956 41.1904C60.4648 38.3244 62.0618 35.5541 63.9249 32.9795C64.3804 32.3502 64.2499 31.4004 63.596 30.9271C62.9564 30.464 62.0054 30.6178 61.5435 31.2562C60.0476 33.3232 58.7185 35.5109 57.5257 37.7658C57.0948 38.5807 56.6571 39.4053 56.2876 40.2504C56.2812 40.2641 56.2743 40.2777 56.2679 40.2914C54.0226 37.8615 51.1849 35.9281 47.9436 34.6367C45.0927 33.5004 42.1255 32.9392 39.2063 32.9697C41.1686 30.7629 44.3921 27.5414 48.5882 24.7543C52.7487 21.9906 57.0433 20.1865 61.3519 19.3921C65.5204 18.6238 69.7267 18.8041 73.9005 19.9254C73.8837 19.9345 73.8658 19.9447 73.849 19.9539C71.591 21.1931 69.4974 22.7222 67.5966 24.4584C66.8552 25.1355 66.132 25.8316 65.439 26.558C64.8788 27.1455 64.9009 28.076 65.4884 28.6361C66.0759 29.1963 67.0062 29.1742 67.5665 28.5867C69.4505 26.6105 71.5779 24.8033 73.9001 23.3422C74.9705 22.6685 76.0876 22.0599 77.2542 21.5693C77.5607 22.2644 77.9593 23.2935 78.3337 24.6414C80.106 31.026 79.6271 37.9158 78.0736 44.2914C77.7394 45.6625 77.3533 47.0217 76.9154 48.3631C76.9109 48.377 76.906 48.3912 76.9015 48.4053C74.9015 46.2893 72.4455 44.5615 69.6648 43.318C69.6267 43.301 69.5886 43.284 69.5505 43.2672C66.2618 41.8156 62.6427 41.0912 59.048 41.2896ZM58.511 74.1837C57.8296 74.1247 57.1435 74.0743 56.4534 74.0298C55.6907 73.9774 54.9267 73.9389 54.1628 73.9079L65.6902 44.9861C66.3878 45.1859 67.0745 45.4236 67.747 45.6957C67.8562 45.74 69.5404 46.5115 69.5372 46.5193L58.511 74.1837Z" fill="#53880B"/>
</svg>
