<svg width="30" height="30" viewBox="0 0 30 30" fill="none" xmlns="http://www.w3.org/2000/svg">
<path d="M22.5 0H7.5C6.6716 0 6 0.671543 6 1.5V28.5C6 29.3284 6.67154 30 7.5 30H22.5C23.3284 30 24 29.3285 24 28.5V1.5C24 0.671543 23.3284 0 22.5 0ZM23 4.00002H11.5C11.2239 4.00002 11 4.22385 11 4.5C11 4.77615 11.2239 4.99998 11.5 4.99998H23V24.5H21.5C21.2239 24.5 21.0001 24.7238 21.0001 25C21.0001 25.2761 21.2239 25.4999 21.5 25.4999H23V28.4999C23 28.7761 22.7762 28.9999 22.5001 28.9999H7.5C7.22385 28.9999 7.00002 28.7761 7.00002 28.4999V25.4999H18.5C18.7762 25.4999 19 25.2761 19 25C19 24.7238 18.7762 24.5 18.5 24.5H7.00002V4.99998H8.50002C8.77617 4.99998 9 4.77615 9 4.5C9 4.22385 8.77617 4.00002 8.50002 4.00002H7.00002V1.5C7.00002 1.22385 7.22385 1.00002 7.5 1.00002H22.5C22.7762 1.00002 23 1.22385 23 1.5V4.00002Z" fill="#E0E0E0"/>
<path d="M15.5 26.9999H14.5C14.2238 26.9999 14 27.2238 14 27.4999C14 27.7761 14.2238 27.9999 14.5 27.9999H15.5C15.7762 27.9999 16 27.7761 16 27.4999C16 27.2238 15.7762 26.9999 15.5 26.9999Z" fill="#E0E0E0"/>
<path d="M10.1418 8.15253L9.0028 8.83503C8.58386 9.08195 8.27688 9.48161 8.14628 9.95001C7.71725 11.5145 8.02229 14.196 11.9138 18.087C14.9948 21.1675 17.3173 22 18.9278 22C19.3071 22.0016 19.6847 21.9523 20.0508 21.8535C20.5189 21.7227 20.9181 21.4157 21.1648 20.997L21.8499 19.8585C22.1442 19.3701 22.0018 18.7365 21.5268 18.421L18.7998 16.6055C18.3335 16.2983 17.7096 16.3998 17.3648 16.839L16.5723 17.858C16.5534 17.8842 16.518 17.8926 16.4893 17.8775L16.3393 17.794C15.4723 17.3205 14.6903 16.7055 14.0258 15.9745C13.2948 15.3099 12.6798 14.528 12.2062 13.661L12.1227 13.508C12.1075 13.4795 12.1158 13.4441 12.1423 13.4255L13.1617 12.6325C13.601 12.2878 13.7021 11.6638 13.3942 11.198L11.5792 8.47498C11.2632 8.00089 10.6302 7.85892 10.1418 8.15253ZM10.7468 9.03003L11.7338 10.511L12.5618 11.7501C12.5812 11.7798 12.5749 11.8193 12.5473 11.8416L11.5278 12.6341C11.1098 12.9545 10.9909 13.5334 11.2488 13.9926L11.3278 14.1376C11.8454 15.0897 12.5181 15.9488 13.3183 16.6796C14.0491 17.4798 14.9082 18.1525 15.8603 18.67L16.0048 18.749C16.4641 19.0068 17.0431 18.8879 17.3638 18.47L18.1563 17.451C18.1782 17.4233 18.2176 17.4168 18.2473 17.436L20.9692 19.2505C20.9996 19.2704 21.0087 19.3109 20.9898 19.342L20.3072 20.48C20.1926 20.6779 20.006 20.8237 19.7862 20.887C18.7132 21.182 16.3593 21.118 12.6207 17.379C8.88175 13.6405 8.81671 11.285 9.11073 10.2135C9.17407 9.99378 9.31991 9.8071 9.51773 9.69249L10.6557 9.00999C10.6662 9.00337 10.6784 8.99992 10.6907 8.99997C10.7133 9.00009 10.7343 9.01134 10.7468 9.03003Z" fill="#E0E0E0"/>
</svg>
