<svg width="45" height="45" viewBox="0 0 45 45" fill="none" xmlns="http://www.w3.org/2000/svg">
<path d="M22.5 19.5C25.395 19.5 27.75 17.1442 27.75 14.25C27.75 11.3557 25.395 9 22.5 9C19.605 9 17.25 11.3557 17.25 14.25C17.25 17.1442 19.605 19.5 22.5 19.5ZM22.5 10.5C24.5677 10.5 26.25 12.1822 26.25 14.25C26.25 16.3177 24.5677 18 22.5 18C20.4323 18 18.75 16.3177 18.75 14.25C18.75 12.1822 20.4323 10.5 22.5 10.5Z" fill="#E0E0E0"/>
<path d="M22.3672 41.0677L33.8729 24.45C38.1884 18.6967 37.5644 9.24 32.5372 4.2135C29.8207 1.49625 26.2087 0 22.3672 0C18.5257 0 14.9137 1.49625 12.1972 4.21275C7.1699 9.23925 6.5459 18.696 10.8442 24.4268L22.3672 41.0677ZM13.2577 5.27325C15.6914 2.84025 18.9262 1.5 22.3672 1.5C25.8082 1.5 29.0429 2.84025 31.4767 5.27325C36.0142 9.81 36.5729 18.351 32.6564 23.5725L22.3672 38.4323L12.0614 23.55C8.1614 18.351 8.7209 9.81 13.2577 5.27325Z" fill="#E0E0E0"/>
<path d="M31.5877 32.2549C31.1753 32.2046 30.8032 32.5001 30.7552 32.9119C30.7073 33.3236 31.0012 33.6964 31.4123 33.7444C39.2992 34.6729 43.5 37.1749 43.5 38.6246C43.5 40.6601 35.511 43.4996 22.5 43.4996C9.489 43.4996 1.5 40.6601 1.5 38.6246C1.5 37.1749 5.70075 34.6729 13.5878 33.7444C13.9988 33.6964 14.2928 33.3229 14.2448 32.9119C14.196 32.5001 13.824 32.2031 13.4122 32.2549C5.5155 33.1849 0 35.8039 0 38.6246C0 41.7926 7.72875 44.9996 22.5 44.9996C37.2712 44.9996 45 41.7926 45 38.6246C45 35.8039 39.4845 33.1849 31.5877 32.2549Z" fill="#E0E0E0"/>
</svg>
