<?xml version="1.0" standalone="no"?>
<!DOCTYPE svg PUBLIC "-//W3C//DTD SVG 1.1//EN" "http://www.w3.org/Graphics/SVG/1.1/DTD/svg11.dtd" >
<svg xmlns="http://www.w3.org/2000/svg" xmlns:xlink="http://www.w3.org/1999/xlink" version="1.1">
<metadata>
Created by FontForge 20170910 at Sat Dec 10 00:59:38 1927
 By Jimmy Wärting
Copyleft (c) by DNK
</metadata>
<defs>
<font id="TimesNRCyrMT" horiz-adv-x="1024" >
  <font-face 
    font-family="Times New Roman"
    font-weight="400"
    font-stretch="normal"
    units-per-em="2048"
    panose-1="2 2 6 3 5 4 5 2 3 4"
    ascent="1638"
    descent="-410"
    x-height="950"
    cap-height="1406"
    bbox="-149 -456 2225 1825"
    underline-thickness="102"
    underline-position="-256"
    unicode-range="U+0020-F13F"
  />
<missing-glyph horiz-adv-x="1825" 
d="M114 0v1825h1597v-1825h-1597zM1597 114v1597h-1369v-1597h1369z" />
    <glyph glyph-name=".notdef" horiz-adv-x="1825" 
d="M114 0v1825h1597v-1825h-1597zM1597 114v1597h-1369v-1597h1369z" />
    <glyph glyph-name=".null" horiz-adv-x="0" 
 />
    <glyph glyph-name="nonmarkingreturn" horiz-adv-x="512" 
 />
    <glyph glyph-name="space" unicode=" " horiz-adv-x="512" 
 />
    <glyph glyph-name="exclam" unicode="!" horiz-adv-x="555" 
d="M265 370l-86 818l-8 101q0 54 30 101.5t85 47.5q51 0 84 -42.5t33 -107.5q0 -39 -10 -108l-92 -810h-36zM282 198q42 0 77 -33.5t35 -79.5q0 -44 -34 -78.5t-78 -34.5q-43 0 -79 33q-34 34 -34 80q0 43 33 78t80 35z" />
    <glyph glyph-name="quotedbl" unicode="&#x22;" horiz-adv-x="831" 
d="M209 854l-55 295q-22 138 -22 166q0 123 97 123q40 0 71.5 -29.5t31.5 -77.5q0 -23 -5 -59.5t-9.5 -63t-11.5 -59.5l-54 -295h-43zM575 854l-54 292q-24 128 -24 170q0 122 102 122q44 0 72 -32.5t28 -73.5q0 -94 -19 -186l-57 -292h-48z" />
    <glyph glyph-name="numbersign" unicode="#" horiz-adv-x="1366" 
d="M89 1016h322l85 407h124l-84 -407h421l86 407h121l-84 -407h197v-120h-222l-77 -370h299v-122h-324l-84 -404h-124l85 404h-422l-83 -404h-124l85 404h-197v122h221l76 370h-297v120zM511 896l-78 -370h422l76 370h-420z" />
    <glyph glyph-name="dollar" unicode="$" 
d="M470 1493h63v-64q75 0 167 -24q75 -21 169 -63v-310h-38q0 146 -86 230.5t-212 99.5v-526l130 -83q60 -38 100.5 -70.5t69.5 -64.5q50 -54 75 -121t25 -134q0 -133 -99 -250q-52 -58 -128 -93q-37 -16 -80.5 -25t-92.5 -9v-130h-63v130q-98 0 -184.5 20t-179.5 60v294h39
q18 -146 115 -228q48 -39 101 -64l53 -16q27 -6 56 -6v615q-364 196 -364 435q0 125 93 219.5t271 113.5v64zM470 876v487q-93 -9 -151.5 -70.5t-58.5 -139.5q0 -136 210 -277zM533 622v-574q109 15 180.5 87.5t71.5 168.5q0 82 -50 151t-202 167z" />
    <glyph glyph-name="percent" unicode="%" horiz-adv-x="1685" 
d="M1286 1436h89l-979 -1493h-88zM42 1071q0 151 78.5 254.5t186.5 103.5q111 0 190 -100.5t79 -260.5q0 -164 -78.5 -265t-184.5 -101q-114 0 -192.5 103.5t-78.5 265.5zM161 1069q0 -167 37.5 -250.5t112.5 -83.5q72 0 109.5 82t37.5 242q0 86 -9 151.5t-29 104.5
q-36 85 -113 85q-69 0 -107.5 -82.5t-38.5 -248.5zM1110 357q0 165 81 261t184 96q111 0 190 -100.5t79 -259.5q0 -172 -84 -269t-179 -97q-102 0 -186.5 95.5t-84.5 273.5zM1228 354q0 -166 37.5 -249.5t112.5 -83.5q70 0 109 81.5t39 242.5q0 172 -36.5 256t-114.5 84
q-68 0 -107.5 -84t-39.5 -247z" />
    <glyph glyph-name="ampersand" unicode="&#x26;" horiz-adv-x="1579" 
d="M1473 913v-37q-66 0 -121.5 -38.5t-149.5 -224.5q-76 -149 -179 -287q167 -193 322 -193q63 0 107.5 41.5t59.5 103.5l33 -23q-30 -146 -119.5 -216t-185.5 -70q-98 0 -181 51t-179 150q-207 -201 -462 -201q-147 0 -249 90t-102 231q0 132 93 253t325 248
q-78 156 -78 309q0 147 101 242.5t238 95.5q117 0 195.5 -69.5t78.5 -171.5q0 -228 -315 -372q84 -172 268 -437q163 196 163 371q0 107 -95 117v37h432zM672 889q227 111 227 296q0 87 -42.5 135.5t-110.5 48.5q-72 0 -111 -49t-39 -145q0 -147 76 -286zM827 226
q-144 168 -312 492q-235 -116 -235 -342q0 -53 18.5 -102t58.5 -91q77 -84 182 -84q157 0 288 127z" />
    <glyph glyph-name="quotesingle" unicode="'" horiz-adv-x="363" 
d="M158 853l-54 296q-23 132 -23 160q0 129 97 129q48 0 76 -31q14 -15 21 -35t7 -39q0 -18 -6 -59l-9 -62q-1 -11 -3.5 -27t-7.5 -36l-54 -296h-44z" />
    <glyph glyph-name="parenleft" unicode="(" horiz-adv-x="682" 
d="M650 1469v-35q-364 -208 -364 -912q0 -714 364 -916v-38q-558 314 -558 952q0 335 155.5 579.5t402.5 369.5z" />
    <glyph glyph-name="parenright" unicode=")" horiz-adv-x="682" 
d="M32 -432v38q364 208 364 909q0 367 -87 585.5t-277 329.5v39q558 -314 558 -952q0 -156 -37 -298.5t-112 -269.5q-147 -254 -409 -381z" />
    <glyph glyph-name="asterisk" unicode="*" 
d="M500 1087q0 55 -33.5 151t-33.5 145q0 32 24 63t57 31q36 0 59 -29t23 -64q0 -11 -0.5 -23t-3.5 -33.5t-16 -54.5q-21 -70 -32 -117t-11 -69q48 31 121 111q86 97 152 97q27 0 50 -23q24 -21 24 -52q0 -80 -177 -122q-111 -24 -152 -43q21 -15 131.5 -40.5t151.5 -54.5
q44 -27 44 -75q0 -30 -21.5 -51.5t-48.5 -21.5q-63 0 -161 102q-71 78 -114 106q0 -56 30 -151q16 -49 23.5 -80.5t7.5 -52.5q0 -41 -23 -71q-21 -30 -56 -30q-30 0 -59 30q-23 31 -23 68q0 45 34 143l25 83l6 30l2 31q-42 -21 -132 -120q-82 -88 -144 -88q-28 0 -55 21
q-23 21 -23 50q0 48 42 75t192 63q64 14 93 34q-31 17 -129 40q-139 30 -168.5 62t-29.5 65q0 29 24 52q24 21 52 21q61 0 135 -77q103 -107 143 -131z" />
    <glyph glyph-name="plus" unicode="+" horiz-adv-x="1366" 
d="M140 767h478v479h129v-479h480v-129h-480v-476h-129v476h-478v129z" />
    <glyph glyph-name="comma" unicode="," horiz-adv-x="555" 
d="M128 -303q224 87 224 262q0 21 -7 31t-24 10q-8 0 -27 -10q-33 -18 -56 -18q-42 0 -77 33q-32 34 -32 77q0 51 38 86.5t92 35.5q75 0 120 -61q20 -29 33 -66t13 -80q0 -234 -297 -339v39z" />
    <glyph glyph-name="hyphen" unicode="-" horiz-adv-x="682" 
d="M87 557h508v-161h-508v161z" />
    <glyph glyph-name="period" unicode="." horiz-adv-x="555" 
d="M277 199q25 0 42.5 -6.5t36.5 -25.5q35 -32 35 -81q0 -47 -33.5 -80.5t-80.5 -33.5q-41 0 -80 33q-33 33 -33 81q0 45 33 79t80 34z" />
    <glyph glyph-name="slash" unicode="/" horiz-adv-x="575" 
d="M439 1469h136l-439 -1500h-136z" />
    <glyph glyph-name="zero" unicode="0" 
d="M66 713q0 328 138 522t298 194q195 0 324.5 -204.5t129.5 -518.5q0 -356 -142 -543t-290 -187q-117 0 -225 87t-170.5 249.5t-62.5 400.5zM264 715q0 -333 63 -503.5t190 -170.5q108 0 175 154q33 78 50 202t17 296q0 336 -63 506.5t-190 170.5q-117 0 -179.5 -164.5
t-62.5 -490.5z" />
    <glyph glyph-name="one" unicode="1" 
d="M237 1264l332 165h38v-1224q0 -96 36 -132t136 -36v-37h-523v37q102 0 139 36t37 132v852q0 32 -1 57.5t-2 49.5q0 19 -3 33.5t-8 26.5q-14 39 -60 39q-26 0 -49.5 -7t-52.5 -25z" />
    <glyph glyph-name="two" unicode="2" 
d="M99 1046q77 383 399 383q167 0 276.5 -115t109.5 -254l-3 -63q-1 -14 -4 -29.5t-7 -31.5q-12 -57 -45 -123q-57 -118 -229 -314q-80 -91 -171 -184q-81 -82 -172 -164h409q142 0 192 28.5t78 82.5h39l-100 -262h-813v37q266 233 416 416q146 179 193.5 289t47.5 223
q0 141 -93.5 222t-199.5 81q-186 0 -284 -222h-39z" />
    <glyph glyph-name="three" unicode="3" 
d="M140 1129q108 300 364 300q131 0 225 -81t94 -203q0 -153 -183 -315q125 -50 187.5 -143t62.5 -229q0 -214 -160 -348t-397 -134q-215 0 -215 108q0 27 24 51t53 24q44 0 93 -26q151 -74 212 -74q99 0 171.5 80t72.5 206q0 71 -24.5 133.5t-73.5 113.5q-98 103 -275 103
h-29v37q155 27 237 117t82 203q0 99 -68.5 165t-173.5 66q-159 0 -245 -170z" />
    <glyph glyph-name="four" unicode="4" 
d="M683 1429h107v-920h189v-154h-189v-355h-172v355h-572v163zM618 1205l-488 -696h488v696z" />
    <glyph glyph-name="five" unicode="5" 
d="M434 1406h490l-76 -157h-414l-94 -203q284 -51 422 -201.5t138 -345.5q0 -219 -169.5 -371t-380.5 -152q-87 0 -155.5 39t-68.5 97q0 27 21 49t48 22q46 0 108 -41q48 -29 91.5 -45t80.5 -16q105 0 200.5 96.5t95.5 227.5q0 185 -163 326q-79 67 -190 106q-52 17 -115 27
q-27 4 -62.5 7t-65.5 3z" />
    <glyph glyph-name="six" unicode="6" 
d="M927 1429v-40q-198 0 -369.5 -170.5t-243.5 -442.5q33 27 65.5 45t75.5 35q72 27 150 27q141 0 246 -111.5t105 -293.5q0 -207 -120.5 -354.5t-299.5 -147.5q-189 0 -314.5 171.5t-125.5 413.5q0 363 252 624q119 123 265.5 183.5t313.5 60.5zM301 710q-15 -95 -15 -168
q0 -198 72 -350.5t199 -152.5q91 0 156 84.5t65 238.5q0 186 -66.5 308t-194.5 122h-31q-13 -3 -26 -5t-45 -15q-59 -20 -114 -62z" />
    <glyph glyph-name="seven" unicode="7" 
d="M214 1406h731l-452 -1430h-118l414 1270h-414q-148 0 -253 -171l-35 14z" />
    <glyph glyph-name="eight" unicode="8" 
d="M394 716q-162 123 -210 211.5t-48 172.5q0 138 104 233.5t261 95.5q156 0 264 -92.5t108 -207.5q0 -173 -283 -347q171 -132 241 -229q29 -42 53 -102q18 -54 18 -116q0 -150 -112 -254.5t-277 -104.5q-162 0 -278 102.5t-116 246.5q0 99 57 183.5t218 207.5zM539 824
q194 141 194 306q0 117 -61 181t-170 64q-93 0 -157 -61t-64 -154q0 -122 186 -278zM440 679q-170 -144 -170 -336q0 -122 69.5 -214t187.5 -92q98 0 168 66t70 161q0 90 -63.5 169t-176.5 174z" />
    <glyph glyph-name="nine" unicode="9" 
d="M95 19q221 0 391.5 186t227.5 421q-73 -52 -143 -78q-27 -9 -70 -19l-36 -5l-36 -2q-150 0 -252 114.5t-102 305.5q0 201 121.5 344t296.5 143q192 0 316 -167q62 -84 93 -187q7 -24 12 -48.5t10 -56.5t7 -60t2 -64q0 -228 -106.5 -423t-292 -321t-386.5 -126l-28 1
q-13 0 -25 4v38zM729 698l8 80l3 80q0 226 -69.5 367.5t-195.5 141.5q-96 0 -160 -79t-64 -223q0 -93 15 -175t50 -147q65 -131 202 -131q48 0 102 21q32 12 55 26t54 39z" />
    <glyph glyph-name="colon" unicode=":" horiz-adv-x="555" 
d="M278 972q44 0 78.5 -32.5t34.5 -78.5q0 -45 -32.5 -78t-78.5 -33q-43 0 -79 33q-34 34 -34 79q0 42 31.5 76t79.5 34zM279 199q25 0 42.5 -6.5t36.5 -25.5q35 -32 35 -81q0 -47 -33.5 -80.5t-80.5 -33.5q-41 0 -80 33q-33 33 -33 81q0 45 33 79t80 34z" />
    <glyph glyph-name="semicolon" unicode=";" horiz-adv-x="555" 
d="M277 972q48 0 81 -32.5t33 -78.5q0 -41 -33 -79q-34 -32 -79 -32q-47 0 -80 32q-32 34 -32 80q0 45 31.5 77.5t78.5 32.5zM128 -303q224 87 224 262q0 21 -7 31t-24 10q-8 0 -27 -10q-33 -18 -56 -18q-42 0 -77 33q-32 34 -32 77q0 51 38 86.5t92 35.5q75 0 120 -61
q20 -29 33 -66t13 -80q0 -234 -297 -339v39z" />
    <glyph glyph-name="less" unicode="&#x3c;" horiz-adv-x="1366" 
d="M1226 187l-1085 458v116l1085 456v-139l-912 -375l912 -376v-140z" />
    <glyph glyph-name="equal" unicode="=" horiz-adv-x="1366" 
d="M141 1001h1085v-129h-1085v129zM141 533h1085v-129h-1085v129z" />
    <glyph glyph-name="greater" unicode="&#x3e;" horiz-adv-x="1366" 
d="M141 1217l1085 -457v-116l-1085 -457v140l912 374l-912 376v140z" />
    <glyph glyph-name="question" unicode="?" horiz-adv-x="789" 
d="M410 334h-38l-2 59q0 146 78 320q70 155 90 218.5t20 148.5q0 135 -63.5 215t-154.5 80q-60 0 -111.5 -42.5t-51.5 -94.5q0 -22 32 -82l24 -53q2 -6 4.5 -18t3.5 -18q0 -28 -23.5 -56t-51.5 -28q-49 0 -84.5 47t-35.5 105q0 135 109.5 219t243.5 84q79 0 135 -23
q58 -21 112 -72q100 -95 100 -226q0 -92 -36 -174.5t-144 -217.5q-90 -111 -123 -187.5t-33 -189.5v-14zM399 198q42 0 77 -33.5t35 -79.5q0 -41 -33 -80q-33 -33 -79 -33q-43 0 -79 33q-34 34 -34 80q0 44 33.5 78.5t79.5 34.5z" />
    <glyph glyph-name="at" unicode="@" horiz-adv-x="1878" 
d="M1408 973l-117 -399q-93 -318 -93 -381q0 -28 20 -51.5t54 -23.5q81 0 184 81t172 240t69 332q0 262 -181 438.5t-467 176.5q-378 0 -618 -288.5t-240 -664.5q0 -355 220.5 -577t562.5 -222q290 0 494 154t310 399h58q-84 -272 -326 -442.5t-541 -170.5
q-369 0 -620.5 252.5t-251.5 633.5q0 415 278.5 696.5t665.5 281.5q328 0 522 -195.5t194 -490.5q0 -279 -156.5 -492.5t-395.5 -213.5q-75 0 -114 33t-39 103q0 53 18 148q-230 -285 -394 -285q-81 0 -132 72q-22 35 -36 75q-3 9 -8 34t-5 51q0 139 86.5 308.5t222 281.5
t242.5 112q69 0 113 -35q38 -29 59 -103l33 110zM1058 932q-127 0 -266 -236.5t-139 -388.5q0 -53 32 -97t83 -44q96 0 209 122t159 271q22 73 34 131.5t12 98.5q0 56 -33.5 99.5t-90.5 43.5z" />
    <glyph glyph-name="A" unicode="A" horiz-adv-x="1579" 
d="M795 1469l556 -1282q36 -84 73 -118q37 -32 124 -32v-37h-577v37q148 0 148 99q0 30 -28 95l-106 243h-567l-126 -287l-8 -27l-3 -29q0 -94 151 -94v-37h-406v37q61 6 98.5 42t91.5 157l541 1233h38zM702 1123l-250 -573h500z" />
    <glyph glyph-name="B" unicode="B" horiz-adv-x="1366" 
d="M961 722q149 -27 235 -126q39 -45 61 -101.5t22 -116.5q0 -124 -72.5 -212.5t-184.5 -127t-289 -38.5h-645v37q86 0 132 24t59 61t13 151v861q0 125 -14 156q-12 32 -57 56l-23 8l-32 9q-32 6 -78 6v37h564q301 0 432.5 -110.5t131.5 -264.5q0 -106 -66.5 -191.5
t-188.5 -117.5zM514 1327v-549q56 -10 103.5 -16t71.5 -6q108 0 199.5 76.5t91.5 206.5q0 131 -98.5 216t-238.5 85l-63 -3q-37 -4 -39 -4q-18 -5 -27 -6zM514 682v-583q83 -27 170 -27q156 0 246 87t90 215q0 147 -114.5 231t-296.5 84q-30 0 -46 -1t-49 -6z" />
    <glyph glyph-name="C" unicode="C" horiz-adv-x="1473" 
d="M1360 1439l33 -476h-33q-39 206 -182 304t-308 98q-226 0 -376 -169t-150 -516q0 -304 163 -463t394 -159q172 0 300.5 85.5t191.5 191.5l31 -20q-205 -346 -597 -346q-308 0 -526 207.5t-218 507.5q0 315 222.5 534.5t544.5 219.5q175 0 339 -76q42 -16 57 -16
q45 0 77 93h37z" />
    <glyph glyph-name="D" unicode="D" horiz-adv-x="1685" 
d="M66 1369v37h644q231 0 354.5 -23t251 -111t208 -242t80.5 -326q0 -86 -18.5 -163.5t-58.5 -151.5q-75 -143 -212 -236q-133 -89 -274 -122q-31 -7 -67.5 -12.5t-102 -12t-153.5 -6.5h-652v37q98 0 139 23t56 60q12 36 12 153v861q0 120 -12.5 155.5t-57.5 56.5l-24 8
l-40 10q-27 5 -73 5zM495 1297v-1195q93 -30 221 -30q286 0 457 169.5t171 450.5q0 288 -177 465q-85 85 -197 130t-245 45q-128 0 -230 -35z" />
    <glyph glyph-name="E" unicode="E" horiz-adv-x="1366" 
d="M1189 1406l18 -310h-36q-12 93 -53 144q-39 53 -86 69q-24 8 -54 12t-75 4h-405v-543h362q184 0 184 205h37v-495h-37q0 124 -48.5 166.5t-144.5 42.5h-353v-509q0 -69 23 -91q25 -20 91 -20h291q140 0 217.5 56.5t160.5 213.5h39l-113 -351h-1133v37q91 0 133.5 23
t56.5 60q12 36 12 153v861q0 125 -14 156q-12 32 -56 56l-23 8l-32 9q-32 6 -77 6v37h1115z" />
    <glyph glyph-name="F" unicode="F" horiz-adv-x="1366" 
d="M1283 1406l14 -303h-38q-12 87 -51 138t-107 75q-29 8 -81.5 15t-118.5 7h-392v-553h318q129 0 177.5 33.5t48.5 163.5h37v-481h-37q0 115 -45.5 157t-180.5 42h-318v-427q0 -123 11.5 -154.5t54.5 -56.5q18 -10 55 -19q33 -6 78 -6v-37h-620v37q85 0 126.5 23.5
t58.5 59.5q12 35 12 153v861q0 121 -13 154q-12 35 -55 57l-23 8l-31 8l-36 6l-39 2v37h1195z" />
    <glyph glyph-name="G" unicode="G" horiz-adv-x="1685" 
d="M1433 1438l37 -448h-37q-48 176 -200 274t-321 98q-237 0 -401.5 -175t-164.5 -484q0 -287 177.5 -472t422.5 -185q19 0 37.5 1t45 5t34.5 7l40 13q83 26 154 77v330q0 125 -10.5 157t-53.5 56q-18 10 -54 19l-34 6l-42 2v36h603v-36q-46 0 -73.5 -6.5t-50.5 -22.5
q-39 -24 -51 -68q-5 -20 -8 -56t-3 -87v-362q-187 -99 -310.5 -123.5t-245.5 -24.5q-263 0 -443 93t-286.5 253t-106.5 344q0 220 122.5 415.5t317.5 279.5t369 84q96 0 185 -18.5t175 -58.5q43 -20 71 -20q54 0 67 97h38z" />
    <glyph glyph-name="H" unicode="H" horiz-adv-x="1685" 
d="M496 679v-406q0 -113 12 -154q11 -30 57 -59q46 -23 138 -23v-37h-631v37q86 0 132 24t58 59.5t12 152.5v861q0 125 -14 156q-12 32 -56 56l-23 8l-32 9q-32 6 -77 6v37h631v-37q-88 0 -135 -22q-42 -18 -58 -56q-14 -37 -14 -157v-369h692v369q0 125 -14 156
q-12 36 -57 57q-19 8 -56 15q-19 3 -39 5t-44 2v37h636v-37q-86 0 -133 -22q-42 -18 -56.5 -55.5t-14.5 -157.5v-861q0 -114 12 -150.5t56.5 -61t135.5 -24.5v-37h-636v37h12l37 1q8 0 19 1t23 4q25 3 48 16q44 21 58 60q13 42 13 154v406h-692z" />
    <glyph glyph-name="I" unicode="I" horiz-adv-x="789" 
d="M71 1369v37h647v-37q-97 0 -138.5 -20t-59.5 -58q-14 -37 -14 -157v-861q0 -115 12 -152t58 -62q16 -7 58 -16q36 -6 84 -6v-37h-647v37q89 0 135 21t63 57q15 36 15 158v861q0 124 -14 156q-12 36 -59.5 57.5t-139.5 21.5z" />
    <glyph glyph-name="J" unicode="J" horiz-adv-x="897" 
d="M214 1369v37h629v-37q-42 0 -75 -6l-28 -7q-16 -3 -27 -10q-38 -18 -56 -56q-13 -46 -13 -156v-635q0 -164 -33 -273t-123 -183t-222 -74q-96 0 -164 42.5t-68 111.5q0 40 30 72t74 32q72 0 120 -96q45 -89 91 -89q39 0 57 48q5 16 8.5 33.5t3.5 43.5l4 143v824
q0 125 -14 156q-12 36 -57 57q-20 8 -54.5 15t-82.5 7z" />
    <glyph glyph-name="K" unicode="K" horiz-adv-x="1685" 
d="M1452 1406v-37q-71 0 -144 -36.5t-234 -208.5q-184 -194 -350 -335l526 -521q132 -131 216 -181t180 -50h29v-37h-726v37q124 0 124 72q0 32 -66 101l-492 487v-424q0 -115 12 -150.5t55 -60.5q21 -9 54 -18l36 -5l42 -2v-37h-633v37h12l37 1q8 0 19 1t23 4q25 3 48 16
q42 21 57 57t15 157v861l-1 54v18v14q-2 10 -2 14l-3 31l-8 26q-12 32 -58 56q-19 8 -56 15q-19 3 -39 5t-44 2v37h643v-37q-93 0 -137 -22q-40 -18 -58 -57q-14 -37 -14 -156v-411q65 50 146 122l190 177q211 203 211 283q0 64 -124 64v37h514z" />
    <glyph glyph-name="L" unicode="L" horiz-adv-x="1366" 
d="M1329 376l-119 -376h-1123v37q90 0 137.5 24t60.5 62t13 150v861q0 121 -14 155q-12 36 -58 57l-24 8l-41 10q-28 5 -74 5v37h632v-37q-48 0 -79 -5t-54 -18q-38 -18 -56 -56q-13 -46 -13 -156v-960q0 -44 18 -64q19 -17 90 -17h263q162 0 246 60t159 235z" />
    <glyph glyph-name="M" unicode="M" horiz-adv-x="2027" 
d="M1512 1406h426v-37q-92 0 -135 -23q-44 -20 -57 -60t-13 -151v-862q0 -123 11.5 -155t56 -56.5t137.5 -24.5v-37h-633v37q92 0 137 23.5t57.5 61.5t12.5 151v907l-545 -1180h-35l-547 1180v-907q0 -123 11.5 -154.5t54.5 -56.5q21 -11 55 -18l35 -5l41 -2v-37h-494v37
q90 0 135 24t57.5 61t12.5 151v853q0 94 -15.5 135.5t-61 68.5t-128.5 39v37h431l499 -1074z" />
    <glyph glyph-name="N" unicode="N" horiz-adv-x="1685" 
d="M1656 1406v-37h-55q-104 0 -137 -34q-15 -15 -22 -56l-5 -47l-2 -61v-1187h-28l-1007 1132v-836q0 -115 18 -158t61 -64l53 -16l32 -4l41 -1v-37h-508v37q94 0 138.5 21.5t59.5 66.5t15 210v871q-94 163 -286 163v37h408l912 -1038v791q0 130 -26 169q-24 41 -125 41h-54
v37h517z" />
    <glyph glyph-name="O" unicode="O" horiz-adv-x="1579" 
d="M1503 706q0 -83 -19 -167t-58 -169q-76 -168 -253 -286q-85 -56 -181 -85.5t-198 -29.5q-287 0 -503 212t-216 523q0 300 208.5 517t504.5 217q294 0 504.5 -214t210.5 -518zM1250 699q0 284 -119.5 471t-344.5 187q-222 0 -340 -182t-118 -468q0 -303 127.5 -481
t335.5 -178q203 0 331 176t128 475z" />
    <glyph glyph-name="P" unicode="P" horiz-adv-x="1237" 
d="M472 673v-400q0 -115 12 -152t58 -62q10 -4 26.5 -8.5t41.5 -9t72 -4.5v-37h-632v37q87 0 129 22t59 60q12 36 12 154v861q0 125 -14 156q-12 32 -56 56l-23 8l-37 10q-20 4 -39.5 4.5t-30.5 0.5v37h599q270 0 409.5 -118t139.5 -277q0 -150 -127 -267t-328 -117
q-124 0 -271 46zM472 1302v-559q55 -20 94 -30l40 -7l39 -3q132 0 216 84q39 40 61 95t22 123q0 147 -94.5 235.5t-227.5 88.5q-69 0 -150 -27z" />
    <glyph glyph-name="Q" unicode="Q" horiz-adv-x="1579" 
d="M975 -10q104 -169 234 -262t283 -93v-37l-43 -1q-73 0 -170.5 24t-224.5 74q-250 98 -466 305q-216 69 -362.5 264.5t-146.5 438.5q0 298 210 516.5t504 218.5q285 0 499.5 -209t214.5 -523q0 -254 -147 -447.5t-385 -268.5zM1255 700q0 298 -123.5 477.5t-341.5 179.5
q-222 0 -339.5 -180.5t-117.5 -469.5q0 -300 126 -479.5t336 -179.5q219 0 339.5 185.5t120.5 466.5z" />
    <glyph glyph-name="R" unicode="R" horiz-adv-x="1579" 
d="M856 680l318 -393q111 -138 181.5 -189.5t162.5 -60.5v-37h-367l-532 660l-34 -2h-47h-30l-22 2v-387q0 -123 11.5 -154.5t54.5 -56.5q21 -9 54 -18l35 -5l42 -2v-37h-614v37q78 0 126 24q38 17 56 57q13 46 13 155v861q0 118 -10 147q-9 33 -50 59l-49 20l-27 6l-34 2
l-25 1v37h645q259 0 379 -110.5t120 -255.5q0 -267 -357 -360zM486 1298v-569q474 0 474 304q0 120 -88 211t-228 91q-75 0 -158 -37z" />
    <glyph glyph-name="S" unicode="S" horiz-adv-x="1131" 
d="M943 1436v-465h-38q-21 162 -126 273t-249 111q-104 0 -174.5 -61t-70.5 -145q0 -63 42 -119.5t231 -165.5l61 -35l54 -33l107 -68q102 -66 174 -158.5t72 -212.5q0 -172 -136 -280t-297 -108q-56 0 -128.5 15t-167.5 47q-38 12 -65 12q-50 0 -83 -74h-38v474h38
q42 -203 155 -298t249 -95q120 0 195 63q38 32 57 72t19 88q0 82 -65 163.5t-283 204t-295 211.5t-77 222q0 153 115 258.5t283 105.5q92 0 253 -60q48 -16 70 -16q49 0 80 74h38z" />
    <glyph glyph-name="T" unicode="T" horiz-adv-x="1366" 
d="M62 1406h1238l20 -318h-40q-18 139 -92 184t-207 45h-189v-1044q0 -123 11.5 -155t56 -56.5t138.5 -24.5v-37h-631v37q91 0 133.5 22.5t56.5 61.5q12 38 12 152v1044h-182q-111 0 -161.5 -15t-93.5 -73q-7 -9 -17 -28t-18 -38q-13 -42 -13 -75h-37z" />
    <glyph glyph-name="U" unicode="U" horiz-adv-x="1685" 
d="M65 1369v37h628v-37q-82 0 -123.5 -22.5t-58.5 -60.5l-5 -27l-3 -28l-1 -53v-17v-13q-2 -10 -2 -14v-624q0 -137 10 -194.5t57 -120.5t131.5 -101t198.5 -38q158 0 261.5 60.5t142.5 166.5t39 280v571q0 125 -14 156q-12 37 -59 58t-137 21v37h516v-37q-97 0 -145 -21
q-41 -20 -59 -58q-13 -46 -13 -156v-571q0 -183 -45 -304.5t-184 -205.5t-324 -84q-160 0 -284 42t-191 115t-95 167t-28 225v616l-1 54v18v14q-2 10 -2 14l-3 31l-8 26q-12 32 -59 56q-19 8 -56 15q-18 3 -39 5t-45 2z" />
    <glyph glyph-name="V" unicode="V" horiz-adv-x="1473" 
d="M26 1406h597v-37q-103 0 -129 -26t-26 -66t47 -155l316 -779l297 789q40 114 40 137q0 100 -145 100v37h428v-37q-75 0 -133 -73t-124 -247l-409 -1080h-38l-466 1153q-59 151 -107 195q-22 22 -59.5 37t-88.5 15v37z" />
    <glyph glyph-name="W" unicode="W" horiz-adv-x="2027" 
d="M17 1406h538v-37q-125 0 -125 -92q0 -14 1 -21t7 -28l12 -44l18 -50l279 -764l226 628l-72 186q-45 119 -81 150q-16 14 -47.5 24.5t-66.5 10.5v37h558v-37q-68 0 -103 -26t-35 -72q0 -61 34 -151l287 -750l271 764q37 114 37 142q0 93 -148 93v37h408v-37
q-63 0 -111 -54q-37 -43 -98 -204l-402 -1142h-40l-342 901l-327 -901h-34l-439 1196q-48 128 -82 167q-18 18 -49 27l-34 7l-40 3v37z" />
    <glyph glyph-name="X" unicode="X" horiz-adv-x="1579" 
d="M28 1406h659v-37q-142 0 -142 -79q0 -37 47 -102l239 -331l288 348q39 47 39 84q0 80 -140 80v37h485v-37q-69 0 -114 -21.5t-81 -58.5l-68 -75l-130 -152l-227 -278l316 -439q154 -211 210.5 -259.5t143.5 -48.5v-37h-624v37q137 0 137 75q0 43 -53 114l-23 31l-254 353
l-334 -402q-48 -59 -48 -94q0 -77 135 -77v-37h-461v37q66 0 131 46t160 158l368 441l-324 445q-111 155 -176.5 198.5t-158.5 43.5v37z" />
    <glyph glyph-name="Y" unicode="Y" horiz-adv-x="1579" 
d="M1551 1406v-37q-96 0 -159.5 -48.5t-163.5 -202.5l-330 -515v-328q0 -122 12 -158.5t57.5 -58t147.5 -21.5v-37h-653v37q93 0 138.5 21t62.5 57q15 36 15 160v316l-385 572q-110 162 -149 184q-17 9 -48.5 15.5t-73.5 6.5v37h623v-37q-161 0 -161 -57q0 -46 68 -149
l308 -465l268 420q97 155 97 192q0 59 -138 59h-12v37h476z" />
    <glyph glyph-name="Z" unicode="Z" horiz-adv-x="1366" 
d="M195 1406h1113l-957 -1319h594q148 0 217.5 44.5t129.5 243.5h33l-70 -375h-1211v37l932 1287h-460q-199 0 -247.5 -65.5t-65.5 -199.5h-37z" />
    <glyph glyph-name="bracketleft" unicode="[" horiz-adv-x="555" 
d="M526 1442v-88h-244v-1671h244v-90h-405v1849h405z" />
    <glyph glyph-name="backslash" unicode="\" horiz-adv-x="575" 
d="M136 1469l439 -1500h-136l-439 1500h136z" />
    <glyph glyph-name="bracketright" unicode="]" horiz-adv-x="555" 
d="M29 -407v88h244v1671h-244v90h405v-1849h-405z" />
    <glyph glyph-name="asciicircum" unicode="^" horiz-adv-x="1194" 
d="M149 688l411 718h82l404 -718h-159l-295 512l-290 -512h-153z" />
    <glyph glyph-name="underscore" unicode="_" 
d="M-12 -154h1048v-102h-1048v102z" />
    <glyph glyph-name="grave" unicode="`" horiz-adv-x="682" 
d="M508 1125h-35l-299 344h228z" />
    <glyph glyph-name="a" unicode="a" 
d="M989 179v-52q-123 -155 -230 -155q-130 0 -130 172q-43 -41 -88 -76q-33 -24 -85 -53q-38 -19 -82 -32q-17 -5 -38 -8t-41 -3q-89 0 -151 69.5t-62 162.5q0 126 124 220q60 44 168 94q100 46 255 100q0 145 -10 194q-6 51 -46 84.5t-128 33.5q-66 0 -112 -37t-46 -100
l2 -33l1 -26q0 -86 -80 -86q-89 0 -89 85q0 97 99.5 168t264.5 71q124 0 195 -33.5t93 -94.5q8 -25 15 -72t7 -106v-476q0 -97 60 -97q57 0 134 86zM629 190v373q-225 -92 -300.5 -154t-75.5 -153q0 -67 45.5 -117t110.5 -50q51 0 105.5 24.5t114.5 76.5z" />
    <glyph glyph-name="b" unicode="b" horiz-adv-x="1131" 
d="M44 1350l287 119h36v-684q62 90 140 138.5t169 48.5q153 0 268 -133t115 -329q0 -231 -153.5 -384.5t-354.5 -153.5q-82 0 -169 29.5t-181 93.5v1045q0 106 -20 145t-78 39q-17 0 -46 -9zM367 724v-574q47 -50 107 -83q62 -28 120 -28q129 0 210 123t81 277
q0 152 -81.5 270.5t-217.5 118.5q-61 0 -111.5 -25t-107.5 -79z" />
    <glyph glyph-name="c" unicode="c" horiz-adv-x="897" 
d="M874 354q-18 -79 -54.5 -146.5t-91.5 -124.5q-108 -111 -253 -111q-189 0 -305 144.5t-116 346.5q0 229 134.5 369t332.5 140q137 0 232.5 -69.5t95.5 -152.5q0 -33 -28 -58q-28 -22 -71 -22q-93 0 -108 101q-9 67 -45.5 103t-110.5 36q-126 0 -198 -102
q-32 -47 -51 -111t-19 -140q0 -187 89 -303.5t241 -116.5q218 0 293 232z" />
    <glyph glyph-name="d" unicode="d" horiz-adv-x="1131" 
d="M602 1343l294 126h35v-1183q0 -105 19.5 -139t67.5 -34q24 0 62 15l14 -35l-328 -121v139q-61 -66 -135.5 -102.5t-152.5 -36.5q-162 0 -286 138t-124 331q0 213 144 372t337 159q51 0 110 -18q23 -6 52 -21q30 -13 55 -32v259q0 91 -19 127t-68 36q-28 0 -60 -13z
M766 180v448q0 149 -81 220q-37 31 -78.5 49.5t-85.5 18.5q-105 0 -188.5 -118t-83.5 -283q0 -177 96 -302.5t229 -125.5q61 0 106 23t86 70z" />
    <glyph glyph-name="e" unicode="e" horiz-adv-x="897" 
d="M848 334q-33 -166 -139 -264t-243 -98q-163 0 -282 129.5t-119 361.5q0 223 114 366t309 143q162 0 261 -105.5t99 -273.5h-643l-1 -38q0 -153 93 -288t246 -135q195 0 273 219zM636 656q0 56 -14 100t-46 80q-56 63 -143 63q-84 0 -148 -64t-76 -179h427z" />
    <glyph glyph-name="f" unicode="f" horiz-adv-x="682" 
d="M74 950h132v52q0 136 31.5 230t127.5 165.5t215 71.5q94 0 177 -50.5t83 -119.5q0 -31 -26 -57q-24 -26 -57 -26q-47 0 -106 81q-66 99 -144 99q-43 0 -77 -27t-47 -71q-11 -44 -11 -173v-175h193v-63h-193v-660q0 -119 36.5 -154.5t132.5 -35.5v-37h-491v37
q85 0 120.5 37t35.5 153v660h-132v63z" />
    <glyph glyph-name="g" unicode="g" 
d="M730 913h220q42 0 42 -33v-37q0 -27 -36 -27h-147q53 -79 53 -174q0 -142 -102.5 -234.5t-251.5 -92.5h-43l-29 4l-26 5q-6 1 -16.5 4t-20.5 7q-38 -32 -60.5 -65t-22.5 -57q0 -36 44.5 -48.5t157.5 -12.5l170 1q171 0 247 -64t76 -147q0 -159 -168.5 -267.5
t-362.5 -108.5q-155 0 -272 62t-117 129q0 40 33.5 90t162.5 179q-104 33 -104 101q0 46 41.5 103.5t123.5 125.5q-83 42 -128.5 114.5t-45.5 164.5q0 138 103 237.5t268 99.5q56 0 112 -15q29 -7 52.5 -17.5t46.5 -26.5zM319 723q0 -144 58 -250.5t158 -106.5
q66 0 108.5 65t42.5 164q0 118 -57.5 219.5t-154.5 101.5q-72 0 -113.5 -56.5t-41.5 -136.5zM308 16q-94 -100 -94 -177q0 -71 106 -113q50 -17 112 -27l62 -7l66 -3q156 0 258 60t102 145q0 46 -48 76q-21 10 -97 22q-38 4 -81.5 6t-101.5 2l-88 1l-98 3h-23h-20
q-8 2 -11 2z" />
    <glyph glyph-name="h" unicode="h" horiz-adv-x="1131" 
d="M367 1469v-696q72 95 162 147q47 27 89.5 39.5t77.5 12.5q84 0 146 -51.5t81 -132.5q9 -40 14 -92.5t5 -119.5v-350q0 -102 25.5 -145.5t129.5 -43.5v-37h-476v37q101 0 126.5 46t25.5 143v392q0 90 -10 126q-9 39 -51.5 72t-98.5 33q-24 0 -39 -3t-26.5 -6t-30.5 -11
q-59 -20 -150 -107v-496q0 -120 35 -155q37 -34 130 -34v-37h-481v37q83 0 115 38q33 36 33 151v863q0 151 -15.5 192t-74.5 41q-13 0 -25.5 -1.5t-32.5 -9.5l-11 35l291 123h36z" />
    <glyph glyph-name="i" unicode="i" horiz-adv-x="555" 
d="M281 1474q42 0 73.5 -30.5t31.5 -74.5q0 -45 -30.5 -75.5t-74.5 -30.5t-75 31t-31 75q0 41 30 73t76 32zM48 865l284 107h35v-745q0 -107 30 -148q15 -18 43 -31q30 -11 69 -11v-37h-461v37q71 0 115 30t44 160v453v12q0 42 -5 60q-3 26 -18 49q-22 37 -79 37
q-25 0 -46 -10z" />
    <glyph glyph-name="j" unicode="j" horiz-adv-x="555" 
d="M301 1475q42 0 74 -30.5t32 -75.5q0 -44 -31.5 -75t-74.5 -31t-74.5 31t-31.5 75t33 75t73 31zM60 868l298 104h35v-924q0 -240 -91 -361t-271 -121q-73 0 -126.5 27.5t-53.5 75.5q0 33 27 60q28 25 59 25q48 0 104 -49q62 -57 91 -57q57 0 76 59t19 249v721
q0 166 -94 166q-21 0 -27 -2l-35 -9z" />
    <glyph glyph-name="k" unicode="k" horiz-adv-x="1131" 
d="M54 1356l292 113h35v-936l290 278q37 35 37 59q0 43 -77 43v37h419v-37q-125 0 -198.5 -48.5t-111.5 -86.5l-203 -192l256 -333q106 -139 164.5 -177.5t137.5 -38.5v-37h-456v37q65 0 65 39q0 23 -33 71l-290 376v-296q0 -99 24 -144.5t132 -45.5v-37h-483v37
q90 0 123.5 37t33.5 153v897q0 131 -18.5 168.5t-75.5 37.5q-17 0 -50 -9z" />
    <glyph glyph-name="l" unicode="l" horiz-adv-x="555" 
d="M371 1469v-1243q0 -116 31 -151q14 -16 42 -28q30 -10 63 -10v-37h-461v37q106 0 131.5 49t25.5 140v883v24v20v16v13v11q0 39 -5 49q-3 30 -28 55q-23 25 -61 25q-19 0 -49 -12l-14 36l290 123h35z" />
    <glyph glyph-name="m" unicode="m" horiz-adv-x="1685" 
d="M359 972v-195l36 37q153 158 283 158q95 0 154.5 -51.5t83.5 -155.5q71 101 159 154t180 53q78 0 140.5 -43t86.5 -119t24 -207v-375q0 -103 25.5 -147t129.5 -44v-37h-484v37q90 0 125.5 36.5t35.5 154.5v380v63q0 81 -46 130t-118 49q-121 0 -229 -107l-21 -19l2 -22
q6 -48 6 -106v-368q0 -103 25.5 -147t130.5 -44v-37h-486v37q89 0 126 36t37 155v368q0 125 -38.5 189t-129.5 64q-103 0 -214 -102l-24 -23v-496q0 -108 27 -149.5t124 -41.5v-37h-478v37q92 0 126 37t34 154v432q0 101 -23 138q-21 42 -79 42q-14 0 -41 -6l-17 -5l-15 36
l307 107h35z" />
    <glyph glyph-name="n" unicode="n" horiz-adv-x="1131" 
d="M367 972v-200q100 112 170.5 156t154.5 44q112 0 181 -84.5t69 -249.5v-411q0 -108 32.5 -149t111.5 -41v-37h-479v37q91 0 130 36q17 17 27 56q4 18 7 44t3 54v401q0 107 -41.5 165.5t-121.5 58.5q-60 0 -120.5 -33.5t-123.5 -102.5v-489q0 -107 31 -148q15 -18 47 -31
q31 -11 77 -11v-37h-470v37q87 0 117.5 42.5t30.5 147.5v461q0 150 -83 150q-31 0 -65 -17l-14 39l294 112h35z" />
    <glyph glyph-name="o" unicode="o" horiz-adv-x="1131" 
d="M1039 505q0 -211 -144.5 -372t-346.5 -161q-180 0 -318.5 138.5t-138.5 337.5t140 361.5t351 162.5q185 0 321 -139.5t136 -327.5zM854 420q0 190 -87.5 335.5t-232.5 145.5q-119 0 -188.5 -99.5t-69.5 -271.5q0 -190 87.5 -339t230.5 -149q113 0 186.5 101t73.5 277z
" />
    <glyph glyph-name="p" unicode="p" horiz-adv-x="1131" 
d="M371 972v-217q69 108 151.5 162.5t175.5 54.5q145 0 258.5 -131t113.5 -338q0 -231 -144 -381t-324 -150q-69 0 -128 22l-29 11l-25 15q-21 13 -49 39v-261q0 -114 36 -153t139 -39v-38h-511v38q94 0 132 35.5t38 156.5v861q0 108 -21.5 142.5t-67.5 34.5q-21 0 -65 -12
l-16 36l301 112h35zM371 692v-352q0 -123 20.5 -175t79 -91.5t132.5 -39.5q129 0 209.5 108.5t80.5 287.5q0 168 -75.5 282.5t-206.5 114.5q-63 0 -124.5 -33.5t-115.5 -101.5z" />
    <glyph glyph-name="q" unicode="q" horiz-adv-x="1131" 
d="M934 972v-1176q0 -98 24 -144t132 -46v-38h-495v38h28h19l17 2q14 0 20 2q6 0 20 7q30 9 48.5 49.5t18.5 129.5v358q-35 -43 -75 -79q-35 -32 -81 -58q-81 -45 -167 -45q-136 0 -252 123q-57 62 -86 147.5t-29 198.5q0 233 144 382t336 149q63 0 118.5 -15.5t108.5 -49.5
q70 24 115 65h36zM766 214v452q0 82 -21 130.5t-77.5 82.5t-128.5 34q-135 0 -213.5 -111.5t-78.5 -294.5q0 -87 20 -156.5t63 -126.5q83 -110 224 -110q38 0 62 3.5t47 16.5q42 21 97 73z" />
    <glyph glyph-name="r" unicode="r" horiz-adv-x="789" 
d="M378 972v-205q60 103 127 153q33 26 66 39q14 5 33 9t35 4q48 0 86 -36.5t38 -82.5q0 -30 -27 -60q-28 -28 -64 -28q-38 0 -86 41q-37 31 -56 31q-40 0 -75 -35q-31 -28 -77 -105v-469q0 -120 37.5 -155.5t143.5 -35.5v-37h-503v37q82 0 118.5 37.5t36.5 153.5v435
q0 116 -26 142q-24 27 -63 27q-24 0 -54 -12l-12 34l284 118h38z" />
    <glyph glyph-name="s" unicode="s" horiz-adv-x="789" 
d="M635 950v-289h-37q-12 108 -76 181t-156 73q-71 0 -118 -36.5t-47 -83.5q0 -66 44.5 -111t152.5 -99q174 -84 240.5 -156.5t66.5 -173.5q0 -137 -100.5 -210t-205.5 -73l-32 1q-12 0 -46 7q-17 2 -38.5 7t-45.5 13q-48 15 -67 15q-17 0 -38 -15h-42v320h35
q21 -141 100.5 -213.5t174.5 -72.5q62 0 110.5 41t48.5 99q0 69 -45.5 117.5t-206.5 139.5q-150 82 -186.5 144.5t-36.5 126.5q0 114 81 192t203 78q49 0 116 -19q51 -15 73 -15q20 0 41 12h37z" />
    <glyph glyph-name="t" unicode="t" horiz-adv-x="682" 
d="M371 1252v-302h218v-60h-218v-626q0 -85 30 -129.5t88 -44.5q37 0 68 20t60 59h41q-51 -96 -117.5 -146.5t-142.5 -50.5q-96 0 -144.5 68t-48.5 204v646h-145v39q210 84 279 323h32z" />
    <glyph glyph-name="u" unicode="u" horiz-adv-x="1131" 
d="M37 950h338v-635q0 -101 39.5 -157t118.5 -56q62 0 123.5 31t119.5 95v543q0 68 -18 90t-40 38q-7 6 -35 10l-66 4v37h328v-673q0 -89 21 -131q22 -37 69 -37q28 0 68 17v-40l-289 -114h-38v204q-43 -50 -85.5 -89t-81.5 -64q-81 -51 -158 -51q-80 0 -140.5 47.5
t-81.5 120.5q-10 36 -15 82t-5 108v441q0 76 -32 109q-30 33 -113 33h-27v37z" />
    <glyph glyph-name="v" unicode="v" 
d="M29 950h426v-37q-102 0 -102 -83q0 -46 37 -132l190 -466l218 541q21 51 21 75q0 65 -105 65v37h286v-37q-44 0 -71 -31q-21 -27 -66 -138l-311 -772h-40l-275 675q-65 163 -104 211t-104 55v37z" />
    <glyph glyph-name="w" unicode="w" horiz-adv-x="1473" 
d="M29 950h374v-37q-86 0 -86 -65q0 -23 3.5 -40.5t16.5 -49.5l192 -528l199 441l-46 123q-27 74 -60 96q-31 23 -93 23v37h436v-37q-117 0 -117 -74l3 -29q1 -6 4 -16.5t7 -18.5l200 -531l202 531q15 41 15 65q0 73 -108 73v37h281v-37q-36 0 -63 -36q-23 -29 -70 -147
l-287 -758h-39l-230 609l-270 -609h-39l-288 786q-33 94 -67 125q-30 30 -70 30v37z" />
    <glyph glyph-name="x" unicode="x" 
d="M46 950h428v-37q-78 0 -78 -51q0 -28 40 -90l87 -138l98 145q36 54 36 81q0 53 -75 53v37h315v-37q-105 0 -235 -193l-100 -148l160 -253q78 -124 145 -206q32 -38 62.5 -57t60.5 -19v-37h-419v37q87 0 87 47q0 35 -59 126l-136 216l-175 -259l-25 -45q-9 -20 -9 -34
q0 -51 91 -51v-37h-310v37q41 0 92 44.5t115 136.5l182 269l-161 253q-51 81 -99.5 127t-117.5 46v37z" />
    <glyph glyph-name="y" unicode="y" 
d="M34 950h424v-37q-57 0 -86 -19q-25 -16 -25 -55t19 -83l232 -518l159 433q59 160 59 181q0 51 -95 61v37h271v-37q-44 -6 -70 -44q-12 -18 -34 -68l-52 -130l-258 -699q-87 -236 -174.5 -321t-192.5 -85q-61 0 -99 30.5t-38 80.5q0 42 30.5 68.5t76.5 26.5q26 0 94 -27
q28 -11 47 -11q85 0 166 204l32 83l-330 735q-33 74 -72 115.5t-84 41.5v37z" />
    <glyph glyph-name="z" unicode="z" horiz-adv-x="895" 
d="M96 950h762v-37l-609 -846h344q123 0 170 53q20 25 34 67q12 42 12 97h38l-13 -284h-805v37l605 842h-331q-89 0 -122.5 -33.5t-51.5 -147.5h-33v252z" />
    <glyph glyph-name="braceleft" unicode="{" horiz-adv-x="981" 
d="M840 -360v-35q-163 18 -269.5 133.5t-106.5 250.5q0 70 21 160q25 113 25 159q0 66 -60.5 131t-167.5 78v40q109 14 168.5 77t59.5 132q0 60 -25 159q-21 87 -21 160q0 136 106.5 249.5t269.5 134.5v-35q-122 -27 -174 -95q-24 -33 -39 -66l-9 -32l-4 -35q0 -59 24 -166
q21 -89 21 -157q0 -108 -77.5 -199.5t-217.5 -144.5q138 -48 216.5 -145.5t78.5 -201.5q0 -65 -21 -157q-24 -104 -24 -167q0 -72 54 -135t172 -93z" />
    <glyph glyph-name="bar" unicode="|" horiz-adv-x="405" 
d="M135 1469h133v-1903h-133v1903z" />
    <glyph glyph-name="braceright" unicode="}" horiz-adv-x="981" 
d="M177 1434v35q162 -18 269 -133.5t107 -250.5q0 -68 -21 -160q-25 -113 -25 -159q0 -67 59.5 -130t168.5 -79v-40q-108 -12 -168 -76t-60 -133q0 -60 25 -159q21 -86 21 -160q0 -136 -105.5 -249.5t-270.5 -134.5v35q122 27 174 95q26 34 39 67q3 8 8 27.5t5 38.5
q0 16 -1 33.5t-4.5 44.5t-17.5 82q-23 101 -23 163q0 109 78 202t218 142q-138 50 -217 146.5t-79 201.5l1 35v22q3 11 4 16l6 39q1 8 4 20t7 25q24 102 24 166q0 72 -54 135t-172 93z" />
    <glyph glyph-name="asciitilde" unicode="~" horiz-adv-x="1366" 
d="M1171 853h51v-45q-3 -16 -5 -33t-15 -49q-18 -55 -59 -97q-34 -37 -80 -59q-22 -9 -46.5 -14.5t-51.5 -5.5l-51 3l-25 4l-27 7q-52 15 -272 106q-151 62 -215 62q-147 0 -180 -180h-52q0 43 4 72t16 61q20 56 60 96q76 73 168 73q101 0 382 -121q155 -64 217 -64
q159 0 181 184z" />
    <glyph glyph-name="quotesinglbase" unicode="&#x201a;" horiz-adv-x="682" 
d="M241 -316v42q76 43 120 88q21 22 33 54q5 14 8 31.5t3 38.5q0 55 -33 55q-14 0 -33 -8l-21 -6l-23 -2q-38 0 -70 28.5t-32 74.5q0 49 42.5 84.5t89.5 35.5q64 0 118.5 -57.5t54.5 -143.5q0 -103 -66.5 -192.5t-190.5 -122.5z" />
    <glyph glyph-name="florin" unicode="&#x192;" horiz-adv-x="1131" 
d="M943 1436v-465h-38q-21 162 -126 273t-249 111q-104 0 -174.5 -61t-70.5 -145q0 -63 42 -119.5t231 -165.5l61 -35l54 -33l107 -68q102 -66 174 -158.5t72 -212.5q0 -172 -136 -280t-297 -108q-56 0 -128.5 15t-167.5 47q-38 12 -65 12q-50 0 -83 -74h-38v474h38
q42 -203 155 -298t249 -95q120 0 195 63q38 32 57 72t19 88q0 82 -65 163.5t-283 204t-295 211.5t-77 222q0 153 115 258.5t283 105.5q92 0 253 -60q48 -16 70 -16q49 0 80 74h38z" />
    <glyph glyph-name="quotedblbase" unicode="&#x201e;" 
d="M587 -303q224 87 224 262q0 21 -7 31t-24 10q-8 0 -27 -10q-33 -18 -56 -18q-42 0 -77 33q-32 34 -32 77q0 51 38 86.5t92 35.5q75 0 120 -61q20 -28 33 -66.5t13 -79.5q0 -234 -297 -339v39zM138 -303q224 87 224 262q0 21 -7 31t-24 10q-8 0 -27 -10q-33 -18 -56 -18
q-42 0 -77 33q-32 34 -32 77q0 51 38 86.5t92 35.5q75 0 120 -61q20 -29 33 -66t13 -80q0 -234 -297 -339v39z" />
    <glyph glyph-name="ellipsis" unicode="&#x2026;" horiz-adv-x="2048" 
d="M1707 202q41 0 80 -33q34 -34 34 -82q0 -47 -34 -81t-80 -34q-47 0 -81 34t-34 81q0 48 34 81.5t81 33.5zM342 202q41 0 80 -33q34 -34 34 -82q0 -47 -34 -81t-80 -34q-44 0 -80 33q-34 34 -34 82t33.5 81.5t80.5 33.5zM1024 202q44 0 78.5 -33.5t34.5 -81.5
q0 -46 -34 -80.5t-79 -34.5q-48 0 -81 33t-33 82q0 44 33 79.5t81 35.5z" />
    <glyph glyph-name="dagger" unicode="&#x2020;" 
d="M491 972q0 54 -45 174t-45 179q0 46 33 88q17 20 36 30t40 10q45 0 78 -41.5t33 -91.5q0 -56 -51 -184l-32 -81q-10 -33 -10 -83q70 0 183 49q69 30 120 30q32 0 63.5 -29.5t31.5 -70.5q0 -39 -31 -71q-31 -28 -67 -28q-51 0 -119 28q-109 43 -181 52q0 -150 99 -240
q-99 -356 -99 -1110h-37q0 70 -3 191t-3 172q0 73 -4.5 135t-15.5 167q-26 280 -77 445q103 83 103 240q-52 0 -189 -56l-57 -16q-27 -6 -49 -6q-39 0 -68 28.5t-29 70.5q0 39 30.5 68.5t67.5 29.5q46 0 101 -23q69 -27 117 -41.5t76 -14.5z" />
    <glyph glyph-name="daggerdbl" unicode="&#x2021;" 
d="M494 1057v20l-2 23q0 9 -6 29q-6 28 -49 130q-24 60 -24 114q0 36 30 70t71 34q40 0 71 -34q28 -34 28 -75q0 -52 -43 -157l-29 -86q-9 -36 -9 -68h9q23 0 60.5 11t96 35t102.5 24q33 0 60 -26.5t27 -63.5q0 -39 -24.5 -63.5t-60.5 -24.5q-44 0 -106 24q-110 46 -164 46
q0 -53 24 -97t72 -80q-96 -108 -96 -334q0 -197 96 -314q-84 -59 -96 -173q49 0 172 49q51 21 95 21q28 0 58 -26.5t30 -65.5q0 -38 -28 -63.5t-60 -25.5l-18 1l-29 4q-18 3 -48 18q-119 49 -172 49q0 -70 52 -186q32 -73 32 -130q0 -35 -29 -67.5t-72 -32.5q-39 0 -73 34
q-31 34 -31 73q0 27 7 57t22 63q54 123 54 189q-54 0 -135 -33q-95 -39 -132 -39q-32 0 -60.5 26t-28.5 65t28.5 64.5t68.5 25.5q39 0 114 -33q40 -17 76 -27q17 -4 37 -7t32 -3q-12 114 -95 173q95 127 95 335q0 211 -95 313q44 32 69.5 77.5t25.5 99.5q-29 0 -64.5 -9
t-80.5 -29q-79 -32 -115 -32q-43 0 -69.5 26t-26.5 65q0 35 27.5 61t62.5 26q45 0 129 -35t137 -35z" />
    <glyph glyph-name="circumflex" unicode="&#x2c6;" horiz-adv-x="1985" 
d="M491 778h527v414q0 73 -21.5 108t-59.5 53q-40 16 -119 16v37h620v-37q-101 0 -149.5 -35.5t-48.5 -141.5v-414h35q336 0 481 -97t145 -295q0 -127 -74 -224t-174 -131q-22 -7 -50.5 -12.5t-83 -12t-138.5 -6.5h-563v37h26q174 0 174 162v504h-527v-476q0 -105 42 -147
q18 -17 62 -32q42 -11 96 -11v-37h-619v37q53 0 90.5 9t63.5 31q44 36 44 135v980q0 100 -47 138.5t-151 38.5v37h619v-37q-108 0 -154 -36.5t-46 -140.5v-414zM1240 81q44 -6 84 -6q168 0 245.5 86.5t77.5 223.5q0 156 -101.5 238t-305.5 82v-624z" />
    <glyph glyph-name="perthousand" unicode="&#x2030;" horiz-adv-x="2048" 
d="M1114 1436h88l-979 -1493h-88zM19 1071q0 151 78.5 254.5t186.5 103.5q111 0 190 -100.5t79 -260.5q0 -164 -78.5 -265t-184.5 -101q-114 0 -192.5 103.5t-78.5 265.5zM138 1069q0 -334 150 -334q147 0 147 324q0 341 -151 341q-146 0 -146 -331zM810 357q0 165 81 261
t185 96q99 0 183.5 -93.5t84.5 -266.5q0 -176 -84.5 -271t-178.5 -95q-114 0 -192.5 104t-78.5 265zM929 356q0 -335 150 -335q147 0 147 324q0 340 -150 340q-147 0 -147 -329zM1496 357q0 165 81 261t184 96q111 0 190 -101q37 -47 58 -113.5t21 -145.5q0 -176 -84.5 -271
t-179.5 -95q-102 0 -187 95q-39 47 -61 115.5t-22 158.5zM1614 356q0 -335 150 -335q147 0 147 324q0 340 -150 340q-147 0 -147 -329z" />
    <glyph glyph-name="Scaron" unicode="&#x160;" horiz-adv-x="1536" 
d="M1115 1820l-511 -300h-36l180 300h367zM498 764h49q125 0 212 74.5t160 268.5q53 146 89 193q18 25 42 45.5t56 38.5q62 36 168 36q187 0 187 -115q0 -45 -34 -77.5t-78 -32.5q-45 0 -121 46q-43 26 -69 26q-51 0 -79 -31t-75 -158q-107 -277 -239 -336q135 -42 276 -252
l13 -18l85 -122q142 -203 208.5 -258t150.5 -55h21v-37h-367l-351 485q-69 95 -125 144.5t-142 49.5h-37v-490q0 -152 168 -152h38v-37h-633v37h29q177 0 177 174v990q0 93 -49.5 130.5t-156.5 37.5v37h633v-37h-32q-94 0 -134 -41.5t-40 -133.5v-430z" />
    <glyph glyph-name="guilsinglleft" unicode="&#x2039;" horiz-adv-x="555" 
d="M450 992h58l-246 -474l246 -481h-58l-397 481z" />
    <glyph glyph-name="OE" unicode="&#x152;" horiz-adv-x="1685" 
d="M76 0v37h25q93 0 134.5 42.5t41.5 130.5v1008q0 151 -170 151h-31v37h625v-37l-72 -3q-31 -3 -49 -10q-33 -12 -59 -51q-22 -41 -22 -111v-1005q0 -63 18 -83.5t93 -20.5h483q51 0 74 22q19 25 19 82v1005q0 95 -46 135t-156 40v37h625v-37h-32q-169 0 -169 -175v-990
q0 -85 43 -128q44 -39 158 -39v-37h-386q-362 0 -362 -394h-37q0 197 -89 295.5t-301 98.5h-358z" />
    <glyph glyph-name="quoteleft" unicode="&#x2018;" horiz-adv-x="555" 
d="M425 1432q-224 -87 -224 -263q0 -21 7 -30t24 -12l28 9l25 9q16 5 31 7q45 0 77 -32t32 -75q0 -48 -40 -83.5t-90 -35.5q-73 0 -121 60q-20 28 -33 65t-13 81q0 227 297 337v-37z" />
    <glyph glyph-name="quoteright" unicode="&#x2019;" horiz-adv-x="555" 
d="M128 930q224 87 224 263q0 22 -7.5 31.5t-23.5 9.5q-6 0 -27 -9q-33 -15 -57 -15q-44 0 -76 32t-32 76q0 48 37.5 84t91.5 36q75 0 121 -61t46 -147q0 -230 -297 -340v40z" />
    <glyph glyph-name="quotedblleft" unicode="&#x201c;" 
d="M425 1433q-224 -87 -224 -264q0 -20 7 -29t24 -12l28 9q33 15 56 15q44 0 76 -32q33 -30 33 -75q0 -48 -40 -83.5t-90 -35.5q-73 0 -121 60q-20 28 -33 65t-13 81q0 230 297 337v-36zM893 1433q-224 -87 -224 -264q0 -20 8 -30.5t23 -10.5q6 0 27 9q33 15 57 15
q44 0 76 -32t32 -75q0 -50 -37.5 -84.5t-91.5 -34.5q-72 0 -122 60q-20 28 -33 65t-13 81q0 234 298 337v-36z" />
    <glyph glyph-name="quotedblright" unicode="&#x201d;" 
d="M601 930q224 87 224 263q0 22 -7.5 31.5t-23.5 9.5l-28 -9q-33 -15 -56 -15q-44 0 -76.5 32t-32.5 76q0 50 38 85t92 35q69 0 118 -58t49 -150q0 -230 -297 -340v40zM124 930q224 87 224 263q0 22 -7.5 31.5t-23.5 9.5q-6 0 -27 -9q-33 -15 -57 -15q-44 0 -76 32t-32 76
q0 48 37.5 84t91.5 36q75 0 121 -61t46 -147q0 -230 -297 -340v40z" />
    <glyph glyph-name="bullet" unicode="&#x2022;" horiz-adv-x="725" 
d="M109 703q0 98 72 176t181 78q102 0 178 -74.5t76 -179.5t-74.5 -179.5t-179.5 -74.5q-106 0 -179.5 75.5t-73.5 178.5z" />
    <glyph glyph-name="endash" unicode="&#x2013;" 
d="M-7 508h1039v-65h-1039v65z" />
    <glyph glyph-name="emdash" unicode="&#x2014;" horiz-adv-x="2048" 
d="M-7 508h2063v-65h-2063v65z" />
    <glyph glyph-name="tilde" unicode="&#x2dc;" horiz-adv-x="1536" 
 />
    <glyph glyph-name="trademark" unicode="&#x2122;" horiz-adv-x="2005" 
d="M50 1406h728l22 -201h-34q0 9 -1.5 20t-9.5 26q-4 11 -11.5 23t-19.5 25q-36 47 -152 47h-75v-580q0 -83 20 -106q9 -12 30.5 -18.5t55.5 -6.5v-36h-374v36q10 0 22 0.5t25 4t30 15.5q23 15 23 111v580h-76q-91 0 -132.5 -28t-57.5 -113h-34zM1155 1406l273 -572l265 572
h279v-37q-69 0 -91 -25q-20 -25 -20 -109v-469q0 -84 19 -106q9 -12 32 -18.5t60 -6.5v-36h-398v36q71 0 95 25.5t24 105.5v492l-307 -659h-32l-308 649v-482q0 -77 17.5 -104t75.5 -27h36v-36h-306v36q67 0 90 24.5t23 106.5v466q0 89 -20 113q-18 24 -93 24v37h286z" />
    <glyph glyph-name="scaron" unicode="&#x161;" horiz-adv-x="1685" 
 />
    <glyph glyph-name="guilsinglright" unicode="&#x203a;" horiz-adv-x="555" 
d="M106 37h-59l246 479l-246 476h59l396 -476z" />
    <glyph glyph-name="oe" unicode="&#x153;" horiz-adv-x="1675" 
 />
    <glyph glyph-name="Ydieresis" unicode="&#x178;" horiz-adv-x="1366" 
 />
    <glyph glyph-name="nonbreakingspace" unicode="&#xa0;" horiz-adv-x="512" 
 />
    <glyph glyph-name="exclamdown" unicode="&#xa1;" horiz-adv-x="1497" 
 />
    <glyph glyph-name="cent" unicode="&#xa2;" horiz-adv-x="1780" 
 />
    <glyph glyph-name="sterling" unicode="&#xa3;" horiz-adv-x="1579" 
 />
    <glyph glyph-name="currency" unicode="&#xa4;" horiz-adv-x="1409" 
d="M977 1064l127 127l88 -90l-126 -126q90 -126 90 -273q0 -143 -90 -272l126 -125l-88 -89l-127 125q-58 -41 -129 -66t-144 -25q-141 0 -272 91l-127 -125l-89 89l127 125q-91 124 -91 272q0 140 91 273l-127 126l89 90l127 -127q60 42 131 67q12 4 29 8t46 9.5t66 5.5
q138 0 273 -90zM704 1028q-130 0 -227.5 -94t-97.5 -232q0 -131 96 -228t229 -97t229 96t96 229q0 131 -95.5 228.5t-229.5 97.5z" />
    <glyph glyph-name="yen" unicode="&#xa5;" horiz-adv-x="1685" 
 />
    <glyph glyph-name="brokenbar" unicode="&#xa6;" horiz-adv-x="405" 
d="M135 1469h133v-825h-133v825zM135 389h133v-823h-133v823z" />
    <glyph glyph-name="section" unicode="&#xa7;" horiz-adv-x="789" 
d="M261 877q-58 59 -94 127l-12 30l-10 35l-7 34l-2 36q0 120 84 204t207 84q103 0 178 -65t75 -157q0 -36 -22 -64t-56 -28q-75 0 -75 83q0 30 5 46l7 35l2 22q0 35 -32.5 63t-79.5 28q-77 0 -133 -54.5t-56 -118.5q0 -78 49 -141t178 -160q122 -88 205 -188t83 -221
q0 -222 -222 -348q63 -60 94 -128q6 -14 13 -33q4 -13 9 -32t7 -34.5t2 -35.5q0 -123 -83 -206.5t-206 -83.5q-105 0 -180 66.5t-75 161.5q0 32 24 62q24 26 57 26q30 0 50.5 -24.5t20.5 -54.5v-14q0 -11 -2 -17l-6 -29l-7 -45q0 -39 33.5 -66.5t83.5 -27.5q78 0 133.5 54.5
t55.5 113.5q0 39 -12.5 76.5t-40.5 72.5q-46 59 -219 191q-248 183 -248 373q0 222 224 352zM294 846q-158 -86 -158 -224q0 -89 57.5 -163t165.5 -157q102 -78 144 -114q156 83 156 226q0 63 -33 123t-131 143z" />
    <glyph glyph-name="dieresis" unicode="&#xa8;" horiz-adv-x="1366" 
d="M421 1782q54 0 93 -38.5t39 -93.5q0 -54 -39 -93t-93 -39q-53 0 -94 39q-38 40 -38 93q0 54 39 93t93 39zM939 1781q53 0 92 -38t39 -94q0 -50 -38.5 -91t-92.5 -41q-52 0 -94 39q-38 40 -38 93q0 54 39 93t93 39zM1189 1406l18 -310h-36q-12 93 -53 144q-39 53 -86 69
q-24 8 -54 12t-75 4h-405v-543h362q184 0 184 205h37v-495h-37q0 124 -48.5 166.5t-144.5 42.5h-353v-509q0 -69 23 -91q25 -20 91 -20h291q140 0 217.5 56.5t160.5 213.5h39l-113 -351h-1133v37q91 0 133.5 23t56.5 60q12 36 12 153v861q0 125 -14 156q-12 32 -56 56l-23 8
l-32 9q-32 6 -77 6v37h1115z" />
    <glyph glyph-name="copyright" unicode="&#xa9;" horiz-adv-x="1599" 
d="M799 1438q301 0 516 -213.5t215 -516.5q0 -301 -214.5 -515.5t-516.5 -214.5q-301 0 -515.5 216t-214.5 514q0 193 99 365.5t270.5 268.5t360.5 96zM799 1374q-173 0 -326.5 -84.5t-247 -244t-93.5 -338.5q0 -273 195 -471q98 -98 216 -147t256 -49q273 0 470.5 195
t197.5 472q0 49 -5 90t-17 85q-21 82 -70 162q-90 156 -246.5 243t-329.5 87zM1160 1176l21 -288h-40q-74 243 -312 243q-161 0 -248 -114q-38 -53 -60.5 -127.5t-22.5 -158.5q0 -216 93 -320.5t248 -104.5q201 0 321 166l39 -19q-143 -209 -395 -209q-209 0 -343 135.5
t-134 321.5q0 188 141 332t372 144q38 0 85 -10q50 -9 106 -28l19 -5l20 -3q29 0 50 45h40z" />
    <glyph glyph-name="ordfeminine" unicode="&#xaa;" horiz-adv-x="1530" 
 />
    <glyph glyph-name="guillemotleft" unicode="&#xab;" 
d="M454 992h58l-247 -474l247 -481h-58l-390 481zM908 992h59l-246 -474l246 -481h-59l-396 481z" />
    <glyph glyph-name="logicalnot" unicode="&#xac;" horiz-adv-x="1366" 
d="M141 1001h1085v-597h-129v468h-956v129z" />
    <glyph glyph-name="minus" unicode="&#xad;" horiz-adv-x="682" 
d="M87 557h508v-161h-508v161z" />
    <glyph glyph-name="registered" unicode="&#xae;" horiz-adv-x="1599" 
d="M799 1438q301 0 516 -213.5t215 -516.5q0 -301 -214.5 -515.5t-516.5 -214.5q-301 0 -515.5 216t-214.5 514q0 193 99 365.5t270.5 268.5t360.5 96zM799 1374q-173 0 -326.5 -84.5t-247 -244t-93.5 -338.5q0 -273 195 -471q98 -98 216 -147t256 -49q273 0 470.5 195
t197.5 472q0 49 -5 90t-17 85q-21 82 -70 162q-90 156 -246.5 243t-329.5 87zM420 1156h397q141 0 224 -63.5t83 -166.5q0 -87 -55 -142t-174 -87l216 -307q30 -42 61 -67q31 -23 63 -23v-35h-189l-304 417h-78v-318q4 -23 23 -43.5t98 -20.5v-35h-377v35q51 0 72 12t28 35
q3 12 5 35.5t2 59.5v538q0 91 -16 115t-79 24v37zM664 727h31q127 0 195 51t68 136q0 81 -58 138.5t-149 57.5q-42 0 -87 -15v-368z" />
    <glyph glyph-name="macron" unicode="&#xaf;" horiz-adv-x="2298" 
 />
    <glyph glyph-name="degree" unicode="&#xb0;" horiz-adv-x="811" 
d="M405 1438q125 0 216.5 -90.5t91.5 -217.5q0 -126 -90.5 -216.5t-217.5 -90.5q-123 0 -215 90.5t-92 216.5q0 124 90 216t217 92zM405 1354q-90 0 -156.5 -63.5t-66.5 -159.5q0 -92 65 -157.5t158 -65.5q91 0 157 66t66 157q0 88 -65.5 155.5t-157.5 67.5z" />
    <glyph glyph-name="plusminus" unicode="&#xb1;" horiz-adv-x="1366" 
d="M140 937h478v480h129v-480h480v-129h-480v-477h-129v477h-478v129zM140 129h1087v-129h-1087v129z" />
    <glyph glyph-name="twosuperior" unicode="&#xb2;" horiz-adv-x="2298" 
 />
    <glyph glyph-name="threesuperior" unicode="&#xb3;" horiz-adv-x="1550" 
 />
    <glyph glyph-name="acute" unicode="&#xb4;" horiz-adv-x="2009" 
 />
    <glyph glyph-name="mu" unicode="&#xb5;" horiz-adv-x="1067" 
d="M127 950h169v-554q0 -175 33.5 -236.5t112.5 -61.5q60 0 122 34t122 104v714h170v-680v-61q0 -61 20.5 -93.5t50.5 -32.5q61 0 83 127h43q0 -115 -55 -176.5t-149 -61.5q-69 0 -108.5 47t-54.5 149q-77 -98 -160 -147t-164 -49q-51 0 -91 22t-69 65l-1 -47q0 -48 8 -106
t27 -141q14 -67 14 -109q0 -40 -26 -76t-71 -36t-68 35q-2 4 -7 14.5t-8 19.5q-7 23 -7 42q0 44 30 172q35 146 35 270l-1 100v753z" />
    <glyph glyph-name="paragraph" unicode="&#xb6;" horiz-adv-x="961" 
d="M983 1406v-37h-42q-78 0 -99 -36.5t-21 -174.5v-1590h-75v1781h-193v-1781h-76v1055q-498 0 -498 394q0 172 121.5 280.5t345.5 108.5h537z" />
    <glyph glyph-name="periodcentered" unicode="&#xb7;" horiz-adv-x="555" 
d="M277 816q42 0 78 -32.5t36 -81.5q0 -45 -34 -79t-80 -34q-41 0 -80 33q-33 33 -33 80q0 43 33 78.5t80 35.5z" />
    <glyph glyph-name="periodcentered" unicode="&#x2219;" horiz-adv-x="555" 
d="M277 816q42 0 78 -32.5t36 -81.5q0 -45 -34 -79t-80 -34q-41 0 -80 33q-33 33 -33 80q0 43 33 78.5t80 35.5z" />
    <glyph glyph-name="cedilla" unicode="&#xb8;" horiz-adv-x="897" 
d="M308 1412q45 0 77 -32t32 -76q0 -45 -33 -78q-12 -11 -25 -18q-24 -13 -51 -13q-44 0 -76 31.5t-32 77.5q0 45 32 77l25 18q5 2 21 7.5t30 5.5zM660 1410q45 0 77 -32q32 -30 32 -76q0 -44 -32 -76q-30 -32 -77 -32q-45 0 -77 32l-18 25q-13 26 -13 51q0 45 32 76
q8 8 16.5 13.5t18.5 10.5q19 8 41 8zM847 334q-33 -166 -139 -264t-243 -98q-163 0 -282 129.5t-119 361.5q0 223 114 366t309 143q162 0 261 -105.5t99 -273.5h-643l-1 -38q0 -153 93 -288t246 -135q195 0 273 219zM635 656q0 56 -14 100t-46 80q-56 63 -143 63
q-84 0 -148 -64t-76 -179h427z" />
    <glyph glyph-name="onesuperior" unicode="&#xb9;" horiz-adv-x="2048" 
d="M533 1406l600 -948v615q0 143 22.5 203t86.5 103t144 43q75 0 121.5 -36.5t46.5 -89.5q0 -39 -30.5 -71t-84.5 -32q-39 0 -83 25q-42 27 -71 27q-38 0 -53 -27q-11 -28 -11 -150v-1099h-40l-740 1169v-828q0 -170 -65 -255.5t-196 -85.5q-72 0 -117.5 39t-45.5 86
q0 40 30.5 71.5t80.5 31.5q51 0 107 -31q36 -17 53 -19q39 0 52 40t13 185v805q0 126 -45.5 159t-145.5 33v37h371zM1335 656q0 138 87 243t239 105q137 0 242.5 -91.5t105.5 -244.5q0 -150 -94 -250t-230 -100t-243 96.5t-107 241.5zM1487 740q0 -85 15.5 -149t52.5 -119
q70 -103 154 -103q62 0 109 51.5t47 133.5q0 139 -54.5 268t-161.5 129q-66 0 -114 -55t-48 -156zM1402 126h521v-126h-521v126z" />
    <glyph glyph-name="ordmasculine" unicode="&#xba;" horiz-adv-x="1429" 
 />
    <glyph glyph-name="guillemotright" unicode="&#xbb;" 
d="M570 37h-58l247 479l-247 476h58l390 -476zM116 37h-59l246 479l-246 476h59l396 -476z" />
    <glyph glyph-name="onequarter" unicode="&#xbc;" horiz-adv-x="2261" 
 />
    <glyph glyph-name="onehalf" unicode="&#xbd;" horiz-adv-x="1534" 
 />
    <glyph glyph-name="threequarters" unicode="&#xbe;" 
 />
    <glyph glyph-name="questiondown" unicode="&#xbf;" horiz-adv-x="1131" 
 />
    <glyph glyph-name="Agrave" unicode="&#xc0;" horiz-adv-x="1579" 
d="M795 1469l556 -1282q36 -84 73 -118q37 -32 124 -32v-37h-577v37q148 0 148 99q0 30 -28 95l-106 243h-567l-126 -287l-8 -27l-3 -29q0 -94 151 -94v-37h-406v37q61 6 98.5 42t91.5 157l541 1233h38zM702 1123l-250 -573h500z" />
    <glyph glyph-name="Aacute" unicode="&#xc1;" horiz-adv-x="1323" 
d="M79 1406h1056l12 -322h-37q0 113 -68.5 174t-198.5 61h-344v-541h143q322 0 462.5 -114.5t140.5 -279.5q0 -162 -130 -273t-368 -111h-668v37q90 0 127 18t56 56q16 42 16 126v932q0 90 -17 124q-15 38 -55.5 57t-126.5 19v37zM499 693v-601q73 -17 150 -17q143 0 243 87
t100 244q0 135 -99.5 216t-268.5 81q-33 0 -60.5 -2t-64.5 -8z" />
    <glyph glyph-name="Acircumflex" unicode="&#xc2;" horiz-adv-x="1366" 
d="M961 722q149 -27 235 -126q39 -45 61 -101.5t22 -116.5q0 -124 -72.5 -212.5t-184.5 -127t-289 -38.5h-645v37q86 0 132 24t59 61t13 151v861q0 125 -14 156q-12 32 -57 56l-23 8l-32 9q-32 6 -78 6v37h564q301 0 432.5 -110.5t131.5 -264.5q0 -106 -66.5 -191.5
t-188.5 -117.5zM514 1327v-549q56 -10 103.5 -16t71.5 -6q108 0 199.5 76.5t91.5 206.5q0 131 -98.5 216t-238.5 85l-63 -3q-37 -4 -39 -4q-18 -5 -27 -6zM514 682v-583q83 -27 170 -27q156 0 246 87t90 215q0 147 -114.5 231t-296.5 84q-30 0 -46 -1t-49 -6z" />
    <glyph glyph-name="Atilde" unicode="&#xc3;" horiz-adv-x="1282" 
d="M1229 1406l15 -321h-37q-21 145 -112 189.5t-225 44.5h-363v-1142q0 -66 50.5 -103t155.5 -37v-37h-628v37q82 0 125.5 20.5t59.5 54t16 125.5v942q0 120 -44 155t-157 35v37h1144z" />
    <glyph glyph-name="Adieresis" unicode="&#xc4;" horiz-adv-x="1530" 
d="M281 1406h1182v-37h-36q-85 0 -123.5 -42.5t-38.5 -128.5v-970q0 -115 43 -155q44 -36 134 -36h21v-431h-36q-42 194 -144 294t-357 100h-395q-75 0 -120 -7.5t-91 -27.5q-79 -36 -151.5 -132t-104.5 -227h-38v431q104 0 187 86t145.5 254t94.5 367q15 98 23 203.5
t8 221.5q0 121 -46 161q-19 16 -63 28l-42 8l-52 3v37zM583 1319l-24 -376q0 -136 -18.5 -261t-55.5 -235q-66 -203 -188 -359h639q65 0 89 18q19 19 19 91v1122h-461z" />
    <glyph glyph-name="Aring" unicode="&#xc5;" horiz-adv-x="1366" 
d="M1189 1406l18 -310h-36q-12 93 -53 144q-39 53 -86 69q-24 8 -54 12t-75 4h-405v-543h362q184 0 184 205h37v-495h-37q0 124 -48.5 166.5t-144.5 42.5h-353v-509q0 -69 23 -91q25 -20 91 -20h291q140 0 217.5 56.5t160.5 213.5h39l-113 -351h-1133v37q91 0 133.5 23
t56.5 60q12 36 12 153v861q0 125 -14 156q-12 32 -56 56l-23 8l-32 9q-32 6 -77 6v37h1115z" />
    <glyph glyph-name="AE" unicode="&#xc6;" horiz-adv-x="2042" 
d="M1329 37v-37h-618v37q80 0 116.5 15t62.5 51q22 41 22 100v489q-82 0 -104.5 -15.5t-129.5 -190.5q-102 -171 -270 -486h-363v37q54 0 115 33t106 90q30 42 152 249t151 243t100 78q-58 34 -95 96q-28 54 -86 236q-42 138 -63.5 173t-55.5 35q-35 0 -95 -35
q-34 -19 -64 -30q-32 -10 -49 -10q-37 0 -66.5 26t-29.5 75q0 54 50 89t129 35q78 0 142.5 -29.5t102.5 -87.5q35 -54 91 -239.5t110 -244t168 -58.5h30l24 4v439q0 90 -49 127.5t-152 37.5v37h618v-37q-47 0 -74 -3.5t-54 -12.5q-24 -6 -48 -45q-24 -36 -24 -97v-446l54 -4
q110 0 165 56.5t118 254.5q51 165 84 224.5t93.5 91.5t141.5 32q88 0 138.5 -36.5t50.5 -86.5q0 -37 -29.5 -69.5t-66.5 -32.5q-41 0 -110 41q-61 35 -96 35q-33 0 -50.5 -27t-69.5 -179q-57 -187 -85 -236t-94 -99q60 -31 101 -79q32 -37 191 -314q119 -205 192.5 -252.5
t139.5 -47.5v-37h-363l-350 618q-27 46 -57 61q-36 13 -98 13v-483q0 -81 39 -126.5t138 -45.5h23z" />
    <glyph glyph-name="Ccedilla" unicode="&#xc7;" horiz-adv-x="1090" 
d="M122 1438h40q14 -62 66 -62q20 0 70 15q146 47 261 47q157 0 277 -100t120 -267q0 -273 -278 -340q152 -18 237 -119.5t85 -238.5q0 -171 -139 -287.5t-360 -116.5q-282 0 -436 277l31 19q141 -200 352 -200q156 0 227.5 92.5t71.5 234.5q0 141 -96.5 225t-275.5 84
l-46 -1v68q216 0 310 79t94 239q0 113 -60 192t-181 79q-275 0 -335 -338h-35v419z" />
    <glyph glyph-name="Egrave" unicode="&#xc8;" horiz-adv-x="1688" 
d="M990 1406h626v-37q-110 0 -156.5 -37t-46.5 -128v-981q0 -65 12 -100t50 -61q42 -25 109 -25h32v-37h-626v37h38q30 0 50.5 4t42.5 16q38 20 56 57q15 36 15 109v848l-697 -858l3 -61q3 -28 10 -42q12 -28 51 -52q39 -21 99 -21h39v-37h-626v37h35q87 0 127 43t40 143
v981q0 87 -38.5 126t-137.5 39h-26v37h626v-37h-39q-163 0 -163 -165v-865l697 859q0 94 -41.5 132.5t-129.5 38.5h-31v37z" />
    <glyph glyph-name="Eacute" unicode="&#xc9;" horiz-adv-x="1688" 
d="M1167 1817q30 0 52.5 -26t22.5 -62q0 -87 -93.5 -152t-290.5 -65q-190 0 -287 63t-97 154q0 32 21 60t56 28q33 0 57 -24.5t66 -112.5q60 -124 184 -124q123 0 184 124l37 71q14 26 28 41q23 25 60 25zM990 1406h626v-37q-110 0 -156.5 -37t-46.5 -128v-981
q0 -65 12 -100t50 -61q42 -25 109 -25h32v-37h-626v37h38q30 0 50.5 4t42.5 16q38 20 56 57q15 36 15 109v848l-697 -858l3 -61q3 -28 10 -42q12 -28 51 -52q39 -21 99 -21h39v-37h-626v37h35q87 0 127 43t40 143v981q0 87 -38.5 126t-137.5 39h-26v37h626v-37h-39
q-163 0 -163 -165v-865l697 859q0 94 -41.5 132.5t-129.5 38.5h-31v37z" />
    <glyph glyph-name="Ecircumflex" unicode="&#xca;" horiz-adv-x="1536" 
d="M498 764h49q125 0 212 74.5t160 268.5q53 146 89 193q18 25 42 45.5t56 38.5q62 36 168 36q187 0 187 -115q0 -45 -34 -77.5t-78 -32.5q-45 0 -121 46q-43 26 -69 26q-51 0 -79 -31t-75 -158q-107 -277 -239 -336q135 -42 276 -252l13 -18l85 -122q142 -203 208.5 -258
t150.5 -55h21v-37h-367l-351 485q-69 95 -125 144.5t-142 49.5h-37v-490q0 -152 168 -152h38v-37h-633v37h29q177 0 177 174v990q0 93 -49.5 130.5t-156.5 37.5v37h633v-37h-32q-94 0 -134 -41.5t-40 -133.5v-430z" />
    <glyph glyph-name="Edieresis" unicode="&#xcb;" horiz-adv-x="1536" 
d="M288 1369v37h1175v-37q-106 0 -153.5 -33.5t-47.5 -125.5v-1007q0 -93 48 -131q49 -35 153 -35v-37h-628v37q54 0 93.5 9t65.5 30q47 36 47 127v1116h-465v-550q0 -391 -89 -587t-267 -196q-176 0 -176 128q0 51 32 79.5t65 28.5q39 0 95 -41t79 -41q78 0 126 153t48 441
v471q0 164 -177 164h-24z" />
    <glyph glyph-name="Igrave" unicode="&#xcc;" horiz-adv-x="2027" 
d="M1512 1406h426v-37q-92 0 -135 -23q-44 -20 -57 -60t-13 -151v-862q0 -123 11.5 -155t56 -56.5t137.5 -24.5v-37h-633v37q92 0 137 23.5t57.5 61.5t12.5 151v907l-545 -1180h-35l-547 1180v-907q0 -123 11.5 -154.5t54.5 -56.5q21 -11 55 -18l35 -5l41 -2v-37h-494v37
q90 0 135 24t57.5 61t12.5 151v853q0 94 -15.5 135.5t-61 68.5t-128.5 39v37h431l499 -1074z" />
    <glyph glyph-name="Iacute" unicode="&#xcd;" horiz-adv-x="1685" 
d="M496 679v-406q0 -113 12 -154q11 -30 57 -59q46 -23 138 -23v-37h-631v37q86 0 132 24t58 59.5t12 152.5v861q0 125 -14 156q-12 32 -56 56l-23 8l-32 9q-32 6 -77 6v37h631v-37q-88 0 -135 -22q-42 -18 -58 -56q-14 -37 -14 -157v-369h692v369q0 125 -14 156
q-12 36 -57 57q-19 8 -56 15q-19 3 -39 5t-44 2v37h636v-37q-86 0 -133 -22q-42 -18 -56.5 -55.5t-14.5 -157.5v-861q0 -114 12 -150.5t56.5 -61t135.5 -24.5v-37h-636v37h12l37 1q8 0 19 1t23 4q25 3 48 16q44 21 58 60q13 42 13 154v406h-692z" />
    <glyph glyph-name="Icircumflex" unicode="&#xce;" horiz-adv-x="1579" 
d="M1503 706q0 -83 -19 -167t-58 -169q-76 -168 -253 -286q-85 -56 -181 -85.5t-198 -29.5q-287 0 -503 212t-216 523q0 300 208.5 517t504.5 217q294 0 504.5 -214t210.5 -518zM1250 699q0 284 -119.5 471t-344.5 187q-222 0 -340 -182t-118 -468q0 -303 127.5 -481
t335.5 -178q203 0 331 176t128 475z" />
    <glyph glyph-name="Idieresis" unicode="&#xcf;" horiz-adv-x="1675" 
d="M1180 1319h-685v-1095q0 -68 12 -102.5t51 -61.5q38 -23 89 -23h53v-37h-628v37h32q169 0 169 175v990q0 87 -43 127q-21 20 -60 30q-17 4 -43 7t-55 3v37h1531v-37h-26q-82 0 -128.5 -35t-46.5 -137v-1009q0 -151 170 -151h31v-37h-628v37h53q51 0 85.5 20.5t50.5 56.5
t16 110v1095z" />
    <glyph glyph-name="Eth" unicode="&#xd0;" horiz-adv-x="1237" 
d="M472 673v-400q0 -115 12 -152t58 -62q10 -4 26.5 -8.5t41.5 -9t72 -4.5v-37h-632v37q87 0 129 22t59 60q12 36 12 154v861q0 125 -14 156q-12 32 -56 56l-23 8l-37 10q-20 4 -39.5 4.5t-30.5 0.5v37h599q270 0 409.5 -118t139.5 -277q0 -150 -127 -267t-328 -117
q-124 0 -271 46zM472 1302v-559q55 -20 94 -30l40 -7l39 -3q132 0 216 84q39 40 61 95t22 123q0 147 -94.5 235.5t-227.5 88.5q-69 0 -150 -27z" />
    <glyph glyph-name="Ntilde" unicode="&#xd1;" horiz-adv-x="1473" 
d="M1360 1439l33 -476h-33q-39 206 -182 304t-308 98q-226 0 -376 -169t-150 -516q0 -304 163 -463t394 -159q172 0 300.5 85.5t191.5 191.5l31 -20q-205 -346 -597 -346q-308 0 -526 207.5t-218 507.5q0 315 222.5 534.5t544.5 219.5q175 0 339 -76q42 -16 57 -16
q45 0 77 93h37z" />
    <glyph glyph-name="Ograve" unicode="&#xd2;" horiz-adv-x="1366" 
d="M62 1406h1238l20 -318h-40q-18 139 -92 184t-207 45h-189v-1044q0 -123 11.5 -155t56 -56.5t138.5 -24.5v-37h-631v37q91 0 133.5 22.5t56.5 61.5q12 38 12 152v1044h-182q-111 0 -161.5 -15t-93.5 -73q-7 -9 -17 -28t-18 -38q-13 -42 -13 -75h-37z" />
    <glyph glyph-name="Oacute" unicode="&#xd3;" horiz-adv-x="1497" 
d="M6 1406h598v-37h-25q-136 0 -136 -80q0 -27 31 -82l402 -713l299 691q31 78 31 100q0 84 -121 84h-26v37h432v-37q-144 -15 -228 -201l-407 -913q-126 -286 -381 -286q-90 0 -136 37t-46 82q0 102 106 102q62 0 138 -61q40 -31 62 -31q72 0 154 148l-521 949
q-54 102 -108 138t-118 36v37z" />
    <glyph glyph-name="Ocircumflex" unicode="&#xd4;" horiz-adv-x="1780" 
d="M577 1406h627v-37q-115 0 -159 -39.5t-44 -125.5l99 1q290 0 446.5 -139.5t156.5 -351.5t-160 -357t-439 -145l-103 4q0 -114 49 -147q24 -15 61 -24l41 -6l52 -2v-37h-627v37q106 0 154.5 32t48.5 147l-119 -4q-251 0 -417 139.5t-166 362.5q0 213 159 352t453 139
l90 -1q0 83 -45 125q-19 16 -61 28t-97 12v37zM1001 1135v-849q41 -11 81 -11q192 0 294.5 124.5t102.5 316.5q0 204 -107.5 315.5t-289.5 111.5q-39 0 -46 -2zM780 1135l-40 6l-41 2q-183 0 -290.5 -112t-107.5 -315q0 -188 99 -314.5t298 -126.5h19h14q9 2 12 2
q8 0 13.5 1t23.5 8v849z" />
    <glyph glyph-name="Otilde" unicode="&#xd5;" horiz-adv-x="1579" 
d="M28 1406h659v-37q-142 0 -142 -79q0 -37 47 -102l239 -331l288 348q39 47 39 84q0 80 -140 80v37h485v-37q-69 0 -114 -21.5t-81 -58.5l-68 -75l-130 -152l-227 -278l316 -439q154 -211 210.5 -259.5t143.5 -48.5v-37h-624v37q137 0 137 75q0 43 -53 114l-23 31l-254 353
l-334 -402q-48 -59 -48 -94q0 -77 135 -77v-37h-461v37q66 0 131 46t160 158l368 441l-324 445q-111 155 -176.5 198.5t-158.5 43.5v37z" />
    <glyph glyph-name="Odieresis" unicode="&#xd6;" horiz-adv-x="1685" 
d="M1601 37v-431h-35q-45 196 -146 295t-356 99h-988v37q103 0 150.5 42t47.5 156v971q0 83 -37 123t-129 40h-32v37h625v-37h-45q-85 0 -123 -46.5t-38 -150.5v-968q0 -74 17 -95t90 -21h473q66 0 86.5 18t20.5 91v1009q0 163 -165 163h-41v37h625v-37h-35q-74 0 -118 -32
t-44 -140v-967q0 -82 14.5 -117.5t54.5 -56.5q41 -19 108 -19h20z" />
    <glyph glyph-name="multiply" unicode="&#xd7;" horiz-adv-x="1530" 
d="M36 1406h630v-37q-102 0 -154 -33.5t-52 -129.5v-344q0 -126 64.5 -174t167.5 -48q71 0 154.5 20t188.5 63v466q0 111 -52 145.5t-154 34.5v37h630v-37q-103 0 -153 -33.5t-50 -138.5v-1003q0 -157 171 -157h32v-37h-630v37h31q98 0 136.5 44t38.5 141v423
q-124 -58 -233.5 -87t-203.5 -29q-127 0 -205.5 39t-116 102.5t-37.5 191.5v344q0 83 -46 123t-157 40v37z" />
    <glyph glyph-name="Oslash" unicode="&#xd8;" horiz-adv-x="2298" 
d="M73 1406h584v-37q-83 0 -130.5 -35t-47.5 -154v-990q0 -63 20 -83q22 -19 91 -19h337q70 0 90.5 19.5t20.5 82.5v990q0 96 -36.5 142.5t-141.5 46.5v37h578v-37q-63 0 -105.5 -21.5t-58.5 -56.5q-14 -34 -14 -111v-990q0 -63 20 -83q22 -19 92 -19h336q69 0 90.5 19.5
t21.5 82.5v990q0 96 -38 142.5t-140 46.5v37h583v-37q-99 0 -141 -43t-42 -146v-968q0 -90 42 -134q43 -41 141 -41v-37h-2152v37q184 0 184 161v995q0 176 -163 176h-21v37z" />
    <glyph glyph-name="Ugrave" unicode="&#xd9;" horiz-adv-x="2298" 
d="M73 0v37q184 0 184 161v995q0 176 -163 176h-21v37h584v-37q-83 0 -130.5 -35t-47.5 -154v-990q0 -63 20 -83q22 -19 91 -19h337q70 0 90.5 19.5t20.5 82.5v990q0 96 -36.5 142.5t-141.5 46.5v37h578v-37q-63 0 -105.5 -21.5t-58.5 -56.5q-14 -34 -14 -111v-990
q0 -63 20 -83q22 -19 92 -19h336q69 0 90.5 19.5t21.5 82.5v990q0 96 -38 142.5t-140 46.5v37h583v-37q-99 0 -141 -43t-42 -146v-968q0 -90 42 -134q43 -41 141 -41v-431h-37q-42 193 -142.5 293.5t-356.5 100.5h-1616z" />
    <glyph glyph-name="Uacute" unicode="&#xda;" horiz-adv-x="1550" 
d="M502 1319h-131q-138 0 -203.5 -49.5t-92.5 -191.5h-37l27 328h862v-37h-31q-99 0 -135.5 -45.5t-36.5 -155.5v-390h120q330 0 478 -109t148 -284q0 -138 -117.5 -261.5t-389.5 -123.5h-662v37q43 0 74.5 6t57.5 18q39 17 56 57q13 46 13 155v1046zM724 695v-603
q73 -17 155 -17q139 0 238.5 86t99.5 245q0 144 -104 221q-52 38 -123 57q-35 9 -73.5 14t-84.5 5q-76 0 -108 -8z" />
    <glyph glyph-name="Ucircumflex" unicode="&#xdb;" horiz-adv-x="2009" 
d="M77 1369v37h623v-37h-30q-173 0 -173 -145v-446h120q329 0 477.5 -108.5t148.5 -284.5q0 -141 -117.5 -263t-389.5 -122h-659v37h30q88 0 128.5 42.5t40.5 139.5v973q0 73 -26 111q-24 39 -58 51l-47 10q-22 3 -33 4t-35 1zM497 695v-603q73 -17 150 -17q139 0 241 84
t102 243q0 156 -112.5 228.5t-269.5 72.5h-34q-18 0 -26 -2zM1295 1369v37h647v-37q-97 0 -138 -20q-42 -18 -61 -58q-14 -37 -14 -157v-861q0 -117 12 -153t59 -61q16 -7 58 -16q36 -6 84 -6v-37h-647v37q89 0 135 21t63 57q15 36 15 158v861q0 124 -14 156
q-12 36 -59.5 57.5t-139.5 21.5z" />
    <glyph glyph-name="Udieresis" unicode="&#xdc;" horiz-adv-x="1323" 
d="M72 1369v37h623v-37h-30q-173 0 -173 -145v-446h120q329 0 477.5 -108.5t148.5 -284.5q0 -141 -117.5 -263t-389.5 -122h-659v37h30q88 0 128.5 42.5t40.5 139.5v973q0 73 -26 111q-24 39 -58 51l-47 10q-22 3 -33 4t-35 1zM492 695v-603q73 -17 150 -17q139 0 241 84
t102 243q0 156 -112.5 228.5t-269.5 72.5h-34q-18 0 -26 -2z" />
    <glyph glyph-name="Yacute" unicode="&#xdd;" horiz-adv-x="1429" 
d="M97 1438l-28 -480h37q33 194 173 301t310 107q219 0 365 -174q72 -87 110.5 -194t38.5 -231h-617v-88h617q0 -298 -158.5 -459t-386.5 -161q-289 0 -489 275l-24 -26q89 -153 242 -247q76 -45 162 -69q40 -11 85 -17t93 -6q164 0 336 81t282.5 253.5t110.5 388.5
q0 308 -222 527t-537 219q-141 0 -291 -63q-76 -32 -94 -32q-54 0 -78 95h-37z" />
    <glyph glyph-name="Thorn" unicode="&#xde;" horiz-adv-x="2261" 
d="M496 765h305q0 133 53.5 247.5t157.5 221.5q195 204 483 204q183 0 330 -87t256 -253q50 -77 79 -177q14 -51 21 -101.5t7 -109.5q0 -318 -208.5 -529.5t-477.5 -211.5q-150 0 -318.5 84t-274.5 254q-24 40 -44.5 85t-35 93t-21.5 93.5t-7 98.5h-305v-458
q0 -99 42.5 -140.5t154.5 -41.5v-37h-616v37q98 0 147.5 39.5t49.5 135.5v988q0 87 -44 128t-153 41v37h616v-37q-114 0 -155.5 -38.5t-41.5 -145.5v-420zM1513 1351q-204 0 -332 -159.5t-128 -495.5q0 -315 122 -478t318 -163q142 0 240 79.5t150 210t52 349.5
q0 222 -48.5 355.5t-148 217.5t-225.5 84z" />
    <glyph glyph-name="germandbls" unicode="&#xdf;" horiz-adv-x="1534" 
d="M676 680l-318 -393q-111 -138 -181.5 -189.5t-162.5 -60.5v-37h367l532 660l34 -2h47h30l22 2v-387q0 -123 -11.5 -154.5t-54.5 -56.5q-21 -9 -54 -18l-35 -5l-42 -2v-37h614v37q-78 0 -126 24q-38 17 -56 57q-13 46 -13 155v861q0 118 10 147q9 33 50 59l49 20l27 6
l34 2l25 1v37h-645q-259 0 -379 -110.5t-120 -255.5q0 -267 357 -360zM1046 1298v-569q-474 0 -474 304q0 120 88 211t228 91q75 0 158 -37z" />
    <glyph glyph-name="agrave" unicode="&#xe0;" 
d="M989 179v-52q-123 -155 -230 -155q-130 0 -130 172q-43 -41 -88 -76q-33 -24 -85 -53q-38 -19 -82 -32q-17 -5 -38 -8t-41 -3q-89 0 -151 69.5t-62 162.5q0 126 124 220q60 44 168 94q100 46 255 100q0 145 -10 194q-6 51 -46 84.5t-128 33.5q-66 0 -112 -37t-46 -100
l2 -33l1 -26q0 -86 -80 -86q-89 0 -89 85q0 97 99.5 168t264.5 71q124 0 195 -33.5t93 -94.5q8 -25 15 -72t7 -106v-476q0 -97 60 -97q57 0 134 86zM629 190v373q-225 -92 -300.5 -154t-75.5 -153q0 -67 45.5 -117t110.5 -50q51 0 105.5 24.5t114.5 76.5z" />
    <glyph glyph-name="aacute" unicode="&#xe1;" horiz-adv-x="1131" 
d="M989 1456h37q-27 -84 -74.5 -131.5t-123 -64.5t-205.5 -17q-126 0 -192 -22q-63 -18 -122 -87t-100 -204l-21 -87q-9 -52 -11 -54q-15 -86 -15 -162q45 161 161 253t260 92q165 0 310 -127t145 -347q0 -217 -142 -371.5t-330 -154.5q-193 0 -329.5 153.5t-136.5 425.5
q0 128 10 218q5 48 13.5 92.5t23.5 96.5q45 176 122.5 281.5t171.5 140.5q42 14 109.5 24t153.5 10l148 -1q104 0 137 43zM291 529q0 -249 93 -369.5t218 -120.5q95 0 174 89q38 42 58.5 114.5t20.5 169.5q0 210 -88 347q-42 68 -99 102t-125 34q-101 0 -176.5 -84.5
t-75.5 -281.5z" />
    <glyph glyph-name="acircumflex" unicode="&#xe2;" 
d="M59 950h440q208 0 299.5 -60.5t91.5 -186.5q0 -79 -45.5 -129t-139.5 -72q121 -21 180.5 -78.5t59.5 -154.5q0 -77 -41.5 -135t-128 -96t-276.5 -38h-440v37h29q14 0 39.5 8.5t47.5 25.5q38 32 38 134v554q0 87 -37 120.5t-117 33.5v37zM377 524l53 -2q142 0 211 47
t69 141q0 83 -65.5 129t-196.5 46l-71 -1v-360zM377 86q77 -20 132 -20q98 0 171 57t73 146q0 93 -77.5 142t-200.5 49l-98 -1v-373z" />
    <glyph glyph-name="atilde" unicode="&#xe3;" horiz-adv-x="907" 
d="M52 0v37q98 0 129 42t31 132v572q0 66 -24.5 98t-135.5 32v37h791l37 -253h-43q-24 115 -59 150q-34 37 -118 37h-283v-654q0 -118 36.5 -155.5t137.5 -37.5v-37h-499z" />
    <glyph glyph-name="adieresis" unicode="&#xe4;" horiz-adv-x="1087" 
d="M11 -254v291q95 0 159.5 69t116 257t51.5 383q0 95 -35 131q-33 36 -118 36v37h852v-37q-77 0 -115 -33.5t-38 -155.5v-546q0 -141 153 -141v-291h-37q0 101 -70 177.5t-210 76.5h-397q-244 0 -275 -254h-37zM401 885q0 -602 -175 -819h397q67 0 81 17q8 9 12 29.5
t4 56.5v716h-319z" />
    <glyph glyph-name="aring" unicode="&#xe5;" horiz-adv-x="897" 
d="M848 334q-33 -166 -139 -264t-243 -98q-163 0 -282 129.5t-119 361.5q0 223 114 366t309 143q162 0 261 -105.5t99 -273.5h-643l-1 -38q0 -153 93 -288t246 -135q195 0 273 219zM636 656q0 56 -14 100t-46 80q-56 63 -143 63q-84 0 -148 -64t-76 -179h427z" />
    <glyph glyph-name="ae" unicode="&#xe6;" horiz-adv-x="1466" 
d="M956 950v-37q-78 0 -108 -33q-28 -34 -28 -119v-231h34q72 0 119 43.5t87 159.5q45 128 96.5 177t136.5 49q52 0 81 -32q30 -30 30 -66q0 -30 -27 -59q-26 -23 -62 -23q-22 0 -65 17q-30 12 -51 12q-51 0 -86.5 -99.5t-57.5 -132.5t-69 -60q107 -33 188 -199l12 -22
l67 -120q38 -68 80.5 -103t91.5 -35v-37h-257l-207 361q-67 115 -119 115l-22 -2v-287q0 -87 28 -119q31 -31 108 -31v-37h-445v37q79 0 108 32q14 15 21 45q3 15 5 33t2 40v287l-21 2q-54 0 -120 -115l-207 -361h-257v37q48 0 89 32.5t84 105.5l66 120l12 22
q87 171 188 199q-45 24 -66.5 54.5t-56 134t-88.5 103.5q-17 0 -53 -12q-43 -17 -65 -17q-35 0 -62 23.5t-27 58.5q0 33 30 65.5t81 32.5q84 0 134 -47q52 -45 99 -179q42 -120 90.5 -161.5t115.5 -41.5h34v231q0 87 -29 119q-27 33 -107 33v37h445z" />
    <glyph glyph-name="ccedilla" unicode="&#xe7;" horiz-adv-x="854" 
d="M86 950h37q26 -18 43 -18l29 3l17 4l22 7q83 26 174 26q162 0 252 -69t90 -169q0 -167 -253 -221q293 -47 293 -261q0 -121 -111 -200.5t-279 -79.5q-216 0 -367 175l26 24q78 -63 158 -94q17 -6 35.5 -12t52 -12.5t73.5 -6.5q91 0 155.5 60.5t64.5 158.5q0 90 -70 151
t-200 61v62q52 0 98 12t77 38q68 51 68 148q0 84 -56.5 135t-142.5 51q-188 0 -254 -262h-38z" />
    <glyph glyph-name="egrave" unicode="&#xe8;" horiz-adv-x="1157" 
d="M52 950h449v-37q-74 0 -107 -33q-28 -34 -28 -120v-486l424 500q0 139 -135 139v37h449v-37q-40 0 -68 -9t-49 -27q-32 -34 -32 -117v-560q0 -89 34 -124q14 -15 46 -29q35 -10 69 -10v-37h-449v37q76 0 107 34q14 18 21 46l5 30l2 40v495l-424 -495q0 -83 27 -118
q29 -32 108 -32v-37h-449v37q149 0 149 150v573q0 92 -37 125q-37 28 -112 28v37z" />
    <glyph glyph-name="eacute" unicode="&#xe9;" horiz-adv-x="1157" 
d="M263 1315q0 77 70 77q60 0 116 -123q44 -106 140 -106q61 0 94 27t61 97q42 105 103 105q30 0 51.5 -22t21.5 -53q0 -73 -103 -141t-226 -68q-162 0 -245 60.5t-83 146.5zM52 950h449v-37q-74 0 -107 -33q-28 -34 -28 -120v-486l424 500q0 139 -135 139v37h449v-37
q-40 0 -68 -9t-49 -27q-32 -34 -32 -117v-560q0 -89 34 -124q14 -15 46 -29q35 -10 69 -10v-37h-449v37q76 0 107 34q14 18 21 46l5 30l2 40v495l-424 -495q0 -83 27 -118q29 -32 108 -32v-37h-449v37q149 0 149 150v573q0 92 -37 125q-37 28 -112 28v37z" />
    <glyph glyph-name="ecircumflex" unicode="&#xea;" horiz-adv-x="1075" 
d="M56 950h469v-37q-79 0 -114 -39.5t-35 -126.5v-211l40 -1q155 0 216 194q74 232 228 232q62 0 94.5 -30.5t32.5 -65.5q0 -34 -24.5 -60t-69.5 -26q-20 0 -47 10l-31 9l-36 7q-31 0 -55 -21q-14 -17 -38 -89q-36 -118 -106 -170q70 -21 160 -174l11 -18l106 -169
q54 -84 92 -106l39 -16l41 -5v-37h-265l-253 406q-46 73 -92 73l-20 -1q-11 0 -23 -4v-287q0 -150 149 -150v-37h-469v37q42 0 71.5 9t49.5 27q34 34 34 114v560q0 99 -37 132.5t-118 33.5v37z" />
    <glyph glyph-name="edieresis" unicode="&#xeb;" horiz-adv-x="1085" 
d="M151 950h880v-37q-70 0 -113.5 -31t-43.5 -136v-532q0 -88 33 -132.5t124 -44.5v-37h-486v37q99 0 131.5 41.5t32.5 146.5v659h-339v-504q0 -217 -51.5 -312.5t-179.5 -95.5q-131 0 -131 113q0 29 21 52.5t49 23.5q37 0 86 -49q20 -21 45 -21q46 0 70.5 73.5t24.5 252.5
v329q0 73 -13 99q-12 29 -50.5 48.5t-89.5 19.5v37z" />
    <glyph glyph-name="igrave" unicode="&#xec;" horiz-adv-x="1364" 
d="M375 950l302 -718l318 718h315v-37q-84 0 -116.5 -39.5t-32.5 -150.5v-536q0 -150 149 -150v-37h-456v37q60 0 100.5 26.5t40.5 123.5v600l-349 -787h-39l-340 787v-574q0 -93 26 -131q27 -36 116 -45v-37h-357v37q81 0 115 39t34 137v538q0 85 -33.5 123.5t-115.5 38.5
v37h323z" />
    <glyph glyph-name="iacute" unicode="&#xed;" horiz-adv-x="1157" 
d="M366 526h424v235q0 77 -30.5 114.5t-104.5 37.5v37h449v-37q-40 0 -69 -9t-45 -25t-27 -47q-4 -15 -6 -31t-2 -40v-561q0 -89 34 -124q14 -15 46 -29q35 -10 69 -10v-37h-449v37q74 0 107 34q14 17 21 47q3 15 5 32t2 37v274h-424v-274q0 -83 27 -118q29 -32 108 -32v-37
h-449v37q149 0 149 150v574q0 96 -37 124t-112 28v37h449v-37q-74 0 -107 -33q-28 -34 -28 -119v-235z" />
    <glyph glyph-name="icircumflex" unicode="&#xee;" horiz-adv-x="1131" 
d="M1039 505q0 -211 -144.5 -372t-346.5 -161q-180 0 -318.5 138.5t-138.5 337.5t140 361.5t351 162.5q185 0 321 -139.5t136 -327.5zM854 420q0 190 -87.5 335.5t-232.5 145.5q-119 0 -188.5 -99.5t-69.5 -271.5q0 -190 87.5 -339t230.5 -149q113 0 186.5 101t73.5 277z
" />
    <glyph glyph-name="idieresis" unicode="&#xef;" horiz-adv-x="1157" 
d="M52 950h1052v-37q-40 0 -68 -9t-49 -27q-32 -34 -32 -117v-560q0 -89 34 -124q14 -15 46 -29q35 -10 69 -10v-37h-449v37q74 0 107 34q14 17 21 47q3 15 5 32t2 37v697h-424v-697q0 -83 27 -118q29 -32 108 -32v-37h-449v37q149 0 149 150v573q0 92 -37 125
q-37 28 -112 28v37z" />
    <glyph glyph-name="eth" unicode="&#xf0;" horiz-adv-x="1131" 
d="M371 972v-217q69 108 151.5 162.5t175.5 54.5q145 0 258.5 -131t113.5 -338q0 -231 -144 -381t-324 -150q-69 0 -128 22l-29 11l-25 15q-21 13 -49 39v-261q0 -114 36 -153t139 -39v-38h-511v38q94 0 132 35.5t38 156.5v861q0 108 -21.5 142.5t-67.5 34.5q-21 0 -65 -12
l-16 36l301 112h35zM371 692v-352q0 -123 20.5 -175t79 -91.5t132.5 -39.5q129 0 209.5 108.5t80.5 287.5q0 168 -75.5 282.5t-206.5 114.5q-63 0 -124.5 -33.5t-115.5 -101.5z" />
    <glyph glyph-name="ntilde" unicode="&#xf1;" horiz-adv-x="897" 
d="M874 354q-18 -79 -54.5 -146.5t-91.5 -124.5q-108 -111 -253 -111q-189 0 -305 144.5t-116 346.5q0 229 134.5 369t332.5 140q137 0 232.5 -69.5t95.5 -152.5q0 -33 -28 -58q-28 -22 -71 -22q-93 0 -108 101q-9 67 -45.5 103t-110.5 36q-126 0 -198 -102
q-32 -47 -51 -111t-19 -140q0 -187 89 -303.5t241 -116.5q218 0 293 232z" />
    <glyph glyph-name="ograve" unicode="&#xf2;" horiz-adv-x="975" 
d="M570 884v-693q0 -78 35.5 -116t117.5 -38v-37h-471v37q82 0 117.5 36.5t35.5 127.5v683h-153q-76 0 -115 -33q-32 -30 -62 -154h-43l37 253h837l37 -253h-43q-24 114 -59 150.5t-118 36.5h-153z" />
    <glyph glyph-name="oacute" unicode="&#xf3;" 
d="M34 950h424v-37q-57 0 -86 -19q-25 -16 -25 -55t19 -83l232 -518l159 433q59 160 59 181q0 51 -95 61v37h271v-37q-44 -6 -70 -44q-12 -18 -34 -68l-52 -130l-258 -699q-87 -236 -174.5 -321t-192.5 -85q-61 0 -99 30.5t-38 80.5q0 42 30.5 68.5t76.5 26.5q26 0 94 -27
q28 -11 47 -11q85 0 166 204l32 83l-330 735q-33 74 -72 115.5t-84 41.5v37z" />
    <glyph glyph-name="ocircumflex" unicode="&#xf4;" horiz-adv-x="1366" 
d="M923 -394v-38h-474v38q85 0 118.5 39.5t33.5 125.5v294q-43 -46 -91.5 -69.5t-103.5 -23.5q-132 0 -232 144t-100 357q0 210 97.5 354.5t233.5 144.5q13 0 25.5 -1t29.5 -4.5t45 -17.5q49 -21 96 -70v343q0 106 -66 106q-25 0 -70 -16l-16 32l279 125h37v-590
q43 46 92.5 69.5t103.5 23.5q119 0 227 -135q49 -64 76.5 -157.5t27.5 -210.5q0 -223 -99.5 -360t-231.5 -137q-49 0 -97 22.5t-99 70.5v-306q0 -83 35 -118t123 -35zM601 815q-42 45 -82 67l-38 16q-18 6 -35 6q-93 0 -144 -109t-51 -322q0 -217 49.5 -324.5t147.5 -107.5
q33 0 72.5 21t80.5 67v686zM765 129q39 -42 79 -67q42 -22 72 -22q95 0 147 105t52 319q0 220 -48.5 330t-147.5 110q-34 0 -71.5 -21.5t-82.5 -67.5v-686z" />
    <glyph glyph-name="otilde" unicode="&#xf5;" 
d="M46 950h428v-37q-78 0 -78 -51q0 -28 40 -90l87 -138l98 145q36 54 36 81q0 53 -75 53v37h315v-37q-105 0 -235 -193l-100 -148l160 -253q78 -124 145 -206q32 -38 62.5 -57t60.5 -19v-37h-419v37q87 0 87 47q0 35 -59 126l-136 216l-175 -259l-25 -45q-9 -20 -9 -34
q0 -51 91 -51v-37h-310v37q41 0 92 44.5t115 136.5l182 269l-161 253q-51 81 -99.5 127t-117.5 46v37z" />
    <glyph glyph-name="odieresis" unicode="&#xf6;" horiz-adv-x="1161" 
d="M55 950h449v-37q-74 0 -107 -33q-29 -32 -29 -120v-610q0 -60 19 -73q19 -11 89 -11h232q55 0 70 15t15 75v604q0 81 -29.5 117t-105.5 36v37h446v-37q-38 0 -66 -9t-48 -27q-32 -34 -32 -117v-585q0 -84 36 -111t110 -27v-291h-38q0 123 -73 188.5t-207 65.5h-731v37
q149 0 149 150v573q0 92 -37 125q-37 28 -112 28v37z" />
    <glyph glyph-name="divide" unicode="&#xf7;" horiz-adv-x="1087" 
d="M38 950h436v-37q-78 0 -108 -33q-28 -34 -28 -119v-170q0 -81 30 -111t134 -30q100 0 221 59v252q0 90 -34 121t-102 31v37h449v-37q-40 0 -69 -9t-45 -25t-27 -47q-4 -15 -6 -31t-2 -40v-561q0 -89 34 -124q14 -15 46 -29q35 -10 69 -10v-37h-472v37q33 0 45 1.5t28 6.5
q29 8 48 27q38 36 38 115v270q-144 -85 -332 -85q-93 0 -142 25.5t-63 61.5q-13 46 -13 132v170q0 90 -34 121t-101 31v37z" />
    <glyph glyph-name="oslash" unicode="&#xf8;" horiz-adv-x="1659" 
d="M1606 950v-37q-84 0 -114 -42.5t-30 -163.5v-523q0 -70 33 -108.5t111 -38.5v-37h-1554v37q71 0 107 36t36 120v573q0 81 -33 114t-110 33v37h449v-37q-79 0 -112 -39q-29 -40 -29 -132v-566q0 -76 16.5 -93t86.5 -17h191q63 0 78 18t15 92v590q0 76 -30.5 111.5
t-106.5 35.5v37h441v-37q-69 0 -104.5 -37t-35.5 -147v-553q0 -75 18.5 -92.5t91.5 -17.5h177q59 0 79.5 18t20.5 83v599q0 72 -30.5 109.5t-108.5 37.5v37h447z" />
    <glyph glyph-name="ugrave" unicode="&#xf9;" horiz-adv-x="1659" 
d="M52 0v37q71 0 107 36t36 120v573q0 81 -33 114t-110 33v37h449v-37q-77 0 -112 -39q-29 -38 -29 -132v-566q0 -72 16 -92q17 -18 87 -18h191q63 0 78 18t15 92v590q0 76 -30.5 111.5t-106.5 35.5v37h441v-37q-69 0 -104.5 -37t-35.5 -147v-553q0 -75 18.5 -92.5
t91.5 -17.5h177q64 0 82 17.5t18 83.5v599q0 73 -29 108q-11 16 -40.5 27.5t-69.5 11.5v37h447v-37q-84 0 -114 -42.5t-30 -163.5v-506q0 -96 29 -131q30 -33 115 -33v-291h-38q0 123 -73 188.5t-206 65.5h-1237z" />
    <glyph glyph-name="uacute" unicode="&#xfa;" horiz-adv-x="1139" 
d="M81 950h622v-37q-82 0 -128.5 -30.5t-46.5 -146.5v-197h117q158 0 242 -21.5t138 -84.5t54 -150q0 -103 -97 -193t-329 -90h-448v37q82 0 120.5 36t38.5 114v697h-100q-81 0 -114 -33t-63 -154h-43zM528 83q62 -18 110 -18q113 0 181 59t68 150q0 90 -60.5 144.5
t-167.5 54.5q-77 0 -131 -10v-380z" />
    <glyph glyph-name="ucircumflex" unicode="&#xfb;" horiz-adv-x="1473" 
d="M52 0v37q81 0 120 33t39 119v574q0 80 -33.5 115t-125.5 35v37h499v-37q-82 0 -128.5 -29.5t-46.5 -147.5v-197h116q163 0 244 -21.5t136 -84.5t55 -150q0 -88 -60.5 -160.5t-149 -97.5t-241.5 -25h-424zM376 83q62 -18 109 -18q113 0 181 59t68 150q0 90 -60.5 144.5
t-167.5 54.5q-77 0 -130 -10v-380zM946 950h474v-37q-83 0 -122 -36q-33 -36 -33 -127v-571q0 -78 35 -110t120 -32v-37h-474v37q84 0 119 32t35 110v571q0 83 -33 124q-15 18 -47 28l-33 8l-41 3v37z" />
    <glyph glyph-name="udieresis" unicode="&#xfc;" horiz-adv-x="1006" 
d="M380 539h116q163 0 244 -21.5t136 -84.5t55 -150q0 -88 -60.5 -160.5t-149 -97.5t-241.5 -25h-424v37q81 0 120 33t39 119v574q0 80 -33.5 115t-125.5 35v37h499v-37q-82 0 -128.5 -29.5t-46.5 -147.5v-197zM380 83q65 -18 109 -18q119 0 184 63t65 146q0 89 -59.5 144
t-168.5 55q-77 0 -130 -10v-380z" />
    <glyph glyph-name="yacute" unicode="&#xfd;" horiz-adv-x="911" 
d="M654 534h-313v-63h313q0 -209 -69 -317.5t-206 -108.5q-163 0 -305 163l-31 -23q159 -213 371 -213q180 0 306 145.5t126 376.5q0 224 -129 351t-296 127q-74 0 -164 -30q-51 -18 -78 -18q-23 0 -46 15h-18v-279h37q18 126 94 186.5t166 60.5q113 0 178 -93
q13 -21 25.5 -53.5t21.5 -66.5q17 -74 17 -160z" />
    <glyph glyph-name="thorn" unicode="&#xfe;" horiz-adv-x="1604" 
d="M372 522h232q30 192 159 321t308 129q183 0 326 -132.5t143 -345.5t-145 -367.5t-343 -154.5q-184 0 -314 139q-63 72 -98.5 159.5t-35.5 190.5h-232v-282q0 -72 36 -110q37 -32 119 -32v-37h-474v37q41 0 69.5 6t48.5 26q37 34 37 110v571q0 87 -34 124q-15 18 -47 28
l-33 8l-41 3v37h474v-37q-73 0 -114 -29.5t-41 -133.5v-228zM787 537q0 -228 96 -363t213 -135q89 0 167 93t78 289q0 117 -21.5 203t-70.5 152q-91 130 -217 130q-109 0 -177 -101q-33 -49 -50.5 -117t-17.5 -151z" />
    <glyph glyph-name="ydieresis" unicode="&#xff;" horiz-adv-x="997" 
d="M26 0v37h21q59 0 110 70l235 348q-123 33 -186.5 96t-63.5 150q0 93 85.5 171t284.5 78h434v-37q-37 0 -64.5 -12.5t-44.5 -34.5q-29 -40 -29 -140v-526q0 -83 30 -125q32 -38 108 -38v-37h-442v37q75 0 107.5 39.5t32.5 135.5v215h-83l-296 -427h-239zM644 870
q-51 15 -103 15q-104 0 -156 -55t-52 -129q0 -82 68 -144t207 -62h36v375z" />
    <glyph glyph-name="c128" horiz-adv-x="1643" 
d="M77 1406h1093l13 -296h-37q-33 209 -252 209h-176v-554q83 100 185 155q50 26 103.5 39t102.5 13l57 -3q12 -1 26.5 -4t28.5 -7q50 -12 109 -45q105 -59 171 -167.5t66 -254.5q0 -210 -111.5 -357.5t-255.5 -147.5q-84 0 -155 52l20 36q53 -36 98 -36q65 0 110 66
q20 33 30 118l7 98l3 128q0 240 -79 319t-190 79q-90 0 -171.5 -48.5t-154.5 -145.5v-428q0 -104 44 -145q20 -17 60 -31l41 -8l53 -3v-37h-618v37q105 0 151.5 37.5t46.5 139.5v1105h-155q-225 0 -252 -209h-37z" />
    <glyph glyph-name="c129" horiz-adv-x="1282" 
d="M995 1820l-510 -300h-36l180 300h366zM1229 1406l15 -321h-37q-21 145 -112 189.5t-225 44.5h-363v-1142q0 -66 50.5 -103t155.5 -37v-37h-628v37q82 0 125.5 20.5t59.5 54t16 125.5v942q0 120 -44 155t-157 35v37h1144z" />
    <glyph glyph-name="c141" horiz-adv-x="1579" 
 />
    <glyph glyph-name="c142" horiz-adv-x="1323" 
 />
    <glyph glyph-name="c143" horiz-adv-x="1366" 
 />
    <glyph glyph-name="c144" horiz-adv-x="1282" 
 />
    <glyph glyph-name="c157" horiz-adv-x="1237" 
 />
    <glyph glyph-name="c158" horiz-adv-x="1473" 
 />
    <glyph glyph-name="afii10067" unicode="&#x432;" 
 />
    <glyph glyph-name="afii10068" unicode="&#x433;" horiz-adv-x="907" 
 />
    <glyph glyph-name="afii10069" unicode="&#x434;" horiz-adv-x="1087" 
 />
    <glyph glyph-name="afii10070" unicode="&#x435;" horiz-adv-x="897" 
 />
    <glyph glyph-name="afii10072" unicode="&#x436;" horiz-adv-x="1466" 
 />
    <glyph glyph-name="afii10073" unicode="&#x437;" horiz-adv-x="854" 
 />
    <glyph glyph-name="afii10074" unicode="&#x438;" horiz-adv-x="1157" 
 />
    <glyph glyph-name="afii10075" unicode="&#x439;" horiz-adv-x="1157" 
 />
    <glyph glyph-name="afii10076" unicode="&#x43a;" horiz-adv-x="1075" 
 />
    <glyph glyph-name="afii10077" unicode="&#x43b;" horiz-adv-x="1085" 
 />
    <glyph glyph-name="afii10078" unicode="&#x43c;" horiz-adv-x="1364" 
 />
    <glyph glyph-name="afii10079" unicode="&#x43d;" horiz-adv-x="1157" 
 />
    <glyph glyph-name="afii10080" unicode="&#x43e;" horiz-adv-x="1131" 
 />
    <glyph glyph-name="afii10081" unicode="&#x43f;" horiz-adv-x="1157" 
 />
    <glyph glyph-name="afii10082" unicode="&#x440;" horiz-adv-x="1131" 
 />
    <glyph glyph-name="afii10083" unicode="&#x441;" horiz-adv-x="897" 
 />
    <glyph glyph-name="afii10084" unicode="&#x442;" horiz-adv-x="975" 
 />
    <glyph glyph-name="afii10085" unicode="&#x443;" 
 />
    <glyph glyph-name="afii10086" unicode="&#x444;" horiz-adv-x="1366" 
 />
    <glyph glyph-name="afii10087" unicode="&#x445;" 
 />
    <glyph glyph-name="afii10088" unicode="&#x446;" horiz-adv-x="1161" 
 />
    <glyph glyph-name="afii10089" unicode="&#x447;" horiz-adv-x="1087" 
 />
    <glyph glyph-name="afii10090" unicode="&#x448;" horiz-adv-x="1659" 
 />
    <glyph glyph-name="afii10091" unicode="&#x449;" horiz-adv-x="1659" 
 />
    <glyph glyph-name="afii10092" unicode="&#x44a;" horiz-adv-x="1139" 
 />
    <glyph glyph-name="afii10093" unicode="&#x44b;" horiz-adv-x="1473" 
 />
    <glyph glyph-name="afii10094" unicode="&#x44c;" horiz-adv-x="1006" 
 />
    <glyph glyph-name="afii10095" unicode="&#x44d;" horiz-adv-x="911" 
 />
    <glyph glyph-name="afii10096" unicode="&#x44e;" horiz-adv-x="1604" 
 />
    <glyph glyph-name="afii10097" unicode="&#x44f;" horiz-adv-x="997" 
 />
    <glyph glyph-name="afii10071" unicode="&#x451;" horiz-adv-x="897" 
 />
    <glyph glyph-name="afii10099" unicode="&#x452;" horiz-adv-x="1010" 
d="M364 1191h430v-62h-430v-363q32 51 64.5 88t68 64.5t69.5 40.5q7 3 28 8t43 5q119 0 202 -137t83 -451q0 -65 -4 -126t-13 -117q-16 -109 -54 -212q-69 -197 -185.5 -280t-217.5 -83l-34 2v38q101 15 172.5 81.5t107.5 199.5q13 56 25 180q0 16 1 47t1 46l7 187l-3 178
l-3 63q0 16 -2.5 34.5t-4.5 28.5q-12 96 -54.5 146t-99.5 50q-48 0 -95 -34t-102 -106v-481q0 -120 35 -155q37 -34 130 -34v-37h-479v37q84 0 116.5 38t32.5 151v903h-160v62h160q0 131 -90 131q-29 0 -59 -11l-11 35l287 123h38v-278z" />
    <glyph glyph-name="afii10100" unicode="&#x453;" horiz-adv-x="907" 
d="M306 1125l106 344h228l-299 -344h-35zM52 0v37q98 0 129 42t31 132v572q0 66 -24.5 98t-135.5 32v37h791l37 -253h-43q-24 115 -59 150q-34 37 -118 37h-283v-654q0 -118 36.5 -155.5t137.5 -37.5v-37h-499z" />
    <glyph glyph-name="afii10101" unicode="&#x454;" horiz-adv-x="911" 
d="M256 534h313v-63h-313q0 -209 69 -317.5t206 -108.5q163 0 305 163l31 -23q-159 -213 -371 -213q-180 0 -306 145.5t-126 376.5q0 224 129 351t296 127q74 0 164 -30q51 -18 78 -18q23 0 46 15h18v-279h-37q-18 126 -94 186.5t-166 60.5q-113 0 -178 -93
q-13 -21 -25.5 -53.5t-21.5 -66.5q-17 -74 -17 -160z" />
    <glyph glyph-name="afii10102" unicode="&#x455;" horiz-adv-x="789" 
d="M635 950v-289h-37q-12 108 -76 181t-156 73q-71 0 -118 -36.5t-47 -83.5q0 -66 44.5 -111t152.5 -99q174 -84 240.5 -156.5t66.5 -173.5q0 -137 -100.5 -210t-205.5 -73l-32 1q-12 0 -46 7q-17 2 -38.5 7t-45.5 13q-48 15 -67 15q-17 0 -38 -15h-42v320h35
q21 -141 100.5 -213.5t174.5 -72.5q62 0 110.5 41t48.5 99q0 69 -45.5 117.5t-206.5 139.5q-150 82 -186.5 144.5t-36.5 126.5q0 114 81 192t203 78q49 0 116 -19q51 -15 73 -15q20 0 41 12h37z" />
    <glyph glyph-name="afii10103" unicode="&#x456;" horiz-adv-x="555" 
d="M281 1474q42 0 73.5 -30.5t31.5 -74.5q0 -45 -30.5 -75.5t-74.5 -30.5t-75 31t-31 75q0 41 30 73t76 32zM48 865l284 107h35v-745q0 -107 30 -148q15 -18 43 -31q30 -11 69 -11v-37h-461v37q71 0 115 30t44 160v453v12q0 42 -5 60q-3 26 -18 49q-22 37 -79 37
q-25 0 -46 -10z" />
    <glyph glyph-name="afii10104" unicode="&#x457;" horiz-adv-x="555" 
d="M105 1412q43 0 75.5 -30.5t32.5 -77.5q0 -45 -33 -78q-34 -31 -75 -31q-44 0 -76 32t-32 77q0 44 32 76t76 32zM457 1410q45 0 76.5 -30.5t31.5 -77.5q0 -44 -32 -76q-30 -32 -76 -32q-44 0 -76 32t-32 76q0 45 32 76q8 8 16.5 13.5t18.5 10.5q19 8 41 8zM48 865l284 107
h35v-745q0 -111 31 -148q15 -18 43 -31q30 -11 69 -11v-37h-462v37q75 0 117.5 30.5t42.5 159.5v453v12q0 42 -5 60q-3 26 -18 49q-22 37 -80 37q-22 0 -46 -10z" />
    <glyph glyph-name="afii10105" unicode="&#x458;" horiz-adv-x="555" 
d="M301 1475q42 0 74 -30.5t32 -75.5q0 -44 -31.5 -75t-74.5 -31t-74.5 31t-31.5 75t33 75t73 31zM60 868l298 104h35v-924q0 -240 -91 -361t-271 -121q-73 0 -126.5 27.5t-53.5 75.5q0 33 27 60q28 25 59 25q48 0 104 -49q62 -57 91 -57q57 0 76 59t19 249v721
q0 166 -94 166q-21 0 -27 -2l-35 -9z" />
    <glyph glyph-name="afii1016" unicode="&#x459;" horiz-adv-x="1567" 
d="M1085 950v-37q-68 0 -111 -29.5t-43 -147.5v-197h143q214 0 317.5 -62t103.5 -194q0 -89 -60 -159.5t-147 -97t-244 -26.5h-437v37q94 0 126.5 35t32.5 117v695h-347v-513q0 -190 -63.5 -288t-188.5 -98q-76 0 -117.5 36t-41.5 77q0 32 23 55.5t58 23.5q38 0 89 -42
q42 -36 73 -36q48 0 75 60t27 236v364q0 86 -35 120q-15 15 -47 24.5t-69 9.5v37h883zM931 83q66 -18 134 -18q93 0 165 57t72 154q0 105 -68 152q-31 20 -85 33t-121 13h-97v-391z" />
    <glyph glyph-name="afii10107" unicode="&#x45a;" horiz-adv-x="1579" 
d="M369 539h409v224q0 81 -33.5 115.5t-126.5 34.5v37h479v-37q-84 0 -119 -40t-35 -137v-197h143q214 0 317.5 -62t103.5 -194q0 -105 -96 -195q-48 -44 -131.5 -66t-199.5 -22h-462v37q95 0 127.5 35.5t32.5 116.5v285h-409v-295q0 -75 34 -110q35 -32 121 -32v-37h-474
v37q41 0 69.5 6t48.5 26q37 34 37 110v571q0 87 -34 124q-15 18 -47 28l-33 8l-41 3v37h474v-37q-73 0 -114 -29.5t-41 -133.5v-211zM943 83q77 -17 129 -17q100 0 171 57t71 153q0 105 -68 152q-31 20 -85 33t-121 13h-97v-391z" />
    <glyph glyph-name="afii10108" unicode="&#x45b;" horiz-adv-x="1118" 
d="M199 1191q0 131 -89 131q-17 0 -29 -2t-28 -9l-11 35l284 123h38v-278h449v-62h-449v-356q65 89 155.5 144t167.5 55q81 0 141 -51t80 -132t20 -213v-350q0 -117 33 -153t120 -36v-37h-468v37q100 0 125.5 46t25.5 143v392q0 90 -10 126q-9 39 -51.5 72t-97.5 33
q-54 0 -114 -30t-127 -97v-496q0 -120 34 -155q37 -34 128 -34v-37h-473v37q80 0 113 37.5t33 151.5v903h-146v62h146z" />
    <glyph glyph-name="afii10109" unicode="&#x45c;" horiz-adv-x="1075" 
d="M468 1125l106 344h227l-298 -344h-35zM56 950h469v-37q-79 0 -114 -39.5t-35 -126.5v-211l40 -1q155 0 216 194q74 232 228 232q62 0 94.5 -30.5t32.5 -65.5q0 -34 -24.5 -60t-69.5 -26q-20 0 -47 10l-31 9l-36 7q-31 0 -55 -21q-14 -17 -38 -89q-36 -118 -106 -170
q70 -21 160 -174l11 -18l106 -169q54 -84 92 -106l39 -16l41 -5v-37h-265l-253 406q-46 73 -92 73l-20 -1q-11 0 -23 -4v-287q0 -150 149 -150v-37h-469v37q42 0 71.5 9t49.5 27q34 34 34 114v560q0 99 -37 132.5t-118 33.5v37z" />
    <glyph glyph-name="afii10110" unicode="&#x45e;" 
d="M218 1318q0 74 72 74q59 0 115 -117q44 -104 141 -104q63 0 93 27t61 95q39 99 102 99q73 0 73 -79q0 -78 -96.5 -141.5t-218.5 -63.5q-153 0 -247.5 58t-94.5 152zM34 950h424v-37q-57 0 -86 -19q-25 -16 -25 -54q0 -43 19 -84l232 -518l159 433q59 160 59 181
q0 25 -24.5 43t-70.5 18v37h271v-37q-45 -6 -70 -44q-12 -18 -34 -68l-52 -130l-258 -699q-87 -236 -174.5 -321t-192.5 -85q-61 0 -99 30.5t-38 80.5q0 42 30.5 68.5t76.5 26.5q26 0 94 -27q28 -11 47 -11q85 0 166 204l31 83l-329 735q-34 78 -74.5 117.5t-81.5 39.5v37z
" />
    <glyph glyph-name="afii10193" unicode="&#x45f;" horiz-adv-x="1131" 
d="M584 -254h-37q0 124 -63.5 189t-179.5 65h-246v37q79 0 112 39t33 135v528q0 100 -32 135q-13 16 -43.5 27.5t-69.5 11.5v37h454v-37q-76 0 -110 -38.5t-34 -135.5v-589q0 -66 21 -75t86 -9h202q56 0 71 15t15 75v583q0 97 -32.5 135.5t-112.5 38.5v37h454v-37
q-80 0 -112 -39t-32 -135v-538q0 -94 30 -130q31 -34 114 -34v-37h-246q-114 0 -178 -64t-64 -190z" />
    <glyph glyph-name="afii10050" unicode="&#x490;" horiz-adv-x="1067" 
d="M65 1406h561q122 0 180.5 15t97 62.5t56.5 145.5h38v-310h-509v-1104q0 -96 43 -136q21 -18 62 -31l43 -8l57 -3v-37h-629v37q100 0 132.5 22.5t50.5 45t18 110.5v983q0 95 -43 132q-21 18 -62.5 28.5t-95.5 10.5v37z" />
    <glyph glyph-name="afii10098" unicode="&#x491;" horiz-adv-x="768" 
d="M722 1153v-269h-342v-683q0 -99 33 -132q17 -15 47 -24l33 -6l44 -2v-37h-484v37q88 0 124 39t36 147v548q0 84 -29 113q-27 29 -131 29v37h379q119 0 177 42t76 161h37z" />
    <glyph glyph-name="afii61352" unicode="&#x2116;" horiz-adv-x="2048" 
 />
    <glyph glyph-name="afii10053" unicode="&#xf12f;" horiz-adv-x="1429" 
d="M1335 1438l28 -480h-37q-33 194 -173 301t-310 107q-219 0 -365 -174q-72 -87 -110.5 -194t-38.5 -231h617v-88h-617q0 -298 158.5 -459t386.5 -161q289 0 489 275l24 -26q-89 -153 -242 -247q-76 -45 -162 -69q-40 -11 -85 -17t-93 -6q-164 0 -336 81t-282.5 253.5
t-110.5 388.5q0 308 222 527t537 219q141 0 291 -63q76 -32 94 -32q54 0 78 95h37z" />
    <glyph glyph-name="afii10055" unicode="&#xf130;" horiz-adv-x="791" 
d="M72 1369v37h647v-37q-97 0 -138.5 -20t-59.5 -58q-14 -37 -14 -157v-861q0 -115 12 -152t58 -62q16 -7 58 -16q36 -6 84 -6v-37h-647v37q89 0 135 21t63 57q15 36 15 158v861q0 124 -14 156q-12 36 -59.5 57.5t-139.5 21.5z" />
    <glyph glyph-name="afii10056" unicode="&#xf131;" horiz-adv-x="789" 
d="M139 1782q53 0 92.5 -37.5t39.5 -94.5q0 -54 -39 -93t-93 -39q-53 0 -94 39q-38 40 -38 93q0 54 39 93t93 39zM652 1781q55 0 94 -38t39 -94q0 -50 -39 -94q-40 -38 -94 -38q-53 0 -94 39q-38 40 -38 93q0 54 39 93t93 39zM72 1369v37h647v-37q-51 0 -81.5 -4t-55.5 -16
q-42 -18 -61 -58q-14 -37 -14 -157v-861q0 -117 12 -153.5t60 -59.5t140 -23v-37h-647v37q96 0 138.5 20t59.5 57q15 36 15 159v861q0 124 -14 156q-12 36 -59.5 57.5t-139.5 21.5z" />
    <glyph glyph-name="afii10057" unicode="&#xf132;" horiz-adv-x="897" 
d="M214 1369v37h629v-37q-42 0 -75 -6l-28 -7q-16 -3 -27 -10q-38 -18 -56 -56q-13 -46 -13 -156v-635q0 -164 -33 -273t-123 -183t-222 -74q-96 0 -164 42.5t-68 111.5q0 40 30 72t74 32q72 0 120 -96q45 -89 91 -89q39 0 57 48q5 16 8.5 33.5t3.5 43.5l4 143v824
q0 125 -14 156q-12 36 -57 57q-20 8 -54.5 15t-82.5 7z" />
    <glyph glyph-name="afii10058" unicode="&#xf133;" horiz-adv-x="1962" 
d="M1248 778h82q90 0 162 -7t126 -22q107 -27 189.5 -126t82.5 -237q0 -129 -72.5 -225.5t-181.5 -129.5q-24 -7 -52 -12.5t-66 -10t-73.5 -6.5t-83.5 -2h-542v37q112 0 159.5 35t47.5 126v1121h-429v-550q0 -464 -112 -624t-268 -160q-71 0 -122.5 36t-51.5 94q0 38 30 72
t78 34q39 0 113 -52q41 -29 61 -29q93 0 141 173.5t48 517.5v279q0 116 -12 164q-9 44 -53 69.5t-128 25.5v37h1133v-37q-124 0 -165 -42.5t-41 -164.5v-384zM1248 89q48 -14 87 -14q120 0 211 81t91 225t-84.5 233t-245.5 89l-59 -1v-613z" />
    <glyph glyph-name="afii10060" unicode="&#xf134;" horiz-adv-x="1663" 
d="M717 766q93 101 195 153q50 27 102.5 40t103.5 13q110 0 212 -68.5t102 -230.5v-444q0 -81 11.5 -110t52.5 -54l22 -12l25 -9l26 -5l29 -2v-37h-563v37q82 0 129 36t47 142v437q0 117 -55 154q-26 18 -55.5 27.5t-60.5 9.5q-92 0 -180 -57.5t-143 -133.5v-428
q0 -104 44 -145q20 -17 60 -31l41 -8l53 -3v-37h-618v37q105 0 151.5 37.5t46.5 140.5v1104h-155q-225 0 -252 -209h-37l25 296h1093l13 -296h-37q-33 209 -252 209h-176v-553z" />
    <glyph glyph-name="afii10062" unicode="&#xf135;" horiz-adv-x="1497" 
d="M1120 1817q30 0 52.5 -26t22.5 -62q0 -90 -93.5 -153.5t-290.5 -63.5q-201 0 -292.5 64t-91.5 153q0 32 21 60t56 28q33 0 57 -24.5t66 -112.5q60 -124 184 -124q123 0 184 124l37 71q14 26 28 41q23 25 60 25zM6 1406h598v-37h-25q-136 0 -136 -80q0 -27 31 -82
l402 -713l299 691q31 78 31 100q0 84 -121 84h-26v37h432v-37q-144 -15 -228 -201l-407 -913q-126 -286 -381 -286q-90 0 -136 37t-46 82q0 102 106 102q62 0 138 -61q40 -31 62 -31q72 0 154 148l-521 949q-54 102 -108 138t-118 36v37z" />
    <glyph glyph-name="afii10021" unicode="&#xf136;" horiz-adv-x="1530" 
 />
    <glyph glyph-name="afii10022" unicode="&#xf137;" horiz-adv-x="1366" 
 />
    <glyph glyph-name="afii10024" unicode="&#xf138;" horiz-adv-x="2042" 
 />
    <glyph glyph-name="afii10025" unicode="&#xf139;" horiz-adv-x="1090" 
 />
    <glyph glyph-name="afii10026" unicode="&#xf13a;" horiz-adv-x="1688" 
 />
    <glyph glyph-name="afii10027" unicode="&#xf13b;" horiz-adv-x="1688" 
 />
    <glyph glyph-name="afii10028" unicode="&#xf13c;" horiz-adv-x="1536" 
 />
    <glyph glyph-name="afii10030" unicode="&#xf13d;" horiz-adv-x="2027" 
 />
    <glyph glyph-name="afii10032" unicode="&#xf13e;" horiz-adv-x="1579" 
 />
    <glyph glyph-name="afii10046" unicode="&#xf13f;" horiz-adv-x="1323" 
 />
  </font>
</defs>
</svg>
